<svg width="482" height="110" viewBox="0 0 482 110" fill="none" xmlns="http://www.w3.org/2000/svg">
<path d="M56.2437 75.1947C55.937 80.3229 56.7826 85.4547 58.7184 90.2133C33.289 105.573 20.233 98.6614 13.4064 88.08C6.44959 76.3499 6.19016 61.8217 12.7237 49.8507C20.075 34.407 30.773 20.794 44.041 10C51.1405 14.1368 58.74 17.3487 66.6544 19.5574C60.4915 37.4967 56.9842 56.2407 56.2437 75.1947Z" fill="#FEBCC7" stroke="#5D0E14" stroke-width="15"/>
<path d="M468.248 91.08C461.421 101.661 448.365 108.573 422.936 93.2134C424.872 88.4547 425.717 83.3229 425.411 78.1947C424.67 59.2407 421.163 40.4967 415 22.5574C422.914 20.3487 430.514 17.1368 437.613 13C450.881 23.7939 461.579 37.407 468.931 52.8507C475.464 64.8217 475.205 79.3499 468.248 91.08V91.08Z" fill="#FEBCC7"/>
<path d="M468.931 52.8507C461.579 37.407 450.881 23.7939 437.613 13C432.245 16.1584 426.563 18.7495 420.658 20.7312C429.92 30.127 437.579 40.9773 443.331 52.8507C449.864 64.8217 449.605 79.3499 442.648 91.08C440.631 94.3249 437.895 97.0634 434.652 99.0843C452.53 106.107 462.565 99.895 468.248 91.08C475.205 79.3499 475.464 64.8217 468.931 52.8507Z" fill="#FC8EA0"/>
<path d="M468.248 91.08C461.421 101.661 448.365 108.573 422.936 93.2134C424.872 88.4547 425.717 83.3229 425.411 78.1947C424.67 59.2407 421.163 40.4967 415 22.5574C422.914 20.3487 430.514 17.1368 437.613 13C450.881 23.7939 461.579 37.407 468.931 52.8507C475.464 64.8217 475.205 79.3499 468.248 91.08V91.08Z" stroke="#5D0E14" stroke-width="15"/>
</svg>
