<svg width="1440" height="1024" viewBox="0 0 1440 1024" fill="none" xmlns="http://www.w3.org/2000/svg">
<g clip-path="url(#clip0_8_883)">
<rect width="1440" height="1024" fill="#FBF2A5"/>
<path d="M0 36L1434 36.0001" stroke="#B1C99A" stroke-width="2"/>
<path d="M0 86.0001L1434 86.0003" stroke="#B1C99A" stroke-width="2"/>
<path d="M0 136L1434 136" stroke="#B1C99A" stroke-width="2"/>
<path d="M0 186L1434 186.001" stroke="#B1C99A" stroke-width="2"/>
<path d="M0 236.001L1434 236.001" stroke="#B1C99A" stroke-width="2"/>
<path d="M0 286.001L1434 286.001" stroke="#B1C99A" stroke-width="2"/>
<path d="M0 336.001L1434 336.001" stroke="#B1C99A" stroke-width="2"/>
<path d="M0 386.001L1434 386.001" stroke="#B1C99A" stroke-width="2"/>
<path d="M0 436.001L1434 436.002" stroke="#B1C99A" stroke-width="2"/>
<path d="M0 486.002L1434 486.002" stroke="#B1C99A" stroke-width="2"/>
<path d="M0 536.002L1434 536.002" stroke="#B1C99A" stroke-width="2"/>
<path d="M0 586.002L1434 586.002" stroke="#B1C99A" stroke-width="2"/>
<path d="M0 636.002L1434 636.002" stroke="#B1C99A" stroke-width="2"/>
<path d="M0 686.002L1434 686.003" stroke="#B1C99A" stroke-width="2"/>
<path d="M0 736.003L1434 736.003" stroke="#B1C99A" stroke-width="2"/>
<path d="M0 786.003L1434 786.003" stroke="#B1C99A" stroke-width="2"/>
<path d="M0 836.003L1434 836.003" stroke="#B1C99A" stroke-width="2"/>
<path d="M0 886.003L1434 886.003" stroke="#B1C99A" stroke-width="2"/>
<path d="M0 936.003L1434 936.003" stroke="#B1C99A" stroke-width="2"/>
<path d="M0 986.003L1434 986.004" stroke="#B1C99A" stroke-width="2"/>
</g>
<defs>
<clipPath id="clip0_8_883">
<rect width="1440" height="1024" fill="white"/>
</clipPath>
</defs>
</svg>
