<svg width="186" height="119" viewBox="0 0 186 119" fill="none" xmlns="http://www.w3.org/2000/svg">
<path d="M178.045 64.8014C178.352 69.9296 177.507 75.0614 175.571 79.8201C174.725 82.1502 173.578 84.3593 172.157 86.3907C170.257 89.2153 167.891 91.6968 165.16 93.7294C149.497 104.072 131.27 109.862 112.509 110.455C106.536 110.967 100.136 111.223 93.0534 111.223C85.9707 111.223 79.5707 110.967 73.5974 110.455C54.8371 109.862 36.6098 104.072 20.9467 93.7294C18.2158 91.6968 15.8497 89.2153 13.9494 86.3907C12.529 84.3593 11.3814 82.1502 10.536 79.8201C8.60025 75.0614 7.75467 69.9296 8.06137 64.8014C8.80185 45.8474 12.3092 27.1034 18.472 9.16406C42.8328 15.3375 67.9334 18.0946 93.0534 17.3561C118.173 18.0946 143.274 15.3375 167.635 9.16406C173.798 27.1034 177.305 45.8474 178.045 64.8014Z" fill="#FEBCC7"/>
<path d="M167.635 9.16406C159.756 11.4091 151.729 13.0972 143.613 14.2158C148.747 30.6213 151.716 47.627 152.445 64.8014C152.752 69.9296 151.907 75.0614 149.971 79.8201C149.125 82.1502 147.978 84.3593 146.557 86.3907C144.657 89.2153 142.291 91.6968 139.56 93.7294C123.897 104.072 105.67 109.862 86.9094 110.455C84.7761 110.634 82.5062 110.745 80.2534 110.864C84.3068 111.078 88.5052 111.223 93.0534 111.223C100.136 111.223 106.536 110.967 112.509 110.455C131.27 109.862 149.497 104.072 165.16 93.7294C167.891 91.6968 170.257 89.2153 172.157 86.3907C173.578 84.3593 174.725 82.1502 175.571 79.8201C177.507 75.0614 178.352 69.9296 178.045 64.8014C177.305 45.8474 173.798 27.1034 167.635 9.16406V9.16406Z" fill="#FC8EA0"/>
<path d="M178.045 64.8014C178.352 69.9296 177.507 75.0614 175.571 79.8201C174.725 82.1502 173.578 84.3593 172.157 86.3907C170.257 89.2153 167.891 91.6968 165.16 93.7294C149.497 104.072 131.27 109.862 112.509 110.455C106.536 110.967 100.136 111.223 93.0534 111.223C85.9707 111.223 79.5707 110.967 73.5974 110.455C54.8371 109.862 36.6098 104.072 20.9467 93.7294C18.2158 91.6968 15.8497 89.2153 13.9494 86.3907C12.529 84.3593 11.3814 82.1502 10.536 79.8201C8.60025 75.0614 7.75467 69.9296 8.06137 64.8014C8.80185 45.8474 12.3092 27.1034 18.472 9.16406C42.8328 15.3375 67.9334 18.0946 93.0534 17.3561C118.173 18.0946 143.274 15.3375 167.635 9.16406C173.798 27.1034 177.305 45.8474 178.045 64.8014Z" stroke="#5D0E14" stroke-width="15"/>
<circle cx="93.5" cy="81.5" r="4.5" fill="#5D0E14"/>
</svg>
