<svg width="421" height="373" viewBox="0 0 421 373" fill="none" xmlns="http://www.w3.org/2000/svg">
<path fill-rule="evenodd" clip-rule="evenodd" d="M39.791 258.163C43.8583 255.621 48.9436 258.163 51.4851 262.738C54.0264 267.823 53.0111 273.414 48.9438 275.447C45.3842 277.48 39.7912 275.447 37.2496 270.361C34.7083 265.786 35.7237 260.193 39.791 258.16V258.163ZM113.512 354.257C72.8394 352.223 65.2125 314.092 67.2465 340.529C67.2465 340.529 91.1423 362.899 49.9594 354.257C42.8402 352.731 24.0296 334.428 45.3845 359.342C52.5037 367.984 199.945 377.645 206.559 370.529C215.201 361.887 278.247 376.122 279.265 365.954C279.773 362.394 333.158 370.529 333.158 353.752C333.158 350.7 297.061 361.379 312.311 350.193C316.379 347.141 361.122 346.633 373.831 342.058C399.253 332.398 383.491 321.722 374.849 337.991C370.275 347.143 346.379 327.822 341.293 342.058C332.14 344.6 288.925 335.957 320.957 333.416C354.006 330.875 331.125 300.878 364.681 291.217C388.577 284.609 377.39 242.407 366.715 276.982C359.088 300.37 336.21 274.948 336.718 309.52C337.736 331.89 308.754 317.654 288.926 342.057C287.4 344.091 255.369 353.752 257.403 333.415C235.54 333.415 271.131 361.378 248.761 352.736C247.235 352.229 215.204 310.027 213.679 340.535C213.171 346.128 246.728 351.721 201.477 353.755C182.156 354.773 155.211 300.877 130.297 315.623C116.061 323.758 163.346 330.877 146.566 334.434C126.737 338.501 179.104 348.669 179.615 349.177C180.633 355.278 145.551 358.837 140.465 333.415C137.924 320.196 119.619 343.584 118.095 304.433C117.588 296.299 92.673 272.403 105.386 322.229C106.912 328.837 117.08 317.654 119.114 341.55C119.622 352.226 155.72 356.293 113.521 354.259L113.512 354.257ZM277.224 350.697C284.851 349.171 290.444 346.63 289.934 344.596V344.088C287.9 345.614 283.325 347.648 278.239 348.156C271.631 349.682 266.038 349.174 264.511 347.648C264.004 348.156 263.493 349.174 263.493 349.682C264.001 351.208 270.102 351.715 277.221 350.7L277.224 350.697ZM205.029 359.339C214.181 359.339 221.805 357.305 221.805 354.764C221.805 354.256 221.805 354.256 221.297 353.746C218.756 355.779 213.163 356.798 206.044 356.798C197.909 356.798 190.79 355.272 189.267 352.73C188.759 353.238 188.249 354.256 188.249 354.764C188.249 357.305 195.368 359.339 205.025 359.339H205.029ZM349.423 290.7C352.475 290.192 354.509 290.7 355.524 292.226C354.506 291.718 352.983 291.208 350.949 291.718C346.374 292.226 341.797 295.785 340.781 298.837C340.273 299.856 340.273 300.871 340.781 301.379C339.763 300.871 338.747 299.345 339.255 297.819C340.781 294.259 344.848 291.21 349.423 290.7V290.7ZM380.439 332.391C379.42 333.409 378.913 334.425 378.913 335.443C379.42 334.935 379.931 333.917 380.439 333.409C381.965 331.376 385.013 330.868 386.032 331.376C386.539 331.883 387.05 332.394 387.05 332.902C387.558 331.883 387.05 330.868 386.032 330.361C385.013 329.853 381.964 330.361 380.439 332.394V332.391ZM353.491 339C357.558 339 360.099 340.018 360.099 340.526V341.033C359.081 340.526 356.54 340.015 353.998 339.507C350.946 339 347.897 339.507 347.39 340.015C346.882 339.507 346.882 339.507 346.882 338.997C346.882 338.489 349.934 338.489 353.491 338.997V339ZM371.286 270.36C370.268 271.886 370.778 273.92 371.286 275.446C370.778 274.428 371.286 272.905 371.794 271.379C372.812 268.327 374.846 266.804 376.879 267.311C377.387 267.311 377.897 267.819 378.405 268.837C378.405 267.311 377.387 266.296 376.372 265.785C374.338 265.278 372.304 267.311 371.286 270.36L371.286 270.36ZM251.807 342.049C252.825 343.575 254.348 345.101 255.874 345.608C254.856 344.59 253.84 343.575 253.333 342.556C251.807 339.504 252.314 336.455 253.84 335.437H255.874C254.856 334.929 253.84 334.419 252.822 334.929C250.788 335.948 250.788 338.997 251.804 342.049L251.807 342.049ZM228.418 335.948C230.452 337.981 231.47 340.523 231.47 342.556C230.963 341.03 229.944 339.504 228.418 337.982C225.366 334.422 220.284 333.407 217.742 335.44C216.724 335.948 216.216 336.966 216.216 337.982C215.709 335.948 216.216 334.422 217.742 333.407C220.284 331.373 225.369 332.388 228.418 335.948V335.948ZM161.813 326.795C172.489 334.422 180.116 341.538 179.609 342.557C179.609 343.064 179.101 343.064 179.101 343.064C176.56 340.012 169.948 334.422 162.324 328.829C153.172 321.202 145.037 316.119 143.003 315.609C141.985 314.59 141.477 314.083 141.985 313.575C142.493 313.067 151.645 318.661 161.814 326.795L161.813 326.795ZM104.361 307.474C103.342 299.847 103.853 293.238 105.379 292.731L105.887 293.239C105.379 295.272 105.379 300.358 105.887 306.458C106.905 313.578 108.428 319.168 109.446 320.187C109.446 321.205 108.939 321.713 108.939 321.713C107.413 321.713 105.379 315.612 104.364 307.477L104.361 307.474ZM79.4466 345.098C86.5659 350.184 92.6665 353.233 93.1748 352.217V351.71C91.1412 351.202 86.0555 348.658 80.9731 344.59C74.8722 340.523 70.2971 335.948 69.7865 334.422H68.2605C67.2422 335.44 72.3278 340.015 79.4471 345.098L79.4466 345.098ZM93.6823 296.798C87.0737 276.97 88.5967 288.156 83.0063 283.07C82.4987 283.07 81.988 266.801 72.8379 270.868C66.7369 273.41 69.7859 284.596 79.9571 286.122C81.4831 286.63 80.9754 291.715 86.5657 292.223C88.0917 292.223 87.584 299.342 93.6849 298.832C94.7032 298.832 94.1926 297.306 93.6849 296.798L93.6823 296.798ZM74.8719 280.529C76.3979 281.548 78.4315 282.055 79.9575 281.548C78.4315 281.548 77.4162 281.04 75.8902 280.529C73.3489 279.003 71.8229 275.954 72.8382 274.428C73.3458 273.921 73.8565 273.41 74.8718 272.902C73.3458 272.902 72.3305 273.41 71.3122 274.428C70.2939 276.462 71.8198 279.003 74.8718 280.529H74.8719ZM395.69 264.26C397.216 265.279 397.724 267.312 396.708 268.835C396.201 270.869 394.167 271.887 393.149 270.869C391.623 270.361 391.115 268.328 391.623 266.802C392.641 264.768 394.164 263.75 395.69 264.26V264.26ZM394.672 264.768C395.69 264.768 396.198 265.276 396.198 265.786C396.198 265.786 395.69 265.786 395.69 265.279C394.164 265.279 393.149 266.297 393.149 267.82C392.641 268.838 393.149 269.346 393.149 269.854C392.641 269.346 392.13 268.328 392.641 267.312C392.641 265.786 393.659 264.771 394.675 264.771L394.672 264.768ZM77.414 317.646C79.9553 315.612 84.5332 316.627 87.0742 320.187C89.6155 323.747 89.6155 327.814 87.0742 329.847C84.5329 331.881 80.4655 330.866 77.9216 327.306C75.3802 323.746 74.8696 319.679 77.4139 317.646H77.414ZM76.9064 320.698C77.9247 319.679 78.94 318.664 79.9584 318.664C79.4507 319.172 78.9401 319.682 78.9401 320.19C77.4141 322.224 78.4324 325.276 81.4814 326.799C82.4997 327.817 84.0227 327.817 85.5487 327.817C84.0227 328.835 81.9891 328.835 79.9554 327.309C76.9034 325.783 75.8881 322.735 76.9034 320.701L76.9064 320.698ZM404.338 223.589C409.931 223.589 415.014 228.164 415.014 233.249C415.014 238.842 409.928 242.909 404.338 242.909C398.237 242.909 393.662 238.842 393.662 233.249C393.662 228.163 398.237 223.589 404.338 223.589ZM403.83 225.622C405.864 225.622 407.898 226.13 409.423 227.656C408.405 227.148 406.882 226.638 405.864 226.638C401.797 226.638 398.237 229.69 398.237 233.757C398.237 235.791 399.255 237.824 400.778 238.843C398.237 237.824 396.203 235.283 396.203 232.234C396.203 228.674 399.763 225.625 403.83 225.625V225.622ZM362.647 309.512C367.732 309.512 371.799 313.072 371.799 317.139C371.799 321.714 367.732 325.274 362.647 325.274C357.561 325.274 354.005 321.714 354.005 317.139C354.005 313.072 357.564 309.512 362.647 309.512ZM362.647 311.546C364.173 311.546 365.699 312.054 367.221 313.072C366.203 312.564 365.188 312.564 364.169 312.564C360.61 312.564 358.069 315.106 358.069 318.157C358.069 319.683 358.576 321.21 359.595 322.225C357.561 321.207 356.035 319.173 356.035 317.139C356.035 314.087 359.087 311.546 362.644 311.546L362.647 311.546ZM246.213 278.497C249.772 278.497 252.821 282.056 252.821 286.124C252.821 289.683 249.769 293.243 246.213 293.243C242.653 293.243 239.604 289.683 239.604 286.124C239.604 282.056 242.656 278.497 246.213 278.497ZM246.213 280.53C247.739 280.53 248.754 281.038 249.772 282.056C249.265 282.056 248.246 281.549 247.739 281.549C245.197 281.549 242.653 284.601 242.653 287.65C242.653 289.176 243.161 290.702 244.179 291.717C242.653 290.699 241.638 288.665 241.638 286.631C241.638 283.072 243.671 280.53 246.213 280.53V280.53ZM127.749 271.888C132.323 270.87 136.901 273.922 138.935 279.515C140.461 285.108 138.427 290.702 133.85 291.717C129.782 293.243 124.697 289.683 123.174 284.09C121.648 278.497 123.681 273.414 127.748 271.888H127.749ZM126.73 275.448C128.256 274.43 129.782 274.43 131.305 275.448C130.287 275.448 129.779 275.448 128.764 275.956C126.223 277.482 125.204 281.041 127.238 284.598C128.256 286.124 129.779 287.65 131.305 288.157C128.764 288.157 126.73 286.631 125.204 284.09C123.171 281.038 124.186 276.971 126.73 275.448V275.448ZM268.58 331.882C270.106 332.39 270.613 334.424 269.598 336.457C269.09 337.983 267.057 338.999 266.038 338.491C264.512 337.983 264.005 335.95 264.512 333.916C265.531 332.39 267.054 331.375 268.58 331.882ZM267.561 332.39C268.58 332.39 269.087 332.898 269.087 333.408C269.087 332.901 268.58 332.901 268.58 332.901C267.054 332.901 266.038 333.919 266.038 335.442C265.531 335.95 266.038 336.968 266.038 337.476C265.531 336.968 265.02 335.95 265.02 334.424C265.528 333.405 266.546 331.882 267.561 332.39L267.561 332.39ZM42.837 331.372C45.3783 329.338 49.4456 330.353 51.9896 333.913C54.5309 337.473 55.0416 341.54 52.4973 343.573C49.956 345.607 45.3781 344.592 42.8371 341.032C40.2958 337.472 40.2958 333.405 42.8371 331.372H42.837ZM42.3294 334.424C42.837 333.405 43.8554 332.39 45.3814 332.39C44.8737 332.898 44.363 333.408 43.8554 333.916C42.3294 335.95 43.8554 339.002 46.3967 340.525C47.9227 341.543 49.4487 341.543 50.464 341.543C48.938 342.561 46.9044 342.561 44.8707 341.035C42.3294 339.509 40.8034 336.46 42.3294 334.427L42.3294 334.424ZM297.56 316.121C302.135 316.121 305.187 319.173 305.187 323.24C305.187 326.8 302.135 330.359 297.56 330.359C293.492 330.359 290.44 326.8 290.44 323.24C290.44 319.173 293.492 316.121 297.56 316.121ZM293.492 319.68C294.511 318.662 295.526 318.154 297.052 318.154C296.544 318.662 296.034 319.173 295.526 319.68C293.492 321.206 294 324.766 296.034 327.307C297.56 328.326 299.086 328.833 300.101 329.341C298.575 329.849 296.034 328.833 294.508 327.307C291.966 324.766 291.456 321.714 293.489 319.68H293.492ZM100.289 339.509C102.323 339.001 104.357 340.017 104.864 342.561C105.883 344.595 104.864 346.628 103.338 347.647C101.812 348.154 99.7787 346.628 98.7634 344.595C98.2558 342.561 98.7634 340.02 100.289 339.509ZM99.7817 340.527C100.289 340.02 100.8 340.02 101.815 340.02C101.308 340.527 100.797 340.527 100.797 340.527C99.7787 341.546 99.7787 343.579 100.797 345.102C101.305 345.61 101.815 346.121 102.831 346.121C101.812 346.121 100.797 345.613 99.7787 344.595C98.7604 343.576 98.7604 341.543 99.7787 340.527L99.7817 340.527ZM360.095 350.696C362.636 352.729 362.636 356.289 360.095 359.338C358.062 361.879 354.502 362.897 351.961 360.864C349.419 358.83 349.419 354.763 351.961 352.222C353.994 349.681 358.062 348.662 360.095 350.696ZM356.536 352.222C357.554 352.222 358.569 352.729 359.588 353.748C359.08 353.24 358.062 353.24 357.554 353.24C355.52 353.24 353.487 355.274 353.487 358.326C353.487 359.344 353.994 360.867 354.505 361.885C352.979 360.867 352.471 359.344 352.471 357.31C352.471 354.258 354.505 352.225 356.539 352.225L356.536 352.222ZM420.089 328.326C422.123 331.378 420.597 335.953 417.037 338.494C412.97 341.036 408.395 341.036 406.361 337.987C404.328 334.935 405.854 330.36 409.413 327.818C413.481 324.766 418.055 325.277 420.089 328.326ZM417.037 327.818C418.056 328.837 418.563 329.852 419.071 331.378L417.545 329.852C415.004 328.326 411.952 329.344 409.918 331.886C408.9 333.412 408.392 334.938 408.392 336.46C407.884 334.427 407.884 332.393 409.41 330.36C411.444 327.308 414.496 326.292 417.037 327.818L417.037 327.818ZM40.29 259.69C41.816 259.182 43.342 259.182 44.8649 259.69C43.8466 259.69 43.3389 259.69 42.3236 260.197C39.7823 261.723 38.764 265.791 40.7976 269.35C41.8159 270.876 42.8312 272.402 44.3572 272.91C42.3236 272.91 39.7823 271.384 38.764 268.842C36.7304 265.283 37.7457 261.215 40.29 259.69V259.69Z" fill="#7CB1FF"/>
<path d="M292.211 236.786C292.491 241.439 291.72 246.096 289.956 250.415C289.186 252.529 288.141 254.534 286.847 256.378C285.115 258.941 282.96 261.193 280.472 263.037C266.201 272.423 249.595 277.678 232.503 278.215C227.061 278.68 221.23 278.912 214.777 278.912C208.325 278.912 202.494 278.68 197.052 278.215C179.96 277.678 163.353 272.423 149.083 263.037C146.595 261.193 144.439 258.941 142.708 256.378C141.414 254.534 140.369 252.529 139.598 250.415C137.835 246.096 137.064 241.439 137.344 236.786C138.018 219.585 141.214 202.575 146.829 186.295C169.023 191.898 191.891 194.4 214.777 193.73C237.663 194.4 260.532 191.898 282.726 186.295C288.341 202.575 291.536 219.585 292.211 236.786Z" fill="#FEBCC7"/>
<path d="M282.726 186.295C275.548 188.333 268.235 189.865 260.841 190.88C265.518 205.768 268.223 221.2 268.888 236.786C269.167 241.439 268.397 246.096 266.633 250.415C265.863 252.529 264.817 254.534 263.523 256.378C261.792 258.941 259.636 261.193 257.148 263.037C242.878 272.423 226.272 277.678 209.18 278.215C207.236 278.378 205.168 278.479 203.116 278.587C206.809 278.781 210.634 278.912 214.777 278.912C221.23 278.912 227.061 278.68 232.503 278.215C249.595 277.678 266.201 272.423 280.472 263.037C282.96 261.193 285.115 258.941 286.847 256.378C288.141 254.534 289.186 252.529 289.956 250.415C291.72 246.096 292.491 241.439 292.211 236.786C291.536 219.585 288.341 202.575 282.726 186.295Z" fill="#FC8EA0"/>
<path d="M292.211 236.786C292.491 241.439 291.72 246.096 289.956 250.415C289.186 252.529 288.141 254.534 286.847 256.378C285.115 258.941 282.96 261.193 280.472 263.037C266.201 272.423 249.595 277.678 232.503 278.215C227.061 278.68 221.23 278.912 214.777 278.912C208.325 278.912 202.494 278.68 197.052 278.215C179.96 277.678 163.353 272.423 149.083 263.037C146.595 261.193 144.439 258.941 142.708 256.378C141.414 254.534 140.369 252.529 139.598 250.415C137.835 246.096 137.064 241.439 137.344 236.786C138.018 219.585 141.214 202.575 146.829 186.295C169.023 191.898 191.891 194.4 214.777 193.73C237.663 194.4 260.532 191.898 282.726 186.295C288.341 202.575 291.536 219.585 292.211 236.786Z" stroke="#5D0E14" stroke-width="15"/>
<path d="M197.051 278.215C196.196 310.817 190.365 330.564 184.534 342.18C180.419 350.756 171.764 356.253 162.222 356.351C161.469 356.364 160.717 356.338 159.967 356.274C147.618 354.677 138.188 344.502 137.577 332.113C136.521 306.757 138.241 281.362 142.708 256.378C144.439 258.941 146.595 261.193 149.083 263.037C163.353 272.423 179.959 277.678 197.051 278.215Z" fill="#97DED3" stroke="#5D0E14" stroke-width="15"/>
<path d="M291.977 332.113C291.366 344.502 281.936 354.677 269.587 356.274C268.837 356.338 268.085 356.364 267.332 356.351C257.79 356.253 249.135 350.756 245.02 342.18C239.189 330.564 233.358 310.817 232.503 278.215C249.595 277.678 266.201 272.423 280.471 263.037C282.959 261.193 285.115 258.941 286.846 256.378C291.313 281.362 293.033 306.757 291.977 332.113Z" fill="#97DED3"/>
<path d="M286.846 256.378C285.115 258.941 282.959 261.193 280.471 263.037C275.919 266.321 270.953 268.993 265.7 270.983C268.708 291.212 269.698 311.689 268.654 332.113C268.085 340.89 263.176 348.812 255.554 353.254C259.15 355.271 263.205 356.338 267.332 356.351C268.085 356.364 268.837 356.338 269.587 356.274C281.936 354.677 291.366 344.502 291.977 332.113C293.033 306.757 291.313 281.362 286.846 256.378Z" fill="#76CAC1"/>
<path d="M291.977 332.113C291.366 344.502 281.936 354.677 269.587 356.274C268.837 356.338 268.085 356.364 267.332 356.351C257.79 356.253 249.135 350.756 245.02 342.18C239.189 330.564 233.358 310.817 232.503 278.215C249.595 277.678 266.201 272.423 280.471 263.037C282.959 261.193 285.115 258.941 286.846 256.378C291.313 281.362 293.033 306.757 291.977 332.113V332.113Z" stroke="#5D0E14" stroke-width="15"/>
<path d="M331.394 100.803C331.394 132.708 331.394 160.896 303.328 177.622C296.86 181.376 289.937 184.291 282.726 186.296C260.532 191.898 237.663 194.4 214.777 193.73C191.891 194.4 169.023 191.898 146.829 186.296C139.618 184.291 132.694 181.376 126.226 177.622C98.1604 160.896 98.1604 132.708 98.1604 100.803C98.1604 57.9018 134.623 21.8153 184.146 11.1287C194.213 8.97287 204.48 7.88267 214.777 7.8763C220.259 7.87043 225.736 8.1807 231.181 8.80557C287.78 15.1556 331.394 53.875 331.394 100.803Z" fill="#F9F7E8"/>
<path d="M231.181 8.80557C225.736 8.1807 220.259 7.87043 214.777 7.8763C211.084 7.8763 207.493 8.1938 203.893 8.46484C205.215 8.581 206.552 8.65069 207.866 8.80557C264.456 15.1556 308.071 53.875 308.071 100.803C308.071 132.708 308.071 160.896 280.005 177.622C273.537 181.376 266.613 184.291 259.403 186.296C241.025 191.086 222.112 193.532 203.115 193.575C206.878 193.668 210.742 193.73 214.777 193.73C237.663 194.4 260.532 191.898 282.726 186.296C289.937 184.291 296.86 181.376 303.328 177.622C331.394 160.896 331.394 132.708 331.394 100.803C331.394 53.875 287.779 15.1556 231.181 8.80557Z" fill="#FBDDCF"/>
<path d="M331.394 100.803C331.394 132.708 331.394 160.896 303.328 177.622C296.86 181.376 289.937 184.291 282.726 186.296C260.532 191.898 237.663 194.4 214.777 193.73C191.891 194.4 169.023 191.898 146.829 186.296C139.618 184.291 132.694 181.376 126.226 177.622C98.1604 160.896 98.1604 132.708 98.1604 100.803C98.1604 57.9018 134.623 21.8153 184.146 11.1287C194.213 8.97287 204.48 7.88267 214.777 7.8763C220.259 7.87043 225.736 8.1807 231.181 8.80557C287.78 15.1556 331.394 53.875 331.394 100.803Z" stroke="#510A10" stroke-width="15"/>
<path d="M164.243 116.291C174.978 116.291 183.679 124.958 183.679 135.65C183.679 146.343 174.978 155.01 164.243 155.01C153.509 155.01 144.807 146.343 144.807 135.65C144.807 124.958 153.509 116.291 164.243 116.291Z" fill="white"/>
<path d="M265.311 116.291C276.046 116.291 284.748 124.958 284.748 135.65C284.748 146.343 276.046 155.01 265.311 155.01C254.577 155.01 245.875 146.343 245.875 135.65C245.875 124.958 254.577 116.291 265.311 116.291Z" fill="white"/>
<path d="M137.033 116.291C137.033 112.014 140.513 108.547 144.807 108.547H183.68C187.973 108.547 191.454 112.014 191.454 116.291C191.422 118.847 190.101 121.216 187.94 122.594C190.212 126.576 191.422 131.071 191.454 135.65C191.454 150.619 179.271 162.754 164.243 162.754C149.215 162.754 137.033 150.619 137.033 135.65C137.065 131.071 138.275 126.576 140.547 122.594C138.385 121.216 137.065 118.847 137.033 116.291ZM164.243 147.266C170.684 147.266 175.905 142.066 175.905 135.65C175.905 129.235 170.684 124.035 164.243 124.035C157.803 124.035 152.582 129.235 152.582 135.65C152.582 142.066 157.803 147.266 164.243 147.266Z" fill="#5D0E14"/>
<path d="M238.101 116.291C238.101 112.014 241.581 108.547 245.875 108.547H284.747C289.041 108.547 292.522 112.014 292.522 116.291C292.49 118.847 291.169 121.216 289.008 122.594C291.28 126.576 292.49 131.071 292.522 135.65C292.522 150.619 280.339 162.754 265.311 162.754C250.283 162.754 238.101 150.619 238.101 135.65C238.133 131.071 239.343 126.576 241.615 122.594C239.453 121.216 238.132 118.847 238.101 116.291ZM265.311 147.266C271.752 147.266 276.973 142.066 276.973 135.65C276.973 129.235 271.752 124.035 265.311 124.035C258.871 124.035 253.65 129.235 253.65 135.65C253.65 142.066 258.871 147.266 265.311 147.266Z" fill="#5D0E14"/>
<path d="M191.255 142.805C190.865 137.111 191.942 131.414 194.407 126.131C162.019 109.078 145.39 116.752 136.695 128.499C127.835 141.522 127.504 157.652 135.826 170.942C145.189 188.088 158.814 203.201 175.713 215.184C184.756 210.592 194.435 207.026 204.515 204.574C196.666 184.657 192.198 163.848 191.255 142.805Z" fill="#FEBCC7" stroke="#5D0E14" stroke-width="15"/>
<path d="M241.12 151.209C241.511 145.516 240.434 139.818 237.968 134.535C270.356 117.483 286.985 125.156 295.68 136.904C304.541 149.927 304.871 166.056 296.55 179.346C287.187 196.492 273.561 211.605 256.662 223.589C247.62 218.996 237.941 215.43 227.86 212.978C235.71 193.062 240.177 172.252 241.12 151.209Z" fill="#FEBCC7" stroke="#5D0E14" stroke-width="15"/>
<g clip-path="url(#clip0_15_306)">
<path d="M78.3317 169.439C78.3626 169.192 78.3332 168.942 78.246 168.709C78.1152 168.355 77.8569 168.063 77.5215 167.89C77.186 167.717 76.7976 167.676 76.4321 167.774C75.5664 168.001 55.1669 173.399 49.9489 179.339C44.4439 185.636 44.4924 194.757 50.0964 199.68C55.7003 204.602 64.7814 203.5 70.2994 197.219C75.5192 191.276 78.2223 170.326 78.3317 169.439ZM52.1183 197.378C47.7766 193.564 47.8433 186.386 52.2547 181.364C55.6514 177.497 68.2743 173.277 74.9874 171.343C73.9526 178.264 71.4092 191.339 68.0125 195.206C63.6011 200.228 56.4705 201.201 52.1183 197.378Z" fill="#010101"/>
<path d="M67.6369 194.876C63.362 199.743 56.5446 200.601 52.4483 197.002C48.3539 193.406 48.3537 186.563 52.6304 181.694C53.4206 180.795 54.7839 179.84 56.5364 178.877C58.2786 177.921 60.3648 176.979 62.5643 176.093C66.6434 174.449 71.0823 173.011 74.3748 172.043C73.8455 175.44 72.9989 180.034 71.9008 184.296C71.3088 186.594 70.646 188.786 69.9238 190.638C69.1972 192.501 68.4269 193.977 67.6369 194.876Z" fill="#7CB1FF" stroke="black"/>
</g>
<path d="M38.404 211.436C38.4348 211.19 38.4054 210.939 38.3183 210.707C38.1875 210.352 37.9292 210.06 37.5937 209.887C37.2583 209.714 36.8699 209.673 36.5044 209.772C35.6387 209.999 15.2391 215.396 10.0212 221.336C4.51621 227.633 4.56468 236.755 10.1686 241.677C15.7726 246.6 24.8537 245.498 30.3717 239.216C35.5914 233.274 38.2946 212.324 38.404 211.436ZM12.1905 239.375C7.8489 235.562 7.91558 228.384 12.327 223.362C15.7237 219.495 28.3465 215.274 35.0597 213.341C34.0249 220.262 31.4815 233.337 28.0848 237.204C23.6734 242.226 16.5428 243.198 12.1905 239.375Z" fill="#010101"/>
<path d="M27.7092 236.874C23.4343 241.74 16.6168 242.598 12.5206 239C8.42613 235.403 8.42593 228.561 12.7027 223.692C13.4929 222.792 14.8561 221.837 16.6086 220.875C18.3509 219.918 20.4371 218.976 22.6366 218.09C26.7157 216.447 31.1546 215.009 34.4471 214.04C33.9178 217.437 33.0712 222.032 31.9731 226.294C31.3811 228.591 30.7183 230.783 29.996 232.636C29.2695 234.499 28.4992 235.974 27.7092 236.874Z" fill="#7CB1FF" stroke="black"/>
<path d="M341.2 175.026C341.169 174.779 341.198 174.528 341.285 174.296C341.416 173.942 341.675 173.649 342.01 173.477C342.345 173.304 342.734 173.262 343.099 173.361C343.965 173.588 364.365 178.985 369.583 184.926C375.088 191.223 375.039 200.344 369.435 205.266C363.831 210.189 354.75 209.087 349.232 202.805C344.012 196.863 341.309 175.913 341.2 175.026ZM367.413 202.965C371.755 199.151 371.688 191.973 367.277 186.951C363.88 183.084 351.257 178.863 344.544 176.93C345.579 183.851 348.122 196.926 351.519 200.793C355.93 205.815 363.061 206.788 367.413 202.965Z" fill="#010101"/>
<path d="M351.894 200.463C356.169 205.329 362.987 206.187 367.083 202.589C371.177 198.992 371.178 192.15 366.901 187.281C366.111 186.381 364.747 185.426 362.995 184.464C361.253 183.507 359.166 182.565 356.967 181.679C352.888 180.036 348.449 178.598 345.156 177.629C345.686 181.027 346.532 185.621 347.63 189.883C348.222 192.18 348.885 194.373 349.607 196.225C350.334 198.088 351.104 199.563 351.894 200.463Z" fill="#7CB1FF" stroke="black"/>
<g clip-path="url(#clip1_15_306)">
<path d="M381.128 217.023C381.097 216.776 381.126 216.526 381.213 216.293C381.344 215.939 381.602 215.647 381.938 215.474C382.273 215.301 382.662 215.259 383.027 215.358C383.893 215.585 404.292 220.983 409.51 226.923C415.015 233.22 414.967 242.341 409.363 247.263C403.759 252.186 394.678 251.084 389.16 244.803C383.94 238.86 381.237 217.91 381.128 217.023ZM407.341 244.962C411.683 241.148 411.616 233.97 407.205 228.948C403.808 225.081 391.185 220.86 384.472 218.927C385.507 225.848 388.05 238.923 391.447 242.79C395.858 247.812 402.989 248.785 407.341 244.962Z" fill="#010101"/>
<path d="M391.822 242.46C396.097 247.327 402.914 248.184 407.011 244.586C411.105 240.99 411.105 234.147 406.829 229.278C406.038 228.379 404.675 227.424 402.923 226.461C401.18 225.505 399.094 224.562 396.895 223.677C392.816 222.033 388.377 220.595 385.084 219.626C385.613 223.024 386.46 227.618 387.558 231.88C388.15 234.178 388.813 236.37 389.535 238.222C390.262 240.085 391.032 241.561 391.822 242.46Z" fill="#7CB1FF" stroke="black"/>
</g>
<defs>
<clipPath id="clip0_15_306">
<rect width="27.0808" height="42.0219" fill="white" transform="translate(67.6685 159.18) rotate(41.2964)"/>
</clipPath>
<clipPath id="clip1_15_306">
<rect width="27.0808" height="42.0219" fill="white" transform="matrix(-0.751306 0.659955 0.659955 0.751306 391.791 206.764)"/>
</clipPath>
</defs>
</svg>
