<svg width="1204" height="1104" viewBox="0 0 1204 1104" fill="none" xmlns="http://www.w3.org/2000/svg">
<path d="M25.6899 247H1.68994V1104H25.6899V247Z" fill="#5D0E14"/>
<path d="M1201 10C809.68 125 409.68 224 1 239.9" stroke="#5D0E14" stroke-width="20"/>
<path d="M32.1802 1043H622.18C630.269 1043 638.027 1046.21 643.747 1051.93C649.467 1057.65 652.68 1065.41 652.68 1073.5C652.681 1077.51 651.893 1081.47 650.361 1085.17C648.829 1088.87 646.582 1092.24 643.75 1095.07C640.917 1097.9 637.555 1100.15 633.854 1101.68C630.152 1103.21 626.186 1104 622.18 1104H32.1802C24.0911 1104 16.3333 1100.79 10.6134 1095.07C4.89354 1089.35 1.68018 1081.59 1.68018 1073.5C1.68283 1065.41 4.89705 1057.66 10.6163 1051.94C16.3356 1046.22 24.0919 1043 32.1802 1043Z" fill="#5D0E14"/>
</svg>
