<svg width="1204" height="1104" viewBox="0 0 1204 1104" fill="none" xmlns="http://www.w3.org/2000/svg">
<path d="M254.39 464.21L248.49 489.7C248.49 489.7 423.8 487.7 537.23 487.78C537.462 486.796 537.895 485.87 538.5 485.06C538.925 484.51 539.464 484.06 540.081 483.74C540.697 483.421 541.376 483.24 542.07 483.21H543.98C544.338 482.754 544.793 482.383 545.312 482.126C545.831 481.868 546.401 481.729 546.98 481.72C558.77 481.65 570.51 480.42 582.25 479.09C593.17 477.85 604.33 477.09 615.25 475.3C629.09 473.03 642.2 467.03 654.47 461.21C666.6 451.11 664.25 441.6 664.25 441.6C581.18 488.79 442.39 458.79 254.39 464.21Z" fill="#EFE3E4"/>
<path d="M1201 10C809.68 125 409.68 224 1 239.9" stroke="#5D0E14" stroke-width="20"/>
<path d="M25.6899 247H1.68994V1104H25.6899V247Z" fill="#5D0E14"/>
<path d="M32.1802 1043H622.18C630.269 1043 638.027 1046.21 643.747 1051.93C649.467 1057.65 652.68 1065.41 652.68 1073.5C652.681 1077.51 651.893 1081.47 650.361 1085.17C648.829 1088.87 646.582 1092.24 643.75 1095.07C640.917 1097.9 637.555 1100.15 633.854 1101.68C630.152 1103.21 626.186 1104 622.18 1104H32.1802C24.0911 1104 16.3333 1100.79 10.6134 1095.07C4.89354 1089.35 1.68018 1081.59 1.68018 1073.5C1.68283 1065.41 4.89705 1057.66 10.6163 1051.94C16.3356 1046.22 24.0919 1043 32.1802 1043Z" fill="#5D0E14"/>
<path d="M663.62 394.43C654.81 378.83 641.36 368.43 625.45 361.82C612.57 356.49 599.45 351.82 586.29 347.45C573.13 343.08 560.23 337.63 546.9 333.73C522.48 324.963 497.847 316.89 473 309.51C463.882 307.195 455.111 303.678 446.92 299.05C436.3 292.53 434.51 282.69 441.27 271.92C443.816 267.904 446.932 264.28 450.52 261.16C456.17 256.24 461.16 250.64 466.46 245.26C491.62 220.07 497.02 170.37 473.75 145.89C467.592 139.324 460.115 134.134 451.81 130.66C438.627 124.997 423.942 123.851 410.04 127.4C388.31 133 372.04 146.59 362.47 169.11C358.616 179.057 356.538 189.604 356.33 200.27C355.86 209.04 361.83 218.16 368.33 219.8C375.87 221.44 379.42 219.86 383.33 212.89C384.9 209.713 386.072 206.354 386.82 202.89C388.51 196.7 388.91 190.19 390.82 184.05C397.11 164.41 424.71 157.47 438.64 172.05C440.72 173.79 442.8 175.53 444.72 177.42C445.416 177.514 446.078 177.781 446.644 178.197C447.21 178.613 447.662 179.164 447.96 179.8C449.65 183.02 452.19 185.65 453.65 189C454.348 190.608 454.877 192.283 455.23 194C458.66 204.14 454.04 211.49 448.17 218.54C439.91 228.54 429.64 236.11 421.17 246.01C400.66 270.07 401.46 304.16 423.84 326.09C428.34 330.51 433.84 333.28 438.84 336.9C439.409 337.168 439.924 337.537 440.36 337.99C440.59 338.22 440.84 338.42 441.08 338.63C441.32 338.84 441.42 338.89 441.58 339.03V339.13C444.92 341.94 449.1 343.63 452.93 345.75C469.43 351.75 485.93 357.9 502.43 363.95C526.65 372.88 551.07 381.23 575.14 390.62C588.91 395.97 603.14 399.9 616.26 407.3C618.412 408.194 620.378 409.479 622.06 411.09C628.65 416.15 632.57 428.09 629.06 436.09C626.25 442.47 619.51 443.09 613.57 443.87C611.089 444.078 608.597 444.122 606.11 444H552.87C547.1 443.653 541.31 443.898 535.59 444.73C531.891 445.739 528.471 447.579 525.59 450.11C521.27 453.75 518.98 460.98 520.59 465.69C522.59 471.37 527.06 472.69 532.03 473.12H535.11C560.11 473.12 585.11 473.55 609.98 472.96C625.286 472.904 640.215 468.211 652.8 459.5C661.33 453.5 668.24 446.18 669.51 434.5C669.73 432.5 669.96 430.5 670.23 428.5C671.791 416.727 669.47 404.766 663.62 394.43V394.43Z" fill="#FFFEFF"/>
<path d="M381.95 293.88C379.026 292.81 375.913 292.355 372.805 292.545C369.697 292.734 366.662 293.563 363.89 294.98C334.63 307.36 305.44 319.98 276.07 332.09C250.81 342.47 225.69 352.65 201.07 364.38C187.07 371.13 176.07 382.14 170.83 398.04C167.295 408.249 165.933 419.084 166.83 429.85C167.712 440.555 170.847 450.952 176.03 460.36C181.42 469.72 189.43 473.6 199.38 473.6C223.64 473.76 247.89 473.6 272.16 473.6C274.032 473.796 275.918 473.385 277.54 472.43C279.222 471.441 280.57 469.971 281.41 468.21L290.41 448.11C288.41 446.11 286.16 446.77 283.94 447.01C263.94 447.01 244.03 446.88 224.14 447.01C220.914 447.174 217.731 446.209 215.14 444.28C213.375 442.97 211.909 441.3 210.84 439.38C210.119 438.769 209.45 438.101 208.84 437.38C202.54 429.67 202.78 418.76 208.45 410.83C208.596 410.629 208.757 410.439 208.93 410.26C209.85 406.73 212.52 404.66 214.93 402.39C230.57 387.73 249.57 379.98 268.52 372.31C298.11 360.31 327.92 348.95 356.64 334.64C366.32 330.214 375.02 323.901 382.23 316.07C390.9 306.12 390.25 299.79 381.95 293.88Z" fill="#FEFCFC"/>
<path d="M379.44 335.21C371.5 338.21 363.37 340.59 355.71 344.21C332.39 355.21 308.3 363.85 284.77 374.13C270.5 380.35 256.4 387.05 241.96 392.7C229.52 397.54 217.36 402.49 207.14 411.78C207.59 402.09 215.4 398.89 221.04 394.31C234.55 383.41 250.24 376.93 265.8 370.71C295.91 358.71 326.1 346.95 355.32 332.71C364.243 328.327 372.436 322.593 379.61 315.71C387.74 307.96 388.29 302.63 381.82 293.71C385.151 295.121 388.028 297.426 390.13 300.37C392.323 303.412 393.701 306.965 394.13 310.69C395.13 319.43 391.64 326.24 384.98 331.22C383.24 332.6 381.3 333.89 379.44 335.21Z" fill="#EEE3E2"/>
<path d="M545.41 331.98C539.237 329.68 533.053 327.407 526.86 325.16C519.47 323.22 512.3 320.56 504.92 318.58C498.35 316.82 491.75 315.13 485.28 313.01C475.1 309.68 465.08 305.32 456.73 298.65C455.86 298.11 455 297.56 454.13 297.03C444.98 291.38 444.06 283.47 451.52 274.8C459.8 267.8 466.99 259.52 474.94 252.17C485.177 242.341 492.127 229.59 494.84 215.66C494.81 215.237 494.81 214.813 494.84 214.39C494.84 207.02 495.03 199.62 494.84 192.25C494.692 183.373 492.728 174.62 489.07 166.53C485.514 158.629 480.295 151.589 473.77 145.89C474.016 146.93 474.385 147.937 474.87 148.89C488.4 169.55 489.32 191.78 482.13 215.08C476.51 233.27 464 245.54 451.13 257.49C445.325 262.35 440.539 268.311 437.05 275.03C435.077 279.064 434.541 283.65 435.53 288.03C436.456 292.319 438.885 296.136 442.38 298.79C447.61 302.705 453.505 305.643 459.78 307.46C481.86 314.62 503.92 321.77 526.17 328.07C533.11 330.07 539.55 333.88 547.01 333.88C546.51 333.25 546.08 332.22 545.41 331.98Z" fill="#EFE3E2"/>
<path d="M176.09 460.17C183.55 470.02 193.92 470.93 204.66 470.93H272.84C274.385 471.073 275.942 470.908 277.423 470.447C278.905 469.985 280.28 469.235 281.47 468.24C281.101 471.078 280.187 473.818 278.78 476.31C278.13 477.44 277.02 478.52 276.94 479.68C276.24 488.88 271.15 490.2 263.76 489.74C247.52 488.74 231.19 490.66 214.93 488.34C202.1 486.54 191.85 479.46 182.93 470.1C180.34 467.46 176.68 464.96 176.09 460.17Z" fill="#EFE3E4"/>
<path d="M389.48 181.46C386.95 189.88 385.65 198.71 383.41 207.24C381.03 216.24 376.8 219.53 368.25 219.88C370.954 221.411 374.017 222.195 377.124 222.151C380.231 222.107 383.27 221.237 385.93 219.63C388.677 217.98 390.974 215.679 392.62 212.93C394.324 210.092 395.35 206.899 395.62 203.6C395.96 200.42 395.93 197.09 396.4 193.91C396.345 193.64 396.312 193.366 396.3 193.09C395.96 185.01 401.97 177.5 408.99 174.09C409.311 173.939 409.646 173.818 409.99 173.73C419.16 167.63 429.29 167.31 440.19 171.37C428.79 156.54 395.92 160.15 389.48 181.46Z" fill="#F0E3E3"/>
<path d="M563.13 444.31L285.3 449.31L268.02 470.57L585.16 474.05L563.13 444.31Z" fill="white"/>
<path d="M342.72 208.33C382.64 203.18 407.05 198.74 446.72 192.27" stroke="#5D0E14" stroke-width="20"/>
<path d="M502.62 492.48C503.7 493.933 505.265 494.951 507.03 495.35L518.33 497.84L528.43 500.07C530.194 500.453 532.036 500.19 533.621 499.33C535.207 498.469 536.431 497.067 537.07 495.38L550.3 460.15L550.4 459.9L576.04 391.55C576.862 389.369 576.818 386.957 575.919 384.808C575.019 382.658 573.332 380.934 571.202 379.988C569.073 379.042 566.662 378.946 564.464 379.72C562.266 380.494 560.448 382.079 559.38 384.15L533.66 434.52C533.183 434.3 532.684 434.132 532.17 434.02C531.544 433.881 530.902 433.82 530.26 433.84L527.17 377.02C527.107 375.507 526.671 374.033 525.9 372.73C524.737 370.766 522.881 369.309 520.697 368.645C518.513 367.98 516.16 368.157 514.1 369.14C513.567 369.394 513.061 369.702 512.59 370.06C511.533 370.838 510.66 371.838 510.03 372.99C509.402 374.141 509.027 375.413 508.93 376.72L501.11 487.45C501.003 489.253 501.538 491.035 502.62 492.48V492.48ZM537.91 443.03C538.159 441.86 538.132 440.648 537.83 439.49C537.524 438.338 536.948 437.275 536.15 436.39L562.15 385.55C562.869 384.193 564.077 383.16 565.529 382.66C566.981 382.161 568.569 382.232 569.97 382.86C571.374 383.48 572.487 384.615 573.08 386.03C573.679 387.442 573.722 389.028 573.2 390.47L534.2 494.3C533.834 495.294 533.125 496.123 532.2 496.64C531.262 497.147 530.173 497.303 529.13 497.08L520.52 495.18L522.23 487.32L526.36 488.32C526.562 488.36 526.769 488.36 526.97 488.32C527.171 488.288 527.364 488.22 527.54 488.12C527.717 488.016 527.871 487.877 527.99 487.71C528.226 487.376 528.326 486.965 528.27 486.56C528.233 486.358 528.159 486.165 528.05 485.99C527.941 485.82 527.802 485.672 527.64 485.55C527.471 485.433 527.281 485.348 527.08 485.3L522.89 484.3L523.96 479.43L528.7 480.58C528.902 480.62 529.109 480.62 529.31 480.58C529.516 480.556 529.714 480.488 529.89 480.38C530.073 480.272 530.231 480.127 530.355 479.955C530.479 479.783 530.566 479.587 530.61 479.38C530.65 479.175 530.65 478.965 530.61 478.76C530.571 478.558 530.497 478.366 530.39 478.19C530.277 478.016 530.131 477.866 529.959 477.749C529.787 477.632 529.594 477.551 529.39 477.51L524.58 476.34L525.64 471.45C527.371 471.536 529.094 471.16 530.632 470.36C532.169 469.561 533.466 468.366 534.39 466.9C535.162 465.678 535.654 464.3 535.832 462.866C536.009 461.431 535.868 459.976 535.418 458.602C534.968 457.228 534.221 455.971 533.229 454.92C532.237 453.868 531.025 453.049 529.68 452.52L530.48 448.84C532.213 448.861 533.899 448.284 535.255 447.205C536.61 446.126 537.552 444.613 537.92 442.92L537.91 443.03ZM519.62 460.3C519.869 459.224 520.377 458.224 521.1 457.389C521.824 456.554 522.74 455.909 523.77 455.51C524.8 455.109 525.914 454.971 527.01 455.11C528.108 455.244 529.156 455.646 530.061 456.281C530.966 456.916 531.701 457.764 532.2 458.75C532.955 460.239 533.131 461.955 532.693 463.566C532.255 465.177 531.235 466.568 529.83 467.47C529.59 467.61 529.35 467.75 529.1 467.87C527.755 468.509 526.235 468.681 524.78 468.36C523.043 467.972 521.528 466.914 520.566 465.417C519.604 463.919 519.271 462.102 519.64 460.36L519.62 460.3ZM534.39 438.97C535.023 439.972 535.239 441.182 534.99 442.34C534.868 442.912 534.63 443.453 534.29 443.93C533.958 444.412 533.534 444.823 533.041 445.139C532.548 445.455 531.997 445.67 531.42 445.77C530.846 445.885 530.255 445.885 529.68 445.77C528.961 445.615 528.291 445.285 527.73 444.809C527.168 444.333 526.733 443.725 526.463 443.041C526.193 442.356 526.096 441.615 526.181 440.884C526.266 440.153 526.53 439.455 526.95 438.85C527.37 438.245 527.933 437.753 528.59 437.42C529.246 437.083 529.975 436.914 530.712 436.93C531.449 436.946 532.17 437.145 532.81 437.51C533.45 437.871 533.993 438.382 534.39 439V438.97ZM504.28 487.66L512.08 376.95C512.147 375.79 512.549 374.675 513.238 373.739C513.926 372.803 514.872 372.087 515.959 371.679C517.047 371.27 518.23 371.186 519.364 371.436C520.499 371.687 521.536 372.261 522.35 373.09C523.458 374.169 524.107 375.634 524.16 377.18L527.27 434.63C527.022 434.747 526.781 434.881 526.55 435.03C525.717 435.549 524.997 436.229 524.43 437.03C523.86 437.84 523.461 438.759 523.26 439.73C522.893 441.424 523.118 443.193 523.899 444.74C524.68 446.288 525.969 447.52 527.55 448.23L526.74 451.91C524.396 451.777 522.081 452.49 520.216 453.917C518.352 455.345 517.06 457.393 516.577 459.691C516.093 461.989 516.449 464.385 517.579 466.443C518.71 468.501 520.541 470.086 522.74 470.91L521.74 475.72L518.04 474.81C517.651 474.731 517.247 474.806 516.911 475.019C516.576 475.231 516.336 475.565 516.24 475.95C516.149 476.338 516.21 476.746 516.41 477.09C516.508 477.262 516.638 477.412 516.795 477.532C516.951 477.652 517.13 477.74 517.32 477.79L521.07 478.7L520.01 483.57L515.69 482.57C515.489 482.53 515.282 482.53 515.08 482.57C514.875 482.596 514.678 482.664 514.5 482.77C514.321 482.871 514.167 483.011 514.05 483.18C513.927 483.344 513.838 483.531 513.79 483.731C513.742 483.93 513.735 484.138 513.77 484.34C513.8 484.543 513.871 484.737 513.98 484.91C514.089 485.087 514.236 485.237 514.41 485.35C514.578 485.468 514.769 485.55 514.97 485.59L519.36 486.66L517.64 494.58L507.84 492.43C506.793 492.196 505.863 491.594 505.221 490.734C504.579 489.873 504.267 488.811 504.34 487.74L504.28 487.66Z" fill="#D5AB52"/>
<path d="M528.24 487.2C528.28 486.999 528.28 486.792 528.24 486.59C528.211 486.388 528.139 486.193 528.03 486.02C527.92 485.848 527.777 485.699 527.61 485.58C527.447 485.46 527.259 485.378 527.06 485.34L522.87 484.34L523.94 479.47L528.68 480.62C528.881 480.665 529.089 480.665 529.29 480.62C529.495 480.593 529.692 480.525 529.87 480.42C530.048 480.317 530.204 480.182 530.33 480.02C530.451 479.851 530.539 479.661 530.59 479.46C530.635 479.259 530.635 479.051 530.59 478.85C530.558 478.644 530.483 478.446 530.37 478.27C530.26 478.098 530.117 477.949 529.95 477.83C529.778 477.713 529.584 477.632 529.38 477.59L524.57 476.43L525.63 471.53C526.924 471.589 528.217 471.392 529.434 470.949C530.651 470.506 531.769 469.827 532.723 468.95C533.676 468.074 534.447 467.017 534.991 465.842C535.534 464.666 535.84 463.394 535.89 462.1C535.961 460.067 535.4 458.061 534.285 456.36C533.169 454.659 531.553 453.345 529.66 452.6L530.47 448.93C531.934 448.955 533.375 448.559 534.62 447.79C535.542 447.201 536.325 446.419 536.914 445.497C537.503 444.575 537.884 443.536 538.031 442.452C538.177 441.368 538.086 440.265 537.763 439.22C537.44 438.175 536.893 437.212 536.16 436.4L562.16 385.56C562.885 384.208 564.092 383.176 565.54 382.67C566.623 382.3 567.789 382.244 568.902 382.508C570.015 382.771 571.032 383.345 571.833 384.161C572.635 384.977 573.19 386.004 573.433 387.122C573.677 388.24 573.6 389.404 573.21 390.48L534.21 494.31C533.844 495.304 533.135 496.134 532.21 496.65C531.272 497.157 530.183 497.313 529.14 497.09L520.53 495.19L522.24 487.33L526.37 488.33C526.572 488.37 526.779 488.37 526.98 488.33C527.182 488.303 527.376 488.235 527.55 488.13C527.727 488.027 527.881 487.887 528 487.72C528.119 487.555 528.204 487.368 528.25 487.17L528.24 487.2Z" fill="#D5AB52"/>
<path d="M519.62 460.3C519.869 459.224 520.377 458.225 521.1 457.39C521.822 456.553 522.739 455.907 523.77 455.51C524.8 455.109 525.914 454.971 527.01 455.11C528.108 455.244 529.155 455.646 530.061 456.281C530.966 456.916 531.701 457.764 532.2 458.75C532.955 460.239 533.131 461.955 532.693 463.566C532.255 465.177 531.235 466.568 529.83 467.47C529.59 467.61 529.35 467.75 529.1 467.87C527.755 468.509 526.235 468.681 524.78 468.36C523.043 467.972 521.528 466.914 520.566 465.417C519.604 463.919 519.271 462.102 519.64 460.36L519.62 460.3Z" fill="#D5AB52"/>
<path d="M526.22 440.43C526.356 439.778 526.636 439.165 527.04 438.635C527.444 438.105 527.96 437.672 528.553 437.368C529.145 437.064 529.798 436.895 530.464 436.876C531.129 436.856 531.791 436.985 532.4 437.254C533.01 437.523 533.551 437.925 533.985 438.43C534.419 438.935 534.735 439.53 534.91 440.173C535.084 440.816 535.113 441.489 534.993 442.145C534.874 442.8 534.61 443.42 534.22 443.96C533.892 444.445 533.466 444.857 532.97 445.17C532.477 445.485 531.927 445.7 531.35 445.8C530.773 445.92 530.177 445.92 529.6 445.8C528.442 445.542 527.433 444.835 526.795 443.833C526.158 442.832 525.944 441.619 526.2 440.46L526.22 440.43Z" fill="#D5AB52"/>
<path d="M504.23 487.67L512.04 376.95C512.107 375.79 512.509 374.675 513.198 373.739C513.886 372.803 514.832 372.088 515.919 371.679C517.007 371.27 518.19 371.186 519.324 371.436C520.459 371.687 521.496 372.261 522.31 373.09C523.418 374.169 524.067 375.634 524.12 377.18L527.23 434.63C526.982 434.748 526.741 434.881 526.51 435.03C525.677 435.549 524.957 436.229 524.39 437.03C523.82 437.841 523.421 438.759 523.22 439.73C522.852 441.424 523.078 443.193 523.859 444.74C524.64 446.288 525.929 447.52 527.51 448.23L526.7 451.91C524.356 451.778 522.041 452.49 520.176 453.917C518.312 455.345 517.02 457.393 516.536 459.691C516.053 461.99 516.408 464.385 517.539 466.443C518.67 468.501 520.501 470.086 522.7 470.91L521.7 475.72L518 474.81C517.611 474.731 517.207 474.806 516.871 475.019C516.536 475.231 516.295 475.565 516.2 475.95C516.109 476.338 516.17 476.746 516.37 477.09C516.468 477.262 516.598 477.412 516.755 477.532C516.911 477.652 517.09 477.74 517.28 477.79L521.03 478.7L519.97 483.57L515.65 482.57C515.449 482.531 515.242 482.531 515.04 482.57C514.836 482.6 514.64 482.668 514.46 482.77C514.281 482.871 514.127 483.011 514.01 483.18C513.885 483.344 513.795 483.532 513.745 483.732C513.696 483.932 513.688 484.14 513.721 484.343C513.755 484.546 513.83 484.74 513.942 484.914C514.053 485.087 514.199 485.235 514.37 485.35C514.538 485.468 514.729 485.55 514.93 485.59L519.32 486.66L517.6 494.58L507.8 492.43C506.753 492.196 505.823 491.594 505.181 490.734C504.539 489.873 504.227 488.811 504.3 487.74L504.23 487.67Z" fill="#D5AB52"/>
<path d="M531.97 434.66L518.38 496.79" stroke="#987733" stroke-width="5"/>
<path d="M513.64 481.13L529.57 481.63M518.46 464.13L534.24 465.13L518.46 464.13Z" stroke="#987733" stroke-width="5"/>
<path d="M340.4 497.33C342.176 497.65 344.007 497.331 345.57 496.43L355.57 490.57L364.49 485.33C366.043 484.413 367.214 482.968 367.791 481.259C368.367 479.55 368.31 477.69 367.63 476.02L353.37 441.19L353.26 440.94L325.56 373.4C324.672 371.253 322.998 369.526 320.881 368.569C318.763 367.613 316.361 367.5 314.163 368.254C311.965 369.007 310.137 370.57 309.052 372.625C307.966 374.679 307.704 377.07 308.32 379.31L323.73 433.72C323.233 433.889 322.754 434.107 322.3 434.37C321.745 434.697 321.231 435.09 320.77 435.54L279.86 396C278.789 394.931 277.468 394.145 276.018 393.713C274.568 393.281 273.033 393.217 271.551 393.525C270.07 393.834 268.688 394.505 267.53 395.48C266.373 396.455 265.476 397.702 264.92 399.11C264.701 399.658 264.54 400.228 264.44 400.81C264.199 402.099 264.24 403.425 264.559 404.697C264.878 405.969 265.469 407.157 266.29 408.18L335.88 494.66C337.021 496.06 338.623 497.007 340.4 497.33V497.33ZM332.62 437.07C332.011 436.045 331.168 435.178 330.16 434.54C329.152 433.902 328.008 433.512 326.82 433.4L311.28 378.47C310.985 377.363 311.009 376.195 311.351 375.101C311.692 374.007 312.337 373.032 313.21 372.29C314.083 371.548 315.149 371.068 316.283 370.907C317.418 370.746 318.575 370.91 319.62 371.38C321.026 372.002 322.139 373.141 322.73 374.56L364.79 477.18C365.188 478.169 365.22 479.268 364.879 480.279C364.538 481.289 363.846 482.144 362.93 482.69L355.33 487.14L351.24 480.22L354.95 478.14C355.129 478.044 355.287 477.913 355.414 477.755C355.541 477.597 355.635 477.415 355.69 477.22C355.75 477.026 355.77 476.822 355.75 476.62C355.722 476.417 355.657 476.22 355.56 476.04C355.461 475.86 355.324 475.704 355.16 475.58C355.002 475.451 354.818 475.359 354.62 475.31C354.422 475.27 354.218 475.27 354.02 475.31C353.816 475.342 353.62 475.409 353.44 475.51L349.68 477.62L347.16 473.32L351.41 470.94C351.592 470.844 351.755 470.716 351.89 470.56C352.019 470.4 352.118 470.216 352.18 470.02C352.239 469.822 352.26 469.615 352.24 469.41C352.222 469.203 352.16 469.002 352.06 468.82C351.958 468.639 351.822 468.48 351.66 468.35C351.489 468.23 351.3 468.139 351.1 468.08C350.899 468.04 350.691 468.04 350.49 468.08C350.284 468.109 350.087 468.181 349.91 468.29L345.59 470.71L343.04 466.4C344.364 465.286 345.369 463.84 345.95 462.21C346.583 460.437 346.692 458.519 346.264 456.686C345.837 454.852 344.891 453.181 343.539 451.87C342.188 450.56 340.488 449.666 338.642 449.295C336.796 448.925 334.883 449.093 333.13 449.78L331.21 446.54C332.491 445.375 333.332 443.805 333.591 442.092C333.85 440.38 333.51 438.631 332.63 437.14L332.62 437.07ZM330.92 462.22C330.368 461.263 330.059 460.185 330.02 459.08C329.983 457.977 330.217 456.881 330.701 455.889C331.186 454.897 331.907 454.039 332.8 453.39C333.686 452.746 334.716 452.327 335.8 452.17C336.895 452.024 338.008 452.148 339.044 452.531C340.079 452.915 341.005 453.546 341.74 454.37C342.478 455.194 343.001 456.187 343.261 457.262C343.521 458.337 343.51 459.46 343.23 460.53C343.162 460.798 343.078 461.062 342.98 461.32C342.428 462.706 341.429 463.868 340.14 464.62C338.597 465.517 336.762 465.769 335.034 465.322C333.306 464.874 331.824 463.763 330.91 462.23L330.92 462.22ZM327.24 436.54C328.383 436.841 329.361 437.581 329.96 438.6C330.262 439.102 330.459 439.66 330.54 440.24C330.622 440.821 330.588 441.412 330.44 441.98C330.29 442.547 330.032 443.08 329.68 443.55C329.326 444.015 328.884 444.405 328.38 444.7C327.746 445.074 327.029 445.287 326.294 445.32C325.558 445.353 324.826 445.205 324.16 444.89C323.498 444.57 322.925 444.093 322.49 443.5C322.055 442.911 321.774 442.224 321.67 441.5C321.57 440.772 321.649 440.031 321.9 439.34C322.151 438.648 322.57 438.03 323.12 437.54C323.673 437.055 324.335 436.712 325.05 436.54C325.762 436.36 326.508 436.36 327.22 436.54H327.24ZM338.24 492.71L268.65 406.26C267.683 405.053 267.216 403.521 267.344 401.979C267.471 400.438 268.185 399.004 269.337 397.972C270.489 396.94 271.993 396.389 273.539 396.431C275.085 396.474 276.556 397.107 277.65 398.2L319.01 438.2C318.912 438.458 318.828 438.722 318.76 438.99C318.509 439.948 318.452 440.946 318.591 441.926C318.73 442.907 319.063 443.85 319.57 444.7C320.45 446.193 321.818 447.337 323.442 447.94C325.067 448.542 326.849 448.567 328.49 448.01L330.41 451.26C328.579 452.75 327.346 454.851 326.938 457.176C326.531 459.502 326.976 461.896 328.191 463.921C329.407 465.945 331.312 467.462 333.556 468.195C335.801 468.928 338.234 468.827 340.41 467.91L342.91 472.15L339.58 474C339.243 474.21 338.997 474.538 338.89 474.92C338.792 475.305 338.846 475.713 339.04 476.06C339.235 476.408 339.558 476.666 339.94 476.78C340.129 476.839 340.329 476.86 340.526 476.841C340.724 476.822 340.915 476.764 341.09 476.67L344.45 474.79L346.99 479.09L343.11 481.25C342.925 481.346 342.762 481.479 342.63 481.64C342.499 481.799 342.4 481.983 342.34 482.18C342.295 482.381 342.295 482.589 342.34 482.79C342.36 482.994 342.421 483.191 342.52 483.37C342.623 483.548 342.759 483.704 342.92 483.83C343.083 483.957 343.27 484.049 343.47 484.1C343.669 484.155 343.878 484.169 344.083 484.139C344.288 484.11 344.484 484.039 344.66 483.93L348.6 481.72L352.72 488.72L344.08 493.81C343.152 494.347 342.064 494.535 341.009 494.341C339.955 494.147 339.005 493.583 338.33 492.75L338.24 492.71Z" fill="#D5AB52"/>
<path d="M355.56 476.05C355.46 475.871 355.324 475.714 355.16 475.59C355 475.462 354.817 475.367 354.62 475.31C354.422 475.27 354.218 475.27 354.02 475.31C353.816 475.332 353.618 475.397 353.44 475.5L349.68 477.61L347.15 473.31L351.41 470.93C351.597 470.841 351.761 470.711 351.89 470.55C352.022 470.391 352.12 470.208 352.18 470.01C352.24 469.813 352.261 469.605 352.24 469.4C352.185 469.004 351.977 468.645 351.66 468.4C351.494 468.273 351.303 468.181 351.1 468.13C350.899 468.085 350.691 468.085 350.49 468.13C350.284 468.159 350.087 468.231 349.91 468.34L345.59 470.75L343.04 466.45C344.031 465.615 344.847 464.592 345.439 463.439C346.032 462.287 346.391 461.028 346.494 459.737C346.597 458.445 346.443 457.145 346.041 455.914C345.639 454.682 344.996 453.542 344.15 452.56C343.022 451.242 341.562 450.251 339.92 449.69C337.709 448.932 335.301 448.978 333.12 449.82L331.21 446.58C332.292 445.596 333.063 444.319 333.431 442.904C333.799 441.489 333.747 439.998 333.282 438.612C332.816 437.226 331.957 436.006 330.81 435.1C329.662 434.194 328.276 433.641 326.82 433.51L311.28 378.58C310.867 377.09 311.039 375.499 311.76 374.132C312.482 372.765 313.699 371.726 315.161 371.226C316.624 370.727 318.223 370.805 319.63 371.445C321.037 372.085 322.146 373.239 322.73 374.67L364.79 477.29C365.19 478.279 365.223 479.379 364.882 480.39C364.54 481.401 363.848 482.256 362.93 482.8L355.33 487.25L351.24 480.33L354.95 478.25C355.129 478.154 355.287 478.023 355.414 477.865C355.541 477.707 355.635 477.525 355.69 477.33C355.75 477.136 355.77 476.932 355.75 476.73C355.722 476.527 355.657 476.33 355.56 476.15V476.05Z" fill="#D5AB52"/>
<path d="M330.92 462.22C330.368 461.263 330.059 460.185 330.02 459.08C329.983 457.977 330.217 456.881 330.701 455.889C331.186 454.897 331.907 454.039 332.8 453.39C333.686 452.746 334.716 452.327 335.8 452.17C336.894 452.024 338.008 452.148 339.044 452.531C340.079 452.915 341.005 453.546 341.74 454.37C342.478 455.194 343.001 456.187 343.261 457.262C343.521 458.338 343.51 459.46 343.23 460.53C343.162 460.798 343.078 461.062 342.98 461.32C342.428 462.706 341.429 463.868 340.14 464.62C338.597 465.517 336.762 465.769 335.034 465.322C333.306 464.874 331.824 463.763 330.91 462.23L330.92 462.22Z" fill="#D5AB52"/>
<path d="M322.27 443.14C321.823 442.376 321.613 441.497 321.666 440.613C321.719 439.73 322.033 438.882 322.569 438.177C323.104 437.472 323.837 436.942 324.674 436.654C325.511 436.367 326.415 436.334 327.27 436.56C328.124 436.786 328.891 437.259 329.478 437.919C330.065 438.578 330.445 439.396 330.57 440.27C330.652 440.848 330.618 441.436 330.47 442C330.172 443.147 329.431 444.128 328.41 444.73C327.384 445.325 326.164 445.491 325.016 445.191C323.868 444.892 322.885 444.151 322.28 443.13L322.27 443.14Z" fill="#D5AB52"/>
<path d="M338.28 492.73L268.69 406.26C267.723 405.053 267.256 403.521 267.384 401.979C267.511 400.438 268.225 399.004 269.377 397.972C270.529 396.94 272.033 396.389 273.579 396.431C275.125 396.474 276.596 397.107 277.69 398.2L319.05 438.2C318.952 438.458 318.868 438.722 318.8 438.99C318.55 439.948 318.492 440.946 318.631 441.926C318.77 442.907 319.103 443.85 319.61 444.7C320.49 446.193 321.858 447.337 323.482 447.94C325.107 448.542 326.889 448.567 328.53 448.01L330.45 451.26C328.619 452.75 327.386 454.851 326.979 457.176C326.571 459.502 327.016 461.896 328.231 463.92C329.447 465.945 331.352 467.462 333.596 468.195C335.841 468.928 338.274 468.827 340.45 467.91L342.95 472.15L339.63 474C339.29 474.206 339.043 474.535 338.941 474.919C338.838 475.303 338.888 475.712 339.08 476.06C339.275 476.408 339.598 476.666 339.98 476.78C340.17 476.839 340.369 476.86 340.566 476.841C340.764 476.822 340.955 476.764 341.13 476.67L344.49 474.79L347.03 479.09L343.15 481.25C342.965 481.346 342.802 481.479 342.67 481.64C342.539 481.799 342.44 481.983 342.38 482.18C342.335 482.381 342.335 482.589 342.38 482.79C342.4 482.994 342.461 483.191 342.56 483.37C342.663 483.548 342.799 483.704 342.96 483.83C343.123 483.957 343.31 484.049 343.51 484.1C343.71 484.155 343.918 484.169 344.123 484.139C344.328 484.11 344.524 484.039 344.7 483.93L348.64 481.72L352.76 488.72L344.12 493.81C343.193 494.347 342.104 494.535 341.05 494.341C339.995 494.147 339.045 493.583 338.37 492.75L338.28 492.73Z" fill="#D5AB52"/>
<path d="M322.56 435L354.88 489.81" stroke="#987733" stroke-width="5"/>
<path d="M340.73 481.52L352.73 471.05M332.7 465.79L344.96 455.79L332.7 465.79Z" stroke="#987733" stroke-width="5"/>
</svg>
