<svg width="505" height="375" viewBox="0 0 505 375" fill="none" xmlns="http://www.w3.org/2000/svg">
<path d="M87.8282 338.832L81.9282 364.322C81.9282 364.322 257.238 362.322 370.668 362.402C370.9 361.417 371.333 360.491 371.938 359.682C372.363 359.132 372.902 358.682 373.519 358.362C374.135 358.043 374.814 357.862 375.508 357.832H377.418C377.776 357.376 378.231 357.005 378.75 356.747C379.269 356.489 379.839 356.351 380.418 356.342C392.208 356.272 403.948 355.042 415.688 353.712C426.608 352.472 437.768 351.712 448.688 349.922C462.528 347.652 475.638 341.652 487.908 335.832C500.038 325.732 497.688 316.222 497.688 316.222C414.618 363.412 275.828 333.412 87.8282 338.832Z" fill="#EFE3E4"/>
<path d="M497.058 269.052C488.248 253.452 474.798 243.052 458.888 236.442C446.008 231.112 432.888 226.442 419.728 222.072C406.568 217.702 393.668 212.252 380.338 208.352C355.918 199.585 331.285 191.512 306.438 184.132C297.32 181.817 288.549 178.299 280.358 173.672C269.738 167.152 267.948 157.312 274.708 146.542C277.254 142.526 280.37 138.901 283.958 135.782C289.608 130.862 294.598 125.262 299.898 119.882C325.058 94.6916 330.458 44.9916 307.188 20.5116C301.03 13.9453 293.553 8.75513 285.248 5.28162C272.065 -0.381099 257.38 -1.52723 243.478 2.02161C221.748 7.62161 205.478 21.2116 195.908 43.7316C192.054 53.679 189.976 64.2257 189.768 74.8916C189.298 83.6616 195.268 92.7816 201.768 94.4216C209.308 96.0616 212.858 94.4816 216.768 87.5116C218.338 84.3343 219.51 80.9757 220.258 77.5116C221.948 71.3216 222.348 64.8116 224.258 58.6716C230.548 39.0316 258.148 32.0916 272.078 46.6716C274.158 48.4116 276.238 50.1516 278.158 52.0416C278.854 52.1358 279.516 52.403 280.082 52.8187C280.648 53.2345 281.1 53.7857 281.398 54.4216C283.088 57.6416 285.628 60.2716 287.088 63.6216C287.786 65.2293 288.315 66.9049 288.668 68.6216C292.098 78.7616 287.478 86.1116 281.608 93.1616C273.348 103.162 263.078 110.732 254.608 120.632C234.098 144.692 234.898 178.782 257.278 200.712C261.778 205.132 267.278 207.902 272.278 211.522C272.847 211.79 273.362 212.159 273.798 212.612C274.028 212.842 274.278 213.042 274.518 213.252C274.758 213.462 274.858 213.512 275.018 213.652V213.752C278.358 216.562 282.538 218.252 286.368 220.372C302.868 226.372 319.368 232.522 335.868 238.572C360.088 247.502 384.508 255.852 408.578 265.242C422.348 270.592 436.578 274.522 449.698 281.922C451.849 282.815 453.816 284.1 455.498 285.712C462.088 290.772 466.008 302.712 462.498 310.712C459.688 317.092 452.948 317.712 447.008 318.492C444.527 318.7 442.035 318.743 439.548 318.622H386.308C380.538 318.275 374.748 318.519 369.028 319.352C365.329 320.36 361.909 322.201 359.028 324.732C354.708 328.372 352.418 335.602 354.028 340.312C356.028 345.992 360.498 347.312 365.468 347.742H368.548C393.548 347.742 418.548 348.172 443.418 347.582C458.724 347.525 473.653 342.832 486.238 334.122C494.768 328.122 501.678 320.802 502.948 309.122C503.168 307.122 503.398 305.122 503.668 303.122C505.229 291.348 502.908 279.387 497.058 269.052V269.052Z" fill="#FFFEFF"/>
<path d="M215.388 168.502C212.464 167.432 209.351 166.977 206.243 167.166C203.135 167.356 200.1 168.185 197.328 169.602C168.068 181.982 138.878 194.602 109.508 206.712C84.2479 217.092 59.1279 227.272 34.5079 239.002C20.5079 245.752 9.50789 256.762 4.26789 272.662C0.733092 282.87 -0.62936 293.705 0.267886 304.472C1.14966 315.176 4.28497 325.574 9.46796 334.982C14.858 344.342 22.8679 348.222 32.8179 348.222C57.0779 348.382 81.328 348.222 105.598 348.222C107.47 348.417 109.356 348.007 110.978 347.052C112.66 346.063 114.008 344.593 114.848 342.832L123.848 322.732C121.848 320.732 119.598 321.392 117.378 321.632C97.3779 321.632 77.4679 321.502 57.5779 321.632C54.3518 321.796 51.1692 320.83 48.5779 318.902C46.8132 317.592 45.3474 315.921 44.2779 314.002C43.5573 313.391 42.8884 312.722 42.2779 312.002C35.9779 304.292 36.2179 293.382 41.8879 285.452C42.0344 285.251 42.1949 285.06 42.368 284.882C43.288 281.352 45.958 279.282 48.368 277.012C64.008 262.352 83.0079 254.602 101.958 246.932C131.548 234.932 161.358 223.572 190.078 209.262C199.758 204.836 208.458 198.522 215.668 190.692C224.338 180.742 223.688 174.412 215.388 168.502Z" fill="#FEFCFC"/>
<path d="M212.878 209.832C204.938 212.832 196.808 215.212 189.148 218.832C165.828 229.832 141.738 238.472 118.208 248.752C103.938 254.972 89.8381 261.672 75.3981 267.322C62.9581 272.162 50.7981 277.112 40.5781 286.402C41.0281 276.712 48.8381 273.512 54.4781 268.932C67.9881 258.032 83.6782 251.552 99.2382 245.332C129.348 233.332 159.538 221.572 188.758 207.332C197.681 202.949 205.874 197.214 213.048 190.332C221.178 182.582 221.728 177.252 215.258 168.332C218.589 169.743 221.465 172.048 223.568 174.992C225.761 178.033 227.139 181.586 227.568 185.312C228.568 194.052 225.078 200.862 218.418 205.842C216.678 207.222 214.738 208.512 212.878 209.832Z" fill="#EEE3E2"/>
<path d="M378.848 206.602C372.675 204.302 366.491 202.028 360.298 199.782C352.908 197.842 345.738 195.182 338.358 193.202C331.788 191.442 325.188 189.752 318.718 187.632C308.538 184.302 298.518 179.942 290.168 173.272C289.298 172.732 288.438 172.182 287.568 171.652C278.418 166.002 277.498 158.092 284.958 149.422C293.238 142.422 300.428 134.142 308.378 126.792C318.615 116.963 325.565 104.211 328.278 90.2816C328.248 89.8588 328.248 89.4344 328.278 89.0116C328.278 81.6416 328.468 74.2416 328.278 66.8716C328.13 57.9944 326.166 49.2414 322.508 41.1516C318.952 33.2509 313.733 26.2107 307.208 20.5116C307.454 21.5517 307.823 22.5588 308.308 23.5116C321.838 44.1716 322.758 66.4017 315.568 89.7017C309.948 107.892 297.438 120.162 284.568 132.112C278.763 136.972 273.977 142.933 270.488 149.652C268.515 153.685 267.979 158.272 268.968 162.652C269.894 166.941 272.323 170.758 275.818 173.412C281.048 177.327 286.943 180.264 293.218 182.082C315.298 189.242 337.358 196.392 359.608 202.692C366.548 204.692 372.988 208.502 380.448 208.502C379.948 207.872 379.518 206.842 378.848 206.602Z" fill="#EFE3E2"/>
<path d="M9.52783 334.792C16.9878 344.642 27.3579 345.552 38.0979 345.552H106.278C107.823 345.694 109.38 345.53 110.861 345.068C112.343 344.606 113.718 343.857 114.908 342.862C114.539 345.7 113.625 348.44 112.218 350.932C111.568 352.062 110.458 353.142 110.378 354.302C109.678 363.502 104.588 364.822 97.1979 364.362C80.9579 363.362 64.6279 365.282 48.3679 362.962C35.5379 361.162 25.2879 354.082 16.3679 344.722C13.7779 342.082 10.1178 339.582 9.52783 334.792Z" fill="#EFE3E4"/>
<path d="M222.918 56.0816C220.388 64.5016 219.088 73.3315 216.848 81.8615C214.468 90.8615 210.238 94.1515 201.688 94.5015C204.392 96.0324 207.455 96.8161 210.562 96.7722C213.669 96.7282 216.708 95.8582 219.368 94.2515C222.115 92.6017 224.412 90.3006 226.058 87.5516C227.762 84.7134 228.788 81.5208 229.058 78.2216C229.398 75.0416 229.368 71.7116 229.838 68.5316C229.783 68.2613 229.75 67.9872 229.738 67.7116C229.398 59.6316 235.408 52.1216 242.428 48.7116C242.749 48.5605 243.084 48.4399 243.428 48.3515C252.598 42.2515 262.728 41.9315 273.628 45.9915C262.228 31.1615 229.358 34.7716 222.918 56.0816Z" fill="#F0E3E3"/>
<path d="M396.568 318.932L118.738 323.932L101.458 345.192L418.598 348.672L396.568 318.932Z" fill="white"/>
<path d="M336.058 367.102C337.138 368.554 338.703 369.572 340.468 369.972L351.768 372.462L361.868 374.692C363.631 375.075 365.474 374.812 367.059 373.951C368.645 373.09 369.869 371.689 370.508 370.002L383.738 334.772L383.838 334.522L409.478 266.172C410.3 263.991 410.256 261.579 409.357 259.429C408.457 257.28 406.77 255.555 404.64 254.61C402.511 253.664 400.1 253.568 397.902 254.342C395.704 255.115 393.886 256.7 392.818 258.772L367.098 309.142C366.621 308.921 366.122 308.754 365.608 308.642C364.982 308.502 364.34 308.442 363.698 308.462L360.608 251.642C360.545 250.129 360.109 248.655 359.338 247.352C358.175 245.388 356.319 243.931 354.135 243.266C351.951 242.602 349.598 242.779 347.538 243.762C347.005 244.015 346.499 244.324 346.028 244.682C344.971 245.46 344.098 246.46 343.468 247.612C342.84 248.762 342.465 250.034 342.368 251.342L334.548 362.072C334.441 363.874 334.976 365.656 336.058 367.102V367.102ZM371.348 317.652C371.597 316.481 371.57 315.269 371.268 314.112C370.962 312.96 370.386 311.897 369.588 311.012L395.588 260.172C396.307 258.815 397.515 257.782 398.967 257.282C400.419 256.782 402.007 256.854 403.408 257.482C404.812 258.102 405.925 259.236 406.518 260.652C407.117 262.064 407.16 263.65 406.638 265.092L367.638 368.922C367.272 369.915 366.563 370.745 365.638 371.262C364.7 371.768 363.611 371.924 362.568 371.702L353.958 369.802L355.668 361.942L359.798 362.942C360 362.982 360.207 362.982 360.408 362.942C360.609 362.91 360.802 362.842 360.978 362.742C361.155 362.638 361.309 362.498 361.428 362.332C361.664 361.998 361.764 361.587 361.708 361.182C361.671 360.98 361.597 360.786 361.488 360.612C361.379 360.442 361.24 360.293 361.078 360.172C360.909 360.054 360.719 359.969 360.518 359.922L356.328 358.922L357.398 354.052L362.138 355.202C362.34 355.241 362.547 355.241 362.748 355.202C362.954 355.178 363.152 355.109 363.328 355.002C363.511 354.893 363.669 354.749 363.793 354.577C363.917 354.405 364.004 354.209 364.048 354.002C364.088 353.797 364.088 353.586 364.048 353.382C364.009 353.18 363.935 352.987 363.828 352.812C363.715 352.637 363.569 352.488 363.397 352.371C363.225 352.254 363.032 352.173 362.828 352.132L358.018 350.962L359.078 346.072C360.809 346.157 362.532 345.781 364.07 344.982C365.607 344.182 366.904 342.988 367.828 341.522C368.6 340.299 369.092 338.922 369.27 337.487C369.447 336.053 369.306 334.597 368.856 333.224C368.406 331.85 367.659 330.593 366.667 329.541C365.675 328.49 364.463 327.671 363.118 327.142L363.918 323.462C365.651 323.483 367.337 322.905 368.693 321.827C370.048 320.748 370.99 319.234 371.358 317.542L371.348 317.652ZM353.058 334.922C353.307 333.845 353.815 332.846 354.538 332.011C355.262 331.176 356.178 330.531 357.208 330.132C358.238 329.73 359.352 329.593 360.448 329.732C361.546 329.865 362.594 330.267 363.499 330.902C364.404 331.537 365.139 332.385 365.638 333.372C366.393 334.86 366.569 336.577 366.131 338.188C365.693 339.799 364.673 341.19 363.268 342.092C363.028 342.232 362.788 342.372 362.538 342.492C361.193 343.131 359.673 343.303 358.218 342.982C356.481 342.594 354.966 341.536 354.004 340.038C353.042 338.54 352.709 336.723 353.078 334.982L353.058 334.922ZM367.828 313.592C368.461 314.593 368.677 315.803 368.428 316.962C368.306 317.534 368.068 318.075 367.728 318.552C367.396 319.034 366.972 319.445 366.479 319.761C365.986 320.077 365.435 320.291 364.858 320.392C364.284 320.507 363.693 320.507 363.118 320.392C362.399 320.237 361.729 319.906 361.168 319.43C360.606 318.954 360.171 318.347 359.901 317.662C359.631 316.978 359.534 316.237 359.619 315.506C359.704 314.775 359.968 314.076 360.388 313.472C360.808 312.866 361.371 312.375 362.028 312.042C362.684 311.704 363.413 311.536 364.15 311.552C364.887 311.567 365.608 311.767 366.248 312.132C366.888 312.492 367.431 313.004 367.828 313.622V313.592ZM337.718 362.282L345.518 251.572C345.585 250.412 345.987 249.296 346.676 248.36C347.364 247.425 348.31 246.709 349.397 246.3C350.485 245.892 351.668 245.807 352.802 246.058C353.937 246.308 354.974 246.883 355.788 247.712C356.896 248.791 357.545 250.256 357.598 251.802L360.708 309.252C360.46 309.369 360.219 309.503 359.988 309.652C359.155 310.17 358.435 310.85 357.868 311.652C357.298 312.462 356.899 313.381 356.698 314.352C356.331 316.045 356.556 317.814 357.337 319.362C358.118 320.909 359.407 322.141 360.988 322.852L360.178 326.532C357.834 326.399 355.519 327.111 353.654 328.539C351.79 329.966 350.498 332.015 350.015 334.313C349.531 336.611 349.887 339.006 351.017 341.065C352.148 343.123 353.979 344.708 356.178 345.532L355.178 350.342L351.478 349.432C351.089 349.353 350.685 349.428 350.349 349.64C350.014 349.853 349.774 350.186 349.678 350.572C349.587 350.959 349.648 351.367 349.848 351.712C349.946 351.883 350.076 352.033 350.233 352.153C350.389 352.274 350.568 352.361 350.758 352.412L354.508 353.322L353.448 358.192L349.128 357.192C348.927 357.152 348.72 357.152 348.518 357.192C348.313 357.217 348.116 357.285 347.938 357.392C347.759 357.493 347.605 357.633 347.488 357.802C347.365 357.966 347.276 358.153 347.228 358.353C347.18 358.552 347.173 358.759 347.208 358.962C347.238 359.164 347.309 359.358 347.418 359.532C347.527 359.709 347.674 359.859 347.848 359.972C348.016 360.09 348.207 360.172 348.408 360.212L352.798 361.282L351.078 369.202L341.278 367.052C340.23 366.817 339.301 366.216 338.659 365.355C338.017 364.495 337.705 363.433 337.778 362.362L337.718 362.282Z" fill="#D5AB52"/>
<path d="M361.678 361.822C361.718 361.62 361.718 361.413 361.678 361.212C361.649 361.009 361.577 360.815 361.468 360.642C361.358 360.469 361.215 360.32 361.048 360.202C360.885 360.082 360.697 360 360.498 359.962L356.308 358.962L357.378 354.092L362.118 355.242C362.319 355.286 362.527 355.286 362.728 355.242C362.933 355.215 363.13 355.147 363.308 355.042C363.486 354.939 363.642 354.803 363.768 354.642C363.889 354.473 363.977 354.283 364.028 354.082C364.073 353.881 364.073 353.673 364.028 353.472C363.996 353.265 363.921 353.068 363.808 352.892C363.698 352.719 363.555 352.57 363.388 352.452C363.216 352.335 363.022 352.253 362.818 352.212L358.008 351.052L359.068 346.152C360.362 346.211 361.655 346.013 362.872 345.57C364.089 345.128 365.207 344.448 366.161 343.572C367.114 342.695 367.885 341.639 368.429 340.463C368.972 339.288 369.278 338.016 369.328 336.722C369.399 334.688 368.838 332.683 367.723 330.982C366.607 329.28 364.991 327.967 363.098 327.222L363.908 323.552C365.372 323.577 366.812 323.181 368.058 322.412C368.98 321.823 369.763 321.041 370.352 320.119C370.941 319.197 371.322 318.158 371.469 317.074C371.615 315.99 371.524 314.887 371.201 313.841C370.878 312.796 370.331 311.834 369.598 311.022L395.598 260.182C396.323 258.829 397.53 257.798 398.978 257.292C400.061 256.922 401.226 256.865 402.34 257.129C403.453 257.393 404.47 257.966 405.271 258.783C406.073 259.599 406.628 260.625 406.871 261.743C407.115 262.862 407.038 264.026 406.648 265.102L367.648 368.932C367.282 369.925 366.573 370.755 365.648 371.272C364.71 371.778 363.621 371.934 362.578 371.712L353.968 369.812L355.678 361.952L359.808 362.952C360.01 362.992 360.217 362.992 360.418 362.952C360.62 362.924 360.814 362.856 360.988 362.752C361.165 362.648 361.319 362.508 361.438 362.342C361.557 362.177 361.642 361.99 361.688 361.792L361.678 361.822Z" fill="#D5AB52"/>
<path d="M353.058 334.922C353.307 333.846 353.815 332.847 354.538 332.012C355.26 331.174 356.177 330.528 357.208 330.132C358.238 329.73 359.352 329.593 360.448 329.732C361.546 329.865 362.593 330.267 363.499 330.902C364.404 331.537 365.139 332.385 365.638 333.372C366.393 334.86 366.569 336.577 366.131 338.188C365.693 339.799 364.673 341.19 363.268 342.092C363.028 342.232 362.788 342.372 362.538 342.492C361.193 343.131 359.673 343.303 358.218 342.982C356.481 342.594 354.966 341.536 354.004 340.038C353.042 338.54 352.709 336.723 353.078 334.982L353.058 334.922Z" fill="#D5AB52"/>
<path d="M359.658 315.052C359.794 314.4 360.074 313.786 360.478 313.257C360.882 312.727 361.398 312.294 361.991 311.99C362.583 311.685 363.236 311.517 363.902 311.497C364.567 311.478 365.229 311.607 365.838 311.876C366.448 312.145 366.989 312.546 367.423 313.051C367.857 313.556 368.173 314.152 368.348 314.795C368.522 315.437 368.551 316.111 368.431 316.766C368.312 317.421 368.048 318.042 367.658 318.582C367.33 319.067 366.904 319.479 366.408 319.792C365.915 320.107 365.365 320.321 364.788 320.422C364.211 320.542 363.615 320.542 363.038 320.422C361.88 320.163 360.871 319.456 360.233 318.455C359.596 317.454 359.382 316.241 359.638 315.082L359.658 315.052Z" fill="#D5AB52"/>
<path d="M337.668 362.292L345.478 251.572C345.545 250.412 345.947 249.296 346.636 248.361C347.324 247.425 348.27 246.709 349.357 246.3C350.445 245.892 351.628 245.807 352.762 246.058C353.897 246.308 354.934 246.883 355.748 247.712C356.856 248.791 357.505 250.256 357.558 251.802L360.668 309.252C360.42 309.369 360.179 309.503 359.948 309.652C359.115 310.17 358.395 310.85 357.828 311.652C357.258 312.462 356.859 313.381 356.658 314.352C356.29 316.046 356.516 317.814 357.297 319.362C358.078 320.909 359.367 322.141 360.948 322.852L360.138 326.532C357.794 326.399 355.479 327.111 353.614 328.539C351.75 329.966 350.458 332.015 349.974 334.313C349.491 336.611 349.846 339.006 350.977 341.065C352.108 343.123 353.939 344.708 356.138 345.532L355.138 350.342L351.438 349.432C351.049 349.353 350.645 349.428 350.309 349.64C349.974 349.853 349.733 350.186 349.638 350.572C349.547 350.959 349.608 351.367 349.808 351.712C349.906 351.883 350.036 352.033 350.193 352.154C350.349 352.274 350.528 352.361 350.718 352.412L354.468 353.322L353.408 358.192L349.088 357.192C348.887 357.152 348.68 357.152 348.478 357.192C348.274 357.222 348.078 357.29 347.898 357.392C347.719 357.493 347.565 357.633 347.448 357.802C347.323 357.966 347.233 358.153 347.183 358.353C347.134 358.553 347.126 358.761 347.159 358.965C347.193 359.168 347.268 359.362 347.38 359.535C347.491 359.708 347.637 359.857 347.808 359.972C347.976 360.09 348.167 360.172 348.368 360.212L352.758 361.282L351.038 369.202L341.238 367.052C340.191 366.818 339.261 366.216 338.619 365.355C337.977 364.495 337.665 363.433 337.738 362.362L337.668 362.292Z" fill="#D5AB52"/>
<path d="M365.408 309.282L351.818 371.412" stroke="#987733" stroke-width="5"/>
<path d="M347.078 355.752L363.008 356.252M351.898 338.752L367.678 339.752L351.898 338.752Z" stroke="#987733" stroke-width="5"/>
<path d="M173.838 371.952C175.614 372.271 177.445 371.953 179.008 371.052L189.008 365.192L197.928 359.952C199.481 359.034 200.652 357.589 201.229 355.88C201.805 354.171 201.748 352.312 201.068 350.642L186.808 315.812L186.698 315.562L158.998 248.022C158.11 245.875 156.436 244.147 154.319 243.191C152.201 242.235 149.799 242.122 147.601 242.875C145.403 243.629 143.575 245.192 142.49 247.246C141.404 249.3 141.142 251.691 141.758 253.932L157.168 308.342C156.671 308.511 156.192 308.728 155.738 308.992C155.183 309.319 154.669 309.711 154.208 310.162L113.298 270.622C112.227 269.553 110.906 268.767 109.456 268.335C108.006 267.903 106.471 267.838 104.989 268.147C103.508 268.455 102.126 269.127 100.968 270.102C99.811 271.077 98.914 272.324 98.3581 273.732C98.1391 274.28 97.9781 274.85 97.878 275.432C97.637 276.721 97.6777 278.047 97.997 279.319C98.3163 280.591 98.9068 281.779 99.7281 282.802L169.318 369.282C170.459 370.682 172.061 371.628 173.838 371.952V371.952ZM166.058 311.692C165.449 310.666 164.606 309.799 163.598 309.161C162.59 308.524 161.446 308.133 160.258 308.022L144.718 253.092C144.423 251.984 144.447 250.816 144.789 249.722C145.13 248.628 145.775 247.654 146.648 246.912C147.521 246.169 148.587 245.69 149.721 245.529C150.856 245.368 152.013 245.532 153.058 246.002C154.464 246.624 155.577 247.762 156.168 249.182L198.228 351.802C198.626 352.791 198.658 353.89 198.317 354.9C197.976 355.911 197.284 356.766 196.368 357.312L188.768 361.762L184.678 354.842L188.388 352.762C188.567 352.666 188.725 352.535 188.852 352.377C188.979 352.219 189.073 352.037 189.128 351.842C189.188 351.648 189.208 351.444 189.188 351.242C189.16 351.038 189.095 350.842 188.998 350.662C188.899 350.482 188.762 350.325 188.598 350.202C188.44 350.073 188.256 349.981 188.058 349.932C187.86 349.892 187.656 349.892 187.458 349.932C187.254 349.963 187.058 350.031 186.878 350.132L183.118 352.242L180.598 347.942L184.848 345.562C185.03 345.466 185.193 345.337 185.328 345.182C185.457 345.021 185.556 344.838 185.618 344.642C185.677 344.444 185.698 344.237 185.678 344.032C185.66 343.825 185.598 343.624 185.498 343.442C185.396 343.261 185.26 343.102 185.098 342.972C184.927 342.852 184.738 342.761 184.538 342.702C184.337 342.662 184.129 342.662 183.928 342.702C183.722 342.731 183.525 342.802 183.348 342.912L179.028 345.332L176.478 341.022C177.802 339.908 178.807 338.462 179.388 336.832C180.021 335.059 180.13 333.141 179.702 331.307C179.275 329.474 178.329 327.802 176.977 326.492C175.626 325.181 173.926 324.287 172.08 323.917C170.234 323.546 168.321 323.714 166.568 324.402L164.648 321.162C165.929 319.997 166.77 318.426 167.029 316.714C167.288 315.002 166.948 313.253 166.068 311.762L166.058 311.692ZM164.358 336.842C163.806 335.884 163.497 334.806 163.458 333.702C163.421 332.598 163.655 331.502 164.139 330.51C164.624 329.518 165.345 328.66 166.238 328.012C167.124 327.367 168.154 326.948 169.238 326.792C170.333 326.645 171.446 326.769 172.482 327.153C173.517 327.536 174.443 328.168 175.178 328.992C175.916 329.815 176.439 330.809 176.699 331.884C176.959 332.959 176.948 334.082 176.668 335.152C176.6 335.419 176.516 335.683 176.418 335.942C175.866 337.328 174.867 338.49 173.578 339.242C172.035 340.138 170.2 340.391 168.472 339.943C166.744 339.496 165.262 338.385 164.348 336.852L164.358 336.842ZM160.678 311.162C161.821 311.463 162.799 312.203 163.398 313.222C163.7 313.724 163.897 314.281 163.978 314.862C164.06 315.442 164.026 316.034 163.878 316.602C163.728 317.169 163.47 317.702 163.118 318.172C162.764 318.636 162.322 319.027 161.818 319.322C161.184 319.695 160.467 319.908 159.732 319.941C158.996 319.974 158.264 319.827 157.598 319.512C156.936 319.192 156.363 318.714 155.928 318.122C155.493 317.533 155.212 316.846 155.108 316.122C155.008 315.394 155.087 314.652 155.338 313.962C155.589 313.27 156.008 312.651 156.558 312.162C157.111 311.677 157.773 311.334 158.488 311.162C159.2 310.982 159.946 310.982 160.658 311.162H160.678ZM171.678 367.332L102.088 280.882C101.121 279.674 100.654 278.142 100.782 276.601C100.909 275.059 101.623 273.625 102.775 272.594C103.927 271.562 105.431 271.01 106.977 271.053C108.523 271.095 109.994 271.728 111.088 272.822L152.448 312.822C152.35 313.08 152.266 313.344 152.198 313.612C151.947 314.569 151.89 315.568 152.029 316.548C152.168 317.528 152.501 318.471 153.008 319.322C153.888 320.814 155.255 321.958 156.88 322.561C158.505 323.164 160.287 323.189 161.928 322.632L163.848 325.882C162.017 327.372 160.784 329.472 160.376 331.798C159.969 334.123 160.414 336.518 161.629 338.542C162.845 340.566 164.75 342.084 166.994 342.817C169.239 343.55 171.672 343.448 173.848 342.532L176.348 346.772L173.018 348.622C172.681 348.831 172.435 349.16 172.328 349.542C172.23 349.927 172.284 350.335 172.478 350.682C172.673 351.03 172.996 351.288 173.378 351.402C173.567 351.461 173.767 351.482 173.964 351.463C174.162 351.444 174.353 351.386 174.528 351.292L177.888 349.412L180.428 353.712L176.548 355.872C176.363 355.968 176.2 356.1 176.068 356.262C175.937 356.421 175.838 356.604 175.778 356.802C175.733 357.002 175.733 357.211 175.778 357.412C175.798 357.615 175.859 357.812 175.958 357.992C176.061 358.169 176.197 358.325 176.358 358.452C176.521 358.579 176.708 358.671 176.908 358.722C177.107 358.777 177.316 358.79 177.521 358.761C177.726 358.732 177.922 358.66 178.098 358.552L182.038 356.342L186.158 363.342L177.518 368.432C176.59 368.969 175.502 369.157 174.447 368.963C173.393 368.768 172.443 368.204 171.768 367.372L171.678 367.332Z" fill="#D5AB52"/>
<path d="M188.998 350.672C188.898 350.492 188.762 350.336 188.598 350.212C188.438 350.084 188.255 349.988 188.058 349.932C187.86 349.892 187.656 349.892 187.458 349.932C187.254 349.954 187.056 350.018 186.878 350.122L183.118 352.232L180.588 347.932L184.848 345.552C185.035 345.463 185.199 345.333 185.328 345.172C185.46 345.013 185.558 344.829 185.618 344.632C185.678 344.434 185.699 344.227 185.678 344.022C185.623 343.625 185.415 343.266 185.098 343.022C184.932 342.894 184.741 342.802 184.538 342.752C184.337 342.707 184.129 342.707 183.928 342.752C183.722 342.781 183.525 342.852 183.348 342.962L179.028 345.372L176.478 341.072C177.469 340.237 178.285 339.213 178.877 338.061C179.47 336.909 179.829 335.65 179.932 334.358C180.035 333.066 179.881 331.767 179.479 330.535C179.077 329.303 178.434 328.163 177.588 327.182C176.46 325.864 175 324.872 173.358 324.312C171.147 323.554 168.739 323.6 166.558 324.442L164.648 321.202C165.73 320.218 166.501 318.941 166.869 317.526C167.237 316.111 167.185 314.619 166.72 313.234C166.254 311.848 165.395 310.627 164.248 309.721C163.1 308.815 161.714 308.263 160.258 308.132L144.718 253.202C144.305 251.712 144.477 250.121 145.198 248.754C145.92 247.387 147.137 246.347 148.599 245.848C150.062 245.348 151.661 245.426 153.068 246.067C154.475 246.707 155.584 247.861 156.168 249.292L198.228 351.912C198.628 352.901 198.661 354 198.32 355.011C197.978 356.022 197.286 356.878 196.368 357.422L188.768 361.872L184.678 354.952L188.388 352.872C188.567 352.776 188.725 352.645 188.852 352.487C188.979 352.329 189.073 352.147 189.128 351.952C189.188 351.758 189.208 351.554 189.188 351.352C189.16 351.148 189.095 350.952 188.998 350.772V350.672Z" fill="#D5AB52"/>
<path d="M164.358 336.842C163.806 335.884 163.497 334.806 163.458 333.702C163.421 332.598 163.655 331.502 164.139 330.51C164.624 329.518 165.345 328.66 166.238 328.012C167.124 327.367 168.154 326.948 169.238 326.792C170.333 326.645 171.446 326.769 172.482 327.153C173.517 327.536 174.443 328.168 175.178 328.992C175.916 329.815 176.439 330.809 176.699 331.884C176.959 332.959 176.948 334.082 176.668 335.152C176.6 335.42 176.516 335.683 176.418 335.942C175.866 337.328 174.867 338.49 173.578 339.242C172.035 340.138 170.2 340.391 168.472 339.943C166.744 339.496 165.262 338.385 164.348 336.852L164.358 336.842Z" fill="#D5AB52"/>
<path d="M155.708 317.762C155.261 316.998 155.051 316.118 155.104 315.235C155.157 314.351 155.471 313.503 156.007 312.799C156.542 312.094 157.275 311.564 158.112 311.276C158.949 310.988 159.852 310.955 160.708 311.182C161.561 311.408 162.329 311.881 162.916 312.54C163.503 313.2 163.883 314.018 164.008 314.892C164.09 315.469 164.056 316.057 163.908 316.622C163.609 317.768 162.869 318.75 161.848 319.352C160.822 319.947 159.602 320.113 158.454 319.813C157.306 319.513 156.323 318.772 155.718 317.752L155.708 317.762Z" fill="#D5AB52"/>
<path d="M171.718 367.352L102.128 280.882C101.161 279.674 100.694 278.142 100.822 276.601C100.949 275.059 101.663 273.625 102.815 272.594C103.967 271.562 105.471 271.01 107.017 271.053C108.563 271.095 110.034 271.728 111.128 272.822L152.488 312.822C152.39 313.08 152.306 313.344 152.238 313.612C151.988 314.569 151.93 315.568 152.069 316.548C152.208 317.528 152.541 318.471 153.048 319.322C153.928 320.814 155.296 321.958 156.92 322.561C158.545 323.164 160.327 323.189 161.968 322.632L163.888 325.882C162.057 327.372 160.824 329.472 160.417 331.798C160.009 334.123 160.454 336.518 161.669 338.542C162.885 340.566 164.79 342.084 167.034 342.817C169.279 343.55 171.712 343.448 173.888 342.532L176.388 346.772L173.068 348.622C172.728 348.828 172.481 349.157 172.379 349.541C172.276 349.925 172.326 350.334 172.518 350.682C172.713 351.03 173.036 351.288 173.418 351.402C173.607 351.461 173.807 351.481 174.004 351.463C174.202 351.444 174.393 351.386 174.568 351.292L177.928 349.412L180.468 353.712L176.588 355.872C176.403 355.968 176.24 356.1 176.108 356.262C175.977 356.421 175.878 356.604 175.818 356.802C175.773 357.002 175.773 357.211 175.818 357.412C175.838 357.615 175.899 357.812 175.998 357.992C176.101 358.169 176.237 358.325 176.398 358.452C176.561 358.579 176.748 358.671 176.948 358.722C177.148 358.777 177.356 358.79 177.561 358.761C177.766 358.732 177.962 358.66 178.138 358.552L182.078 356.342L186.198 363.342L177.558 368.432C176.631 368.969 175.542 369.157 174.488 368.963C173.433 368.768 172.483 368.204 171.808 367.372L171.718 367.352Z" fill="#D5AB52"/>
<path d="M155.998 309.622L188.318 364.432" stroke="#987733" stroke-width="5"/>
<path d="M174.168 356.142L186.168 345.672M166.138 340.412L178.398 330.412L166.138 340.412Z" stroke="#987733" stroke-width="5"/>
</svg>
