<svg width="2166" height="917" viewBox="0 0 2166 917" fill="none" xmlns="http://www.w3.org/2000/svg">
<path d="M10.4376 10C829.904 248.353 1298.14 309.327 2163.76 166.492" stroke="#5D0E14" stroke-width="20"/>
<path d="M1685.34 240.65C1678.66 238.954 1672.5 229.528 1672.99 220.463C1673.21 209.394 1675.36 198.47 1679.33 188.265C1689.2 164.992 1706.03 150.951 1728.49 145.167C1742.86 141.5 1757.92 142.674 1771.65 148.532C1780.12 152.047 1787.83 157.403 1794.31 164.269C1818.36 189.572 1812.79 240.928 1786.79 266.953C1781.31 272.514 1776.15 278.298 1770.32 283.386C1766.64 286.568 1763.42 290.315 1760.76 294.508C1753.77 305.63 1755.62 315.807 1766.59 322.536C1775.12 327.345 1784.18 330.978 1793.54 333.352C1819.24 341.026 1844.68 349.312 1869.91 358.377C1883.68 362.408 1896.99 368.081 1910.61 372.557C1924.23 377.034 1937.77 381.9 1951.08 387.405C1967.52 394.19 1981.42 404.978 1990.52 421.105C1996.6 431.584 1999.09 444.042 1997.56 456.306C1997.28 458.364 1997.04 460.421 1996.81 462.479C1995.5 474.602 1988.36 482.165 1979.55 488.365C1966.31 497.438 1950.97 502.259 1935.3 502.268C1909.61 502.88 1883.73 502.463 1857.93 502.435C1856.88 502.435 1855.8 502.435 1854.75 502.435C1849.61 502.045 1844.96 500.627 1842.93 494.761C1841.23 489.895 1843.6 482.415 1848.07 478.661C1851.08 476.023 1854.59 474.126 1858.35 473.1C1864.26 472.239 1870.24 471.987 1876.2 472.35C1894.55 472.35 1912.87 472.35 1931.21 472.35C1933.78 472.472 1936.36 472.425 1938.92 472.211C1945.06 471.404 1952.03 470.765 1954.93 464.175C1958.6 455.833 1954.55 443.516 1947.74 438.288C1945.97 436.603 1943.95 435.275 1941.75 434.368C1928.23 426.722 1913.49 422.662 1899.25 417.129C1874.38 407.425 1849.15 398.805 1824.12 389.574C1806.13 382.984 1788.15 376.255 1770.16 369.749C1766.8 368.525 1762.99 367.914 1761.19 363.826C1755.36 358.877 1748.35 355.874 1742.82 350.452C1719.7 327.791 1718.88 292.562 1740.07 267.704C1748.78 257.472 1759.4 249.631 1767.93 239.315C1773.99 232.03 1778.77 224.44 1775.22 213.957C1774.57 213.57 1774 213.034 1773.56 212.386C1773.11 211.738 1772.81 210.993 1772.65 210.203C1770.34 201.584 1764.2 196.44 1758.03 191.296C1743.65 176.281 1715.12 183.455 1708.62 203.752C1706.59 210.092 1706.18 216.821 1704.44 223.216C1703.66 226.801 1702.45 230.259 1700.84 233.504C1696.8 240.705 1693.13 242.346 1685.34 240.65Z" fill="#FFFEFF"/>
<path d="M1604.9 476.576L1595.65 497.346C1594.74 499.197 1593.35 500.716 1591.65 501.706C1589.95 502.697 1588.01 503.115 1586.09 502.907C1561.01 502.907 1535.96 503.074 1510.88 502.907C1500.6 502.907 1492.33 498.904 1486.75 489.227C1481.43 479.625 1478.18 468.848 1477.24 457.699C1476.31 446.55 1477.7 435.315 1481.33 424.831C1486.78 408.398 1498.08 397.026 1512.58 390.047C1538.01 377.924 1563.96 367.413 1590.07 356.68C1620.41 344.168 1650.58 331.128 1680.82 318.337C1686.67 315.371 1693.35 314.963 1699.48 317.197C1708.06 323.287 1708.73 329.849 1699.84 340.109C1692.26 348.298 1683.28 354.814 1673.4 359.294C1643.72 374.086 1612.91 385.792 1582.34 398.221C1562.76 406.146 1543.13 414.154 1526.96 429.307C1524.24 431.865 1521.18 434.145 1520.51 438.427C1520.38 439.089 1520.19 439.732 1519.92 440.346C1518.57 443.016 1517.85 446.015 1517.85 449.063C1517.85 452.111 1518.57 455.11 1519.92 457.78C1521.02 459.741 1521.5 462.034 1521.29 464.314C1522.35 467.693 1524.41 470.606 1527.13 472.612C1529.86 474.618 1533.12 475.609 1536.42 475.436C1556.98 475.297 1577.53 475.436 1598.21 475.436C1600.5 475.186 1602.87 474.518 1604.9 476.576Z" fill="#FEFCFC"/>
<path d="M1696.88 359.906C1688.68 362.992 1680.28 365.467 1672.37 369.248C1648.27 380.565 1623.37 389.546 1599.06 400.168C1584.31 406.591 1569.75 413.514 1554.82 419.353C1541.97 424.358 1529.41 429.474 1518.84 439.067C1519.31 429.057 1527.38 425.748 1533.21 421.022C1547.16 409.76 1563.37 403.059 1579.46 396.636C1610.57 384.263 1641.77 372.085 1671.96 357.376C1681.09 352.901 1689.55 346.968 1697.06 339.775C1705.46 331.767 1706.03 326.262 1699.35 317.003C1702.73 318.414 1705.7 320.79 1707.93 323.879C1710.17 326.968 1711.59 330.655 1712.04 334.548C1713.07 343.584 1709.47 350.619 1702.59 355.763C1700.81 357.209 1698.81 358.543 1696.88 359.906Z" fill="#EEE3E2"/>
<path d="M1816.13 235.061C1816.1 235.496 1816.1 235.933 1816.13 236.368C1813.2 251.007 1805.99 264.236 1795.57 274.099C1787.35 281.69 1779.93 290.282 1771.37 297.483C1763.66 306.437 1764.61 314.611 1774.07 320.45C1778.85 323.398 1783.47 326.707 1789.28 326.707C1800.33 333.296 1812.69 335.966 1824.48 340.359C1839.1 345.92 1853.77 351.119 1868.39 356.569C1869.09 356.819 1869.52 357.876 1870.06 358.543C1862.35 358.543 1855.7 354.567 1848.53 352.537C1825.53 346.031 1802.74 338.635 1779.93 331.239C1773.5 329.389 1767.42 326.361 1761.94 322.286C1758.4 319.644 1755.88 315.683 1754.86 311.159C1753.85 306.635 1754.41 301.866 1756.44 297.761C1760.12 290.726 1765.06 284.561 1770.98 279.633C1784.27 267.287 1797.19 254.608 1803 235.812C1810.43 211.733 1809.47 188.765 1795.5 167.411C1795 166.422 1794.61 165.365 1794.37 164.269C1801.02 170.041 1806.41 177.325 1810.17 185.603C1813.93 193.882 1815.97 202.954 1816.13 212.177C1816.33 219.796 1816.13 227.442 1816.13 235.061Z" fill="#EFE3E2"/>
<path d="M1486.75 489.033C1494.46 499.209 1505.18 500.155 1516.28 500.155C1539.76 500.155 1563.24 500.155 1586.73 500.155C1589.92 500.462 1593.1 499.471 1595.65 497.374C1595.26 500.331 1594.31 503.17 1592.87 505.716C1592.2 506.884 1591.05 507.996 1590.97 509.191C1590.25 518.701 1584.98 520.063 1577.35 519.59C1560.57 518.534 1543.69 520.536 1526.89 518.145C1513.63 516.282 1503.04 508.969 1493.82 499.293C1491.15 496.568 1487.37 493.982 1486.75 489.033Z" fill="#EFE3E4"/>
<path d="M1759.6 190.629C1745.8 185.485 1733.21 187.125 1722.16 198.219C1720.3 199.748 1719.02 201.964 1718.57 204.448C1713.43 209.87 1714.3 217.21 1713.58 223.911C1713.3 227.347 1712.24 230.655 1710.5 233.544C1708.76 236.433 1706.39 238.813 1703.59 240.476C1700.8 242.138 1697.67 243.031 1694.49 243.076C1691.3 243.121 1688.15 242.316 1685.32 240.733C1694.16 240.372 1698.53 237.007 1700.99 227.665C1703.3 218.851 1704.64 209.731 1707.26 201.028C1713.92 179.006 1747.88 175.28 1759.6 190.629Z" fill="#F0E3E3"/>
<path d="M1886.7 472.641L1599.61 477.833L1581.75 499.8L1909.47 503.394L1886.7 472.641Z" fill="white"/>
<path d="M1953.67 519.545C1944.61 516.362 1561.57 519.545 1561.57 519.545L1567.61 500.798C1760.12 496.816 1902.24 518.848 1987.31 484.173C1987.31 484.173 1962.73 522.729 1953.67 519.545Z" fill="#EFE3E4"/>
<path d="M1634 232.12C1687.29 230.547 1719.63 225.878 1772.27 220.41" stroke="#5D0E14" stroke-width="20"/>
<path d="M1827.91 777.132C1828.21 782.116 1827.39 787.103 1825.5 791.727C1824.67 793.992 1823.55 796.138 1822.17 798.113C1820.31 800.858 1818 803.269 1815.34 805.244C1800.06 815.295 1782.27 820.922 1763.97 821.498C1758.14 821.996 1751.9 822.244 1744.99 822.244C1738.08 822.244 1731.84 821.996 1726.01 821.498C1707.7 820.922 1689.92 815.295 1674.64 805.244C1671.98 803.269 1669.67 800.858 1667.81 798.113C1666.43 796.138 1665.31 793.992 1664.48 791.727C1662.59 787.103 1661.77 782.116 1662.07 777.132C1662.79 758.713 1666.21 740.497 1672.23 723.064C1695.99 729.063 1720.48 731.742 1744.99 731.025C1769.5 731.742 1793.99 729.063 1817.75 723.064C1823.77 740.497 1827.19 758.713 1827.91 777.132Z" fill="#FEBCC7"/>
<path d="M1817.75 723.064C1810.07 725.245 1802.24 726.886 1794.32 727.973C1799.33 743.916 1802.22 760.442 1802.93 777.132C1803.23 782.116 1802.41 787.103 1800.52 791.727C1799.7 793.992 1798.58 796.138 1797.19 798.113C1795.34 800.858 1793.03 803.269 1790.36 805.244C1775.08 815.295 1757.3 820.922 1739 821.498C1736.91 821.672 1734.7 821.78 1732.5 821.896C1736.46 822.103 1740.55 822.244 1744.99 822.244C1751.9 822.244 1758.14 821.996 1763.97 821.498C1782.27 820.922 1800.06 815.295 1815.34 805.244C1818 803.269 1820.31 800.858 1822.17 798.113C1823.55 796.138 1824.67 793.992 1825.5 791.727C1827.39 787.103 1828.21 782.116 1827.91 777.132C1827.19 758.713 1823.77 740.497 1817.75 723.064V723.064Z" fill="#FC8EA0"/>
<path d="M1827.91 777.132C1828.21 782.116 1827.39 787.103 1825.5 791.727C1824.67 793.992 1823.55 796.138 1822.17 798.113C1820.31 800.858 1818 803.269 1815.34 805.244C1800.06 815.295 1782.27 820.922 1763.97 821.498C1758.14 821.996 1751.9 822.244 1744.99 822.244C1738.08 822.244 1731.84 821.996 1726.01 821.498C1707.7 820.922 1689.92 815.295 1674.64 805.244C1671.98 803.269 1669.67 800.858 1667.81 798.113C1666.43 796.138 1665.31 793.992 1664.48 791.727C1662.59 787.103 1661.77 782.116 1662.07 777.132C1662.79 758.713 1666.21 740.497 1672.23 723.064C1695.99 729.063 1720.48 731.742 1744.99 731.025C1769.5 731.742 1793.99 729.063 1817.75 723.064C1823.77 740.497 1827.19 758.713 1827.91 777.132Z" stroke="#5D0E14" stroke-width="15"/>
<path d="M1662.07 777.132C1661.77 782.116 1662.59 787.103 1664.48 791.727C1639.67 806.654 1626.94 799.937 1620.27 789.654C1613.49 778.255 1613.23 764.136 1619.61 752.503C1626.78 737.495 1637.22 724.265 1650.16 713.776C1657.09 717.796 1664.5 720.917 1672.23 723.064C1666.21 740.497 1662.79 758.713 1662.07 777.132Z" fill="#FEBCC7" stroke="#5D0E14" stroke-width="15"/>
<path d="M1869.7 789.654C1863.04 799.937 1850.31 806.654 1825.5 791.727C1827.39 787.103 1828.21 782.116 1827.91 777.132C1827.19 758.713 1823.77 740.497 1817.75 723.064C1825.48 720.917 1832.89 717.796 1839.82 713.776C1852.76 724.265 1863.2 737.495 1870.37 752.503C1876.75 764.136 1876.49 778.255 1869.7 789.654Z" fill="#FEBCC7"/>
<path d="M1870.37 752.503C1863.2 737.495 1852.76 724.265 1839.82 713.776C1834.58 716.845 1829.03 719.363 1823.27 721.289C1832.31 730.42 1839.78 740.964 1845.39 752.503C1851.77 764.136 1851.52 778.255 1844.73 789.654C1842.76 792.807 1840.09 795.469 1836.93 797.433C1854.37 804.257 1864.16 798.22 1869.7 789.654C1876.49 778.255 1876.75 764.136 1870.37 752.503Z" fill="#FC8EA0"/>
<path d="M1869.7 789.654C1863.04 799.937 1850.31 806.654 1825.5 791.727C1827.39 787.103 1828.21 782.116 1827.91 777.132C1827.19 758.713 1823.77 740.497 1817.75 723.064C1825.48 720.917 1832.89 717.796 1839.82 713.776C1852.76 724.265 1863.2 737.495 1870.37 752.503C1876.75 764.136 1876.49 778.255 1869.7 789.654V789.654Z" stroke="#5D0E14" stroke-width="15"/>
<path d="M1726.01 821.498C1725.09 856.41 1718.85 877.557 1712.6 889.996C1708.2 899.179 1698.93 905.066 1688.71 905.171C1687.9 905.185 1687.1 905.158 1686.3 905.089C1673.07 903.379 1662.97 892.482 1662.32 879.215C1661.19 852.063 1663.03 824.868 1667.81 798.113C1669.67 800.858 1671.98 803.269 1674.64 805.245C1689.92 815.295 1707.7 820.922 1726.01 821.498Z" fill="#97DED3" stroke="#5D0E14" stroke-width="15"/>
<path d="M1827.66 879.215C1827.01 892.482 1816.91 903.379 1803.68 905.089C1802.88 905.158 1802.08 905.185 1801.27 905.171C1791.05 905.066 1781.78 899.179 1777.38 889.996C1771.13 877.557 1764.89 856.41 1763.97 821.498C1782.27 820.922 1800.06 815.295 1815.34 805.245C1818 803.269 1820.31 800.858 1822.17 798.113C1826.95 824.868 1828.79 852.063 1827.66 879.215Z" fill="#97DED3"/>
<path d="M1822.17 798.113C1820.31 800.858 1818 803.269 1815.34 805.245C1810.46 808.761 1805.15 811.622 1799.52 813.753C1802.74 835.416 1803.8 857.344 1802.68 879.215C1802.08 888.615 1796.82 897.098 1788.66 901.854C1792.51 904.015 1796.85 905.157 1801.27 905.171C1802.07 905.185 1802.88 905.158 1803.68 905.089C1816.91 903.379 1827.01 892.482 1827.66 879.215C1828.79 852.063 1826.95 824.868 1822.17 798.113Z" fill="#76CAC1"/>
<path d="M1827.66 879.215C1827.01 892.482 1816.91 903.379 1803.68 905.089C1802.88 905.158 1802.08 905.185 1801.27 905.171C1791.05 905.066 1781.78 899.179 1777.38 889.996C1771.13 877.557 1764.89 856.41 1763.97 821.498C1782.27 820.922 1800.06 815.295 1815.34 805.245C1818 803.269 1820.31 800.858 1822.17 798.113C1826.95 824.868 1828.79 852.063 1827.66 879.215V879.215Z" stroke="#5D0E14" stroke-width="15"/>
<path d="M1869.87 631.512C1869.87 665.678 1869.87 695.864 1839.82 713.776C1832.89 717.796 1825.48 720.917 1817.75 723.064C1793.99 729.063 1769.5 731.743 1744.99 731.025C1720.48 731.743 1695.99 729.063 1672.23 723.064C1664.5 720.917 1657.09 717.796 1650.16 713.776C1620.11 695.864 1620.11 665.678 1620.11 631.512C1620.11 585.571 1659.15 546.927 1712.19 535.483C1722.97 533.174 1733.96 532.007 1744.99 532C1750.86 531.994 1756.73 532.326 1762.56 532.995C1823.17 539.795 1869.87 581.259 1869.87 631.512Z" fill="#F9F7E8"/>
<path d="M1762.56 532.995C1756.72 532.326 1750.86 531.994 1744.99 532C1741.04 532 1737.19 532.34 1733.33 532.63C1734.75 532.755 1736.18 532.829 1737.59 532.995C1798.19 539.795 1844.89 581.259 1844.89 631.512C1844.89 665.678 1844.89 695.864 1814.84 713.776C1807.91 717.796 1800.5 720.917 1792.78 723.064C1773.1 728.194 1752.84 730.813 1732.5 730.859C1736.53 730.958 1740.67 731.025 1744.99 731.025C1769.5 731.743 1793.99 729.063 1817.75 723.064C1825.48 720.917 1832.89 717.796 1839.82 713.776C1869.87 695.864 1869.87 665.678 1869.87 631.512C1869.87 581.259 1823.17 539.795 1762.56 532.995Z" fill="#FBDDCF"/>
<path d="M1869.87 631.512C1869.87 665.678 1869.87 695.864 1839.82 713.776C1832.89 717.796 1825.48 720.917 1817.75 723.064C1793.99 729.063 1769.5 731.743 1744.99 731.025C1720.48 731.743 1695.99 729.063 1672.23 723.064C1664.5 720.917 1657.09 717.796 1650.16 713.776C1620.11 695.864 1620.11 665.678 1620.11 631.512C1620.11 585.571 1659.15 546.927 1712.19 535.483C1722.97 533.174 1733.96 532.007 1744.99 532C1750.86 531.994 1756.73 532.326 1762.56 532.995C1823.17 539.795 1869.87 581.259 1869.87 631.512Z" stroke="#510A10" stroke-width="15"/>
<path d="M1690.87 689.561C1702.37 689.561 1711.69 680.279 1711.69 668.83C1711.69 657.38 1702.37 648.098 1690.87 648.098C1679.38 648.098 1670.06 657.38 1670.06 668.83C1670.06 680.279 1679.38 689.561 1690.87 689.561Z" fill="white"/>
<path d="M1799.11 689.561C1810.6 689.561 1819.92 680.279 1819.92 668.83C1819.92 657.38 1810.6 648.098 1799.11 648.098C1787.61 648.098 1778.29 657.38 1778.29 668.83C1778.29 680.279 1787.61 689.561 1799.11 689.561Z" fill="white"/>
<path d="M1661.74 689.561C1661.74 694.141 1665.46 697.854 1670.06 697.854H1711.69C1716.29 697.854 1720.01 694.141 1720.01 689.561C1719.98 686.824 1718.57 684.287 1716.25 682.811C1718.68 678.547 1719.98 673.734 1720.01 668.83C1720.01 652.8 1706.97 639.805 1690.87 639.805C1674.78 639.805 1661.74 652.8 1661.74 668.83C1661.77 673.734 1663.07 678.547 1665.5 682.811C1663.18 684.287 1661.77 686.824 1661.74 689.561ZM1690.87 656.391C1697.77 656.391 1703.36 661.96 1703.36 668.83C1703.36 675.7 1697.77 681.269 1690.87 681.269C1683.98 681.269 1678.39 675.7 1678.39 668.83C1678.39 661.96 1683.98 656.391 1690.87 656.391Z" fill="#5D0E14"/>
<path d="M1769.97 689.561C1769.97 694.141 1773.69 697.854 1778.29 697.854H1819.92C1824.52 697.854 1828.24 694.141 1828.24 689.561C1828.21 686.824 1826.8 684.287 1824.48 682.811C1826.91 678.547 1828.21 673.734 1828.24 668.83C1828.24 652.8 1815.2 639.805 1799.11 639.805C1783.01 639.805 1769.97 652.8 1769.97 668.83C1770 673.734 1771.3 678.547 1773.73 682.811C1771.41 684.287 1770 686.824 1769.97 689.561ZM1799.11 656.391C1806 656.391 1811.59 661.96 1811.59 668.83C1811.59 675.7 1806 681.269 1799.11 681.269C1792.21 681.269 1786.62 675.7 1786.62 668.83C1786.62 661.96 1792.21 656.391 1799.11 656.391Z" fill="#5D0E14"/>
<g clip-path="url(#clip0_46_90)">
<path d="M1819.25 555.472C1820.36 556.968 1821.98 558.016 1823.8 558.428L1835.48 561.009L1845.91 563.311C1847.73 563.704 1849.64 563.431 1851.28 562.542C1852.91 561.652 1854.18 560.204 1854.84 558.461L1868.52 522.056L1868.61 521.797L1895.11 451.167C1895.96 448.913 1895.92 446.418 1894.99 444.194C1894.06 441.97 1892.32 440.185 1890.12 439.207C1887.91 438.229 1885.42 438.132 1883.15 438.935C1880.88 439.738 1879 441.38 1877.9 443.525L1851.32 495.571C1850.82 495.345 1850.31 495.173 1849.78 495.056C1849.13 494.912 1848.46 494.85 1847.8 494.871L1844.61 436.161C1844.55 434.598 1844.1 433.075 1843.3 431.728C1842.51 430.381 1841.39 429.253 1840.05 428.446C1838.71 427.638 1837.19 427.175 1835.63 427.1C1834.07 427.025 1832.51 427.339 1831.1 428.014C1830.55 428.278 1830.03 428.597 1829.54 428.966C1828.45 429.773 1827.55 430.806 1826.9 431.994C1826.25 433.182 1825.86 434.497 1825.77 435.848L1817.68 550.267C1817.57 552.133 1818.12 553.98 1819.25 555.472ZM1855.71 504.363C1855.97 503.157 1855.94 501.906 1855.62 500.714C1855.31 499.522 1854.71 498.421 1853.89 497.503L1880.74 444.975C1881.48 443.573 1882.73 442.506 1884.23 441.989C1885.73 441.472 1887.37 441.543 1888.82 442.188C1890.27 442.833 1891.42 444.004 1892.04 445.464C1892.66 446.925 1892.7 448.566 1892.15 450.056L1851.88 557.348C1851.49 558.379 1850.74 559.236 1849.77 559.763C1848.8 560.289 1847.68 560.45 1846.6 560.217L1837.71 558.253L1839.48 550.139L1843.74 551.165C1843.95 551.219 1844.16 551.231 1844.37 551.202C1844.58 551.172 1844.78 551.101 1844.96 550.993C1845.14 550.885 1845.3 550.742 1845.42 550.572C1845.55 550.402 1845.64 550.208 1845.69 550.003C1845.74 549.798 1845.75 549.585 1845.71 549.377C1845.68 549.169 1845.61 548.969 1845.49 548.79C1845.38 548.612 1845.23 548.457 1845.06 548.336C1844.89 548.215 1844.69 548.129 1844.49 548.083L1840.16 547.037L1841.26 542.004L1846.16 543.193C1846.37 543.251 1846.58 543.267 1846.79 543.24C1847.01 543.214 1847.21 543.144 1847.4 543.037C1847.58 542.93 1847.74 542.787 1847.87 542.616C1848 542.445 1848.09 542.25 1848.14 542.043C1848.19 541.835 1848.2 541.619 1848.16 541.408C1848.13 541.197 1848.05 540.995 1847.94 540.814C1847.82 540.633 1847.67 540.478 1847.49 540.357C1847.32 540.237 1847.12 540.153 1846.91 540.111L1841.93 538.905L1843.03 533.85C1844.82 533.935 1846.6 533.544 1848.18 532.718C1849.77 531.892 1851.11 530.66 1852.07 529.148C1853.03 527.635 1853.57 525.895 1853.63 524.106C1853.7 522.318 1853.29 520.543 1852.45 518.964C1851.31 516.835 1849.45 515.179 1847.2 514.29L1848.03 510.489C1849.82 510.509 1851.56 509.911 1852.96 508.796C1854.36 507.681 1855.34 506.117 1855.72 504.369L1855.71 504.363ZM1836.74 522.218C1836.99 521.104 1837.52 520.069 1838.26 519.205C1839.01 518.341 1839.96 517.674 1841.02 517.263C1842.09 516.852 1843.24 516.71 1844.38 516.849C1845.51 516.988 1846.59 517.404 1847.53 518.061C1848.46 518.717 1849.22 519.593 1849.74 520.613C1850.25 521.632 1850.51 522.763 1850.49 523.905C1850.46 525.047 1850.16 526.166 1849.6 527.162C1849.04 528.159 1848.25 529.003 1847.28 529.619C1847.04 529.771 1846.79 529.909 1846.54 530.033C1845.15 530.697 1843.57 530.876 1842.07 530.539C1840.27 530.136 1838.7 529.037 1837.7 527.483C1836.71 525.928 1836.37 524.044 1836.75 522.24L1836.74 522.218ZM1852 500.177C1852.65 501.208 1852.88 502.456 1852.62 503.651C1852.49 504.242 1852.25 504.803 1851.9 505.3C1851.56 505.796 1851.11 506.22 1850.6 506.546C1850.09 506.872 1849.52 507.094 1848.93 507.199C1848.33 507.304 1847.72 507.291 1847.13 507.159C1846.39 506.999 1845.69 506.658 1845.11 506.166C1844.53 505.673 1844.08 505.046 1843.81 504.338C1843.53 503.63 1843.43 502.865 1843.51 502.109C1843.6 501.354 1843.88 500.632 1844.31 500.007C1844.75 499.383 1845.33 498.875 1846 498.53C1846.68 498.185 1847.44 498.012 1848.2 498.028C1848.96 498.043 1849.7 498.246 1850.36 498.619C1851.03 498.992 1851.59 499.522 1852 500.164L1852 500.177ZM1820.89 550.486L1828.95 436.088C1829.07 434.495 1829.79 433.008 1830.97 431.932C1832.15 430.856 1833.7 430.273 1835.3 430.303C1836.9 430.332 1838.42 430.972 1839.56 432.091C1840.7 433.209 1841.37 434.722 1841.43 436.319L1844.64 495.687C1844.39 495.811 1844.14 495.95 1843.9 496.104C1843.03 496.653 1842.29 497.369 1841.7 498.209C1841.12 499.049 1840.71 499.997 1840.5 500.998C1840.12 502.748 1840.35 504.576 1841.16 506.175C1841.96 507.774 1843.29 509.049 1844.93 509.785L1844.09 513.588C1841.68 513.454 1839.29 514.189 1837.37 515.66C1835.45 517.131 1834.11 519.241 1833.61 521.609C1833.11 523.977 1833.47 526.447 1834.63 528.572C1835.78 530.698 1837.66 532.339 1839.93 533.2L1838.84 538.167L1835.03 537.228C1834.62 537.144 1834.2 537.221 1833.85 537.441C1833.51 537.662 1833.26 538.009 1833.16 538.409C1833.06 538.809 1833.13 539.231 1833.34 539.586C1833.55 539.941 1833.88 540.2 1834.28 540.31L1838.16 541.248L1837.05 546.285L1832.59 545.198C1832.39 545.141 1832.17 545.126 1831.96 545.154C1831.75 545.182 1831.55 545.252 1831.36 545.36C1831.18 545.468 1831.02 545.611 1830.9 545.782C1830.77 545.953 1830.68 546.148 1830.63 546.354C1830.58 546.561 1830.57 546.776 1830.6 546.985C1830.64 547.195 1830.72 547.396 1830.83 547.575C1830.94 547.755 1831.09 547.91 1831.27 548.031C1831.44 548.152 1831.64 548.236 1831.85 548.28L1836.39 549.381L1834.61 557.562L1824.48 555.343C1823.4 555.099 1822.44 554.476 1821.78 553.588C1821.12 552.7 1820.79 551.604 1820.87 550.499L1820.89 550.486Z" fill="#D5AB52"/>
<path d="M1845.68 550.006C1845.73 549.801 1845.74 549.588 1845.71 549.379C1845.68 549.171 1845.6 548.972 1845.49 548.793C1845.38 548.614 1845.23 548.46 1845.06 548.338C1844.89 548.217 1844.69 548.131 1844.49 548.086L1840.16 547.039L1841.26 542.006L1846.16 543.195C1846.36 543.253 1846.58 543.27 1846.79 543.243C1847 543.216 1847.21 543.147 1847.39 543.04C1847.58 542.932 1847.74 542.789 1847.86 542.618C1847.99 542.448 1848.08 542.253 1848.14 542.046C1848.19 541.838 1848.19 541.622 1848.16 541.41C1848.12 541.199 1848.05 540.997 1847.93 540.816C1847.82 540.636 1847.67 540.481 1847.49 540.36C1847.31 540.239 1847.11 540.155 1846.9 540.114L1841.93 538.908L1843.03 533.852C1844.81 533.937 1846.59 533.547 1848.18 532.721C1849.77 531.895 1851.11 530.663 1852.07 529.15C1853.02 527.637 1853.56 525.898 1853.63 524.109C1853.7 522.32 1853.29 520.546 1852.44 518.966C1851.3 516.837 1849.45 515.181 1847.2 514.293L1848.03 510.492C1849.54 510.508 1851.02 510.084 1852.3 509.272C1853.57 508.46 1854.58 507.294 1855.2 505.917C1855.82 504.54 1856.03 503.012 1855.8 501.519C1855.57 500.026 1854.9 498.634 1853.89 497.511L1880.74 444.975C1881.48 443.574 1882.73 442.507 1884.23 441.989C1885.73 441.472 1887.37 441.543 1888.82 442.188C1890.27 442.833 1891.42 444.004 1892.04 445.465C1892.66 446.925 1892.7 448.567 1892.15 450.057L1851.88 557.348C1851.49 558.38 1850.74 559.237 1849.77 559.763C1848.8 560.29 1847.68 560.451 1846.6 560.217L1837.71 558.253L1839.48 550.139L1843.74 551.166C1843.95 551.219 1844.16 551.232 1844.37 551.202C1844.58 551.173 1844.78 551.102 1844.96 550.994C1845.14 550.886 1845.3 550.742 1845.42 550.572C1845.55 550.402 1845.64 550.209 1845.69 550.004L1845.68 550.006Z" fill="#D5AB52"/>
<path d="M1836.74 522.219C1836.99 521.105 1837.52 520.07 1838.26 519.206C1839.01 518.341 1839.96 517.674 1841.02 517.264C1842.09 516.853 1843.24 516.71 1844.38 516.85C1845.51 516.989 1846.59 517.405 1847.53 518.061C1848.46 518.718 1849.22 519.594 1849.74 520.613C1850.25 521.633 1850.51 522.763 1850.49 523.906C1850.46 525.048 1850.16 526.167 1849.6 527.163C1849.04 528.16 1848.25 529.003 1847.28 529.62C1847.04 529.772 1846.79 529.91 1846.54 530.033C1845.15 530.698 1843.57 530.876 1842.07 530.54C1840.27 530.136 1838.7 529.038 1837.7 527.483C1836.71 525.929 1836.37 524.045 1836.75 522.24L1836.74 522.219Z" fill="#D5AB52"/>
<path d="M1843.6 501.678C1843.87 500.483 1844.6 499.442 1845.63 498.785C1846.67 498.128 1847.92 497.908 1849.11 498.174C1850.31 498.441 1851.35 499.171 1852.01 500.204C1852.66 501.238 1852.88 502.49 1852.62 503.686C1852.49 504.277 1852.24 504.838 1851.9 505.334C1851.55 505.831 1851.11 506.255 1850.6 506.581C1850.09 506.907 1849.52 507.129 1848.93 507.234C1848.33 507.339 1847.72 507.326 1847.13 507.194C1845.93 506.925 1844.89 506.195 1844.23 505.161C1843.57 504.127 1843.35 502.875 1843.61 501.676L1843.6 501.678Z" fill="#D5AB52"/>
<path d="M1820.87 550.494L1828.95 436.088C1829.07 434.495 1829.79 433.008 1830.97 431.932C1832.15 430.857 1833.7 430.274 1835.3 430.303C1836.9 430.333 1838.42 430.972 1839.56 432.091C1840.7 433.21 1841.37 434.723 1841.43 436.319L1844.64 495.687C1844.39 495.811 1844.14 495.951 1843.9 496.105C1843.03 496.654 1842.29 497.369 1841.7 498.209C1841.12 499.05 1840.71 499.997 1840.49 500.998C1840.12 502.749 1840.35 504.576 1841.16 506.176C1841.96 507.775 1843.29 509.049 1844.93 509.785L1844.09 513.588C1841.68 513.455 1839.29 514.19 1837.37 515.661C1835.45 517.132 1834.11 519.242 1833.61 521.61C1833.11 523.977 1833.47 526.447 1834.63 528.573C1835.78 530.699 1837.66 532.34 1839.93 533.201L1838.84 538.167L1835.02 537.228C1834.62 537.145 1834.2 537.221 1833.85 537.442C1833.51 537.662 1833.26 538.009 1833.16 538.409C1833.06 538.809 1833.13 539.232 1833.34 539.586C1833.55 539.941 1833.88 540.201 1834.28 540.31L1838.16 541.248L1837.05 546.285L1832.59 545.198C1832.39 545.142 1832.17 545.127 1831.96 545.155C1831.75 545.183 1831.55 545.253 1831.36 545.36C1831.18 545.468 1831.02 545.612 1830.9 545.783C1830.77 545.954 1830.68 546.148 1830.63 546.355C1830.58 546.562 1830.57 546.776 1830.6 546.986C1830.64 547.196 1830.72 547.396 1830.83 547.576C1830.94 547.756 1831.09 547.911 1831.27 548.032C1831.44 548.152 1831.64 548.237 1831.85 548.28L1836.39 549.382L1834.61 557.562L1824.48 555.344C1823.4 555.099 1822.44 554.477 1821.78 553.588C1821.12 552.7 1820.79 551.605 1820.87 550.5L1820.87 550.494Z" fill="#D5AB52"/>
<path d="M1849.54 495.718L1835.5 559.957" stroke="#987733" stroke-width="5"/>
<path d="M1835.58 526.167L1851.89 527.228M1830.6 543.739L1847.06 544.251" stroke="#987733" stroke-width="5"/>
</g>
<g clip-path="url(#clip1_46_90)">
<path d="M1651.19 558.587C1653.03 558.925 1654.92 558.596 1656.53 557.661L1666.86 551.604L1676.07 546.197C1677.67 545.245 1678.88 543.751 1679.47 541.984C1680.07 540.217 1680.01 538.295 1679.31 536.566L1664.57 500.579L1664.47 500.323L1635.85 430.528C1634.94 428.296 1633.21 426.495 1631.02 425.496C1628.82 424.498 1626.33 424.377 1624.05 425.158C1621.77 425.94 1619.88 427.565 1618.76 429.699C1617.64 431.834 1617.38 434.316 1618.03 436.636L1633.95 492.865C1633.44 493.036 1632.94 493.261 1632.47 493.537C1631.9 493.872 1631.37 494.278 1630.9 494.745L1588.62 453.883C1587.51 452.778 1586.15 451.966 1584.65 451.52C1583.15 451.074 1581.56 451.007 1580.03 451.326C1578.5 451.644 1577.07 452.339 1575.88 453.346C1574.68 454.353 1573.75 455.642 1573.18 457.097C1572.95 457.665 1572.79 458.255 1572.68 458.857C1572.43 460.189 1572.48 461.559 1572.81 462.873C1573.14 464.186 1573.75 465.413 1574.6 466.469L1646.5 555.837C1647.69 557.284 1649.35 558.26 1651.19 558.587ZM1643.15 496.322C1642.52 495.261 1641.65 494.365 1640.61 493.706C1639.56 493.047 1638.38 492.645 1637.15 492.532L1621.1 435.766C1620.69 434.233 1620.88 432.603 1621.63 431.203C1622.37 429.804 1623.62 428.74 1625.12 428.227C1626.63 427.714 1628.27 427.79 1629.71 428.439C1631.16 429.088 1632.31 430.263 1632.92 431.725L1676.39 537.765C1676.8 538.787 1676.84 539.923 1676.48 540.968C1676.13 542.013 1675.42 542.897 1674.47 543.459L1666.61 548.067L1662.39 540.915L1666.22 538.767C1666.4 538.668 1666.57 538.532 1666.7 538.369C1666.83 538.205 1666.93 538.016 1666.99 537.814C1667.05 537.612 1667.07 537.399 1667.04 537.19C1667.02 536.98 1666.95 536.778 1666.85 536.594C1666.75 536.409 1666.61 536.247 1666.44 536.117C1666.28 535.987 1666.09 535.892 1665.88 535.837C1665.68 535.783 1665.47 535.769 1665.26 535.797C1665.05 535.826 1664.85 535.895 1664.67 536.002L1660.78 538.18L1658.17 533.739L1662.57 531.279C1662.76 531.181 1662.92 531.047 1663.06 530.884C1663.2 530.72 1663.3 530.53 1663.36 530.326C1663.43 530.122 1663.45 529.908 1663.42 529.696C1663.4 529.484 1663.34 529.278 1663.23 529.091C1663.13 528.904 1662.99 528.74 1662.82 528.609C1662.65 528.478 1662.45 528.383 1662.25 528.329C1662.04 528.275 1661.82 528.263 1661.61 528.295C1661.4 528.327 1661.2 528.401 1661.02 528.513L1656.55 531.012L1653.91 526.561C1655.28 525.407 1656.32 523.911 1656.92 522.226C1657.53 520.54 1657.67 518.725 1657.34 516.965C1657.01 515.205 1656.23 513.563 1655.06 512.207C1653.89 510.851 1652.38 509.829 1650.69 509.244C1648.41 508.459 1645.92 508.509 1643.67 509.385L1641.69 506.035C1643.02 504.832 1643.89 503.209 1644.15 501.439C1644.42 499.67 1644.07 497.862 1643.16 496.321L1643.15 496.322ZM1641.39 522.314C1640.82 521.326 1640.5 520.211 1640.46 519.069C1640.42 517.928 1640.66 516.793 1641.16 515.767C1641.66 514.741 1642.41 513.854 1643.34 513.184C1644.26 512.515 1645.34 512.084 1646.47 511.929C1647.6 511.774 1648.76 511.9 1649.83 512.296C1650.9 512.691 1651.86 513.345 1652.62 514.199C1653.38 515.053 1653.91 516.08 1654.18 517.191C1654.45 518.301 1654.44 519.461 1654.15 520.567C1654.08 520.842 1653.99 521.112 1653.89 521.377C1653.32 522.811 1652.29 524.013 1650.96 524.79C1649.36 525.719 1647.46 525.981 1645.68 525.518C1643.89 525.055 1642.36 523.906 1641.42 522.32L1641.39 522.314ZM1637.58 495.779C1638.77 496.088 1639.78 496.851 1640.4 497.902C1640.71 498.423 1640.91 499 1641 499.599C1641.08 500.199 1641.05 500.809 1640.89 501.395C1640.74 501.981 1640.47 502.531 1640.11 503.014C1639.74 503.497 1639.29 503.902 1638.76 504.208C1638.11 504.596 1637.37 504.817 1636.61 504.851C1635.85 504.885 1635.09 504.731 1634.41 504.402C1633.72 504.073 1633.13 503.579 1632.68 502.966C1632.23 502.352 1631.94 501.637 1631.83 500.883C1631.73 500.13 1631.81 499.362 1632.07 498.648C1632.33 497.934 1632.77 497.296 1633.33 496.79C1633.9 496.284 1634.59 495.926 1635.32 495.748C1636.06 495.57 1636.84 495.578 1637.57 495.77L1637.58 495.779ZM1649 553.819L1577.09 464.482C1576.09 463.233 1575.61 461.65 1575.75 460.058C1575.88 458.466 1576.62 456.985 1577.81 455.92C1579 454.855 1580.56 454.286 1582.15 454.33C1583.75 454.374 1585.27 455.028 1586.4 456.157L1629.14 497.492C1629.03 497.757 1628.95 498.028 1628.87 498.303C1628.62 499.293 1628.56 500.325 1628.7 501.338C1628.84 502.351 1629.19 503.326 1629.71 504.205C1630.62 505.746 1632.04 506.927 1633.72 507.55C1635.4 508.174 1637.24 508.202 1638.93 507.631L1640.91 510.985C1639.05 512.531 1637.8 514.692 1637.39 517.078C1636.98 519.464 1637.44 521.918 1638.68 523.996C1639.93 526.074 1641.87 527.639 1644.16 528.409C1646.46 529.179 1648.95 529.104 1651.2 528.196L1653.78 532.575L1650.34 534.483C1649.99 534.696 1649.74 535.037 1649.63 535.435C1649.53 535.833 1649.58 536.257 1649.78 536.616C1649.98 536.975 1650.32 537.242 1650.71 537.359C1651.11 537.477 1651.53 537.437 1651.9 537.248L1655.38 535.298L1657.99 539.741L1653.98 541.98C1653.79 542.078 1653.63 542.213 1653.49 542.376C1653.36 542.54 1653.25 542.73 1653.19 542.933C1653.13 543.137 1653.11 543.351 1653.14 543.562C1653.16 543.774 1653.23 543.978 1653.33 544.163C1653.43 544.349 1653.57 544.512 1653.74 544.642C1653.91 544.772 1654.1 544.867 1654.31 544.921C1654.51 544.975 1654.73 544.988 1654.94 544.957C1655.15 544.927 1655.35 544.855 1655.53 544.745L1659.61 542.464L1663.87 549.671L1654.94 554.936C1653.98 555.492 1652.85 555.687 1651.76 555.486C1650.67 555.285 1649.69 554.701 1649 553.84L1649 553.819Z" fill="#D5AB52"/>
<path d="M1666.85 536.599C1666.75 536.414 1666.61 536.252 1666.44 536.122C1666.28 535.992 1666.09 535.896 1665.88 535.842C1665.68 535.787 1665.47 535.774 1665.26 535.802C1665.05 535.83 1664.85 535.9 1664.66 536.006L1660.78 538.185L1658.17 533.743L1662.57 531.283C1662.76 531.186 1662.92 531.051 1663.06 530.888C1663.2 530.724 1663.3 530.535 1663.36 530.331C1663.42 530.127 1663.44 529.912 1663.42 529.7C1663.4 529.488 1663.34 529.282 1663.23 529.096C1663.13 528.909 1662.99 528.745 1662.82 528.614C1662.65 528.483 1662.45 528.387 1662.25 528.333C1662.04 528.279 1661.82 528.268 1661.61 528.299C1661.4 528.331 1661.2 528.405 1661.01 528.518L1656.55 531.016L1653.91 526.566C1655.28 525.412 1656.32 523.916 1656.92 522.23C1657.52 520.544 1657.67 518.729 1657.34 516.969C1657.01 515.209 1656.23 513.568 1655.06 512.211C1653.89 510.855 1652.38 509.833 1650.69 509.249C1648.41 508.463 1645.92 508.513 1643.67 509.389L1641.69 506.039C1642.81 505.024 1643.61 503.705 1643.99 502.243C1644.37 500.781 1644.32 499.239 1643.84 497.807C1643.35 496.375 1642.47 495.113 1641.28 494.177C1640.1 493.241 1638.66 492.67 1637.16 492.535L1621.1 435.767C1620.69 434.234 1620.88 432.603 1621.63 431.204C1622.37 429.804 1623.62 428.741 1625.13 428.228C1626.63 427.715 1628.27 427.79 1629.71 428.44C1631.16 429.089 1632.31 430.263 1632.92 431.725L1676.39 537.766C1676.8 538.787 1676.84 539.924 1676.48 540.969C1676.13 542.013 1675.42 542.897 1674.47 543.459L1666.62 548.067L1662.39 540.915L1666.22 538.767C1666.4 538.668 1666.57 538.533 1666.7 538.369C1666.83 538.205 1666.93 538.017 1666.99 537.814C1667.05 537.612 1667.07 537.4 1667.04 537.19C1667.02 536.981 1666.95 536.778 1666.85 536.595L1666.85 536.599Z" fill="#D5AB52"/>
<path d="M1641.39 522.315C1640.82 521.326 1640.5 520.212 1640.46 519.07C1640.42 517.928 1640.66 516.794 1641.16 515.768C1641.66 514.741 1642.41 513.854 1643.34 513.185C1644.26 512.515 1645.34 512.084 1646.47 511.929C1647.6 511.774 1648.76 511.9 1649.83 512.296C1650.9 512.692 1651.86 513.346 1652.62 514.199C1653.38 515.053 1653.91 516.081 1654.18 517.191C1654.45 518.302 1654.44 519.461 1654.15 520.567C1654.08 520.842 1653.99 521.113 1653.89 521.377C1653.32 522.811 1652.29 524.013 1650.96 524.791C1649.36 525.72 1647.46 525.981 1645.68 525.519C1643.89 525.056 1642.36 523.906 1641.42 522.32L1641.39 522.315Z" fill="#D5AB52"/>
<path d="M1632.45 502.59C1631.83 501.532 1631.66 500.273 1631.97 499.088C1632.28 497.903 1633.05 496.89 1634.11 496.272C1635.16 495.654 1636.42 495.481 1637.61 495.792C1638.79 496.103 1639.81 496.871 1640.42 497.929C1640.73 498.45 1640.93 499.027 1641.02 499.627C1641.1 500.226 1641.07 500.836 1640.91 501.422C1640.76 502.008 1640.5 502.559 1640.13 503.041C1639.77 503.524 1639.31 503.93 1638.79 504.235C1637.73 504.852 1636.46 505.025 1635.28 504.716C1634.09 504.407 1633.08 503.641 1632.45 502.586L1632.45 502.59Z" fill="#D5AB52"/>
<path d="M1648.99 553.835L1577.09 464.483C1576.09 463.233 1575.61 461.65 1575.75 460.058C1575.88 458.466 1576.62 456.986 1577.81 455.921C1579 454.856 1580.56 454.287 1582.15 454.331C1583.75 454.375 1585.27 455.028 1586.4 456.157L1629.14 497.492C1629.03 497.757 1628.95 498.028 1628.88 498.304C1628.62 499.294 1628.56 500.325 1628.7 501.338C1628.84 502.352 1629.19 503.326 1629.71 504.205C1630.62 505.746 1632.04 506.927 1633.72 507.551C1635.4 508.174 1637.24 508.203 1638.94 507.631L1640.91 510.985C1639.05 512.531 1637.8 514.693 1637.39 517.079C1636.98 519.465 1637.44 521.918 1638.68 523.996C1639.93 526.074 1641.87 527.639 1644.16 528.41C1646.46 529.18 1648.95 529.104 1651.2 528.196L1653.78 532.575L1650.34 534.483C1649.99 534.696 1649.74 535.038 1649.63 535.436C1649.53 535.834 1649.58 536.257 1649.78 536.616C1649.98 536.975 1650.32 537.242 1650.71 537.36C1651.11 537.478 1651.53 537.438 1651.9 537.248L1655.38 535.298L1657.99 539.741L1653.98 541.98C1653.79 542.078 1653.63 542.213 1653.49 542.377C1653.36 542.541 1653.25 542.73 1653.19 542.934C1653.13 543.137 1653.11 543.351 1653.14 543.563C1653.16 543.774 1653.23 543.978 1653.33 544.164C1653.43 544.349 1653.57 544.512 1653.74 544.642C1653.91 544.772 1654.1 544.867 1654.31 544.922C1654.51 544.976 1654.73 544.988 1654.94 544.958C1655.15 544.928 1655.35 544.855 1655.53 544.745L1659.61 542.464L1663.87 549.672L1654.94 554.937C1653.98 555.492 1652.85 555.687 1651.76 555.486C1650.67 555.285 1649.69 554.701 1649 553.84L1648.99 553.835Z" fill="#D5AB52"/>
<path d="M1632.75 494.18L1666.15 550.821" stroke="#987733" stroke-width="5"/>
<path d="M1643.23 525.999L1655.9 515.683M1651.53 542.265L1663.95 531.441" stroke="#987733" stroke-width="5"/>
</g>
<path d="M1752 788.5C1752 790.985 1749.99 793 1747.5 793C1745.01 793 1743 790.985 1743 788.5C1743 786.015 1745.01 784 1747.5 784C1749.99 784 1752 786.015 1752 788.5Z" fill="#5D0E14"/>
<defs>
<clipPath id="clip0_46_90">
<rect width="116.552" height="130.027" fill="white" transform="translate(1932.96 523.408) rotate(154.398)"/>
</clipPath>
<clipPath id="clip1_46_90">
<rect width="116.552" height="130.027" fill="white" transform="translate(1712.73 457.731) rotate(111.536)"/>
</clipPath>
</defs>
</svg>
