<svg width="1204" height="1104" viewBox="0 0 1204 1104" fill="none" xmlns="http://www.w3.org/2000/svg">
<path d="M1201 10C809.68 125 409.68 224 1 239.9" stroke="#5D0E14" stroke-width="20"/>
<path d="M25.6899 247H1.68994V1104H25.6899V247Z" fill="#5D0E14"/>
<path d="M32.1802 1043H622.18C630.269 1043 638.027 1046.21 643.747 1051.93C649.467 1057.65 652.68 1065.41 652.68 1073.5C652.681 1077.51 651.893 1081.47 650.361 1085.17C648.829 1088.87 646.582 1092.24 643.75 1095.07C640.917 1097.9 637.555 1100.15 633.854 1101.68C630.152 1103.21 626.186 1104 622.18 1104H32.1802C24.0911 1104 16.3333 1100.79 10.6134 1095.07C4.89354 1089.35 1.68018 1081.59 1.68018 1073.5C1.68283 1065.41 4.89705 1057.66 10.6163 1051.94C16.3356 1046.22 24.0919 1043 32.1802 1043Z" fill="#5D0E14"/>
<path d="M257.828 480.21L251.928 505.7C251.928 505.7 427.238 503.7 540.668 503.78C540.9 502.796 541.333 501.87 541.938 501.06C542.363 500.51 542.902 500.06 543.519 499.74C544.135 499.421 544.814 499.24 545.508 499.21H547.418C547.776 498.754 548.231 498.383 548.75 498.126C549.269 497.868 549.839 497.729 550.418 497.72C562.208 497.65 573.948 496.42 585.688 495.09C596.608 493.85 607.768 493.09 618.688 491.3C632.528 489.03 645.638 483.03 657.908 477.21C670.038 467.11 667.688 457.6 667.688 457.6C584.618 504.79 445.828 474.79 257.828 480.21Z" fill="#EFE3E4"/>
<path d="M667.058 410.052C658.248 394.452 644.798 384.052 628.888 377.442C616.008 372.112 602.888 367.442 589.728 363.072C576.568 358.702 563.668 353.252 550.338 349.352C525.918 340.585 501.285 332.512 476.438 325.132C467.32 322.817 458.549 319.299 450.358 314.672C439.738 308.152 437.948 298.312 444.708 287.542C447.254 283.526 450.37 279.901 453.958 276.782C459.608 271.862 464.598 266.262 469.898 260.882C495.058 235.692 500.458 185.992 477.188 161.512C471.03 154.945 463.553 149.755 455.248 146.282C442.065 140.619 427.38 139.473 413.478 143.022C391.748 148.622 375.478 162.212 365.908 184.732C362.054 194.679 359.976 205.226 359.768 215.892C359.298 224.662 365.268 233.782 371.768 235.422C379.308 237.062 382.858 235.482 386.768 228.512C388.338 225.334 389.51 221.976 390.258 218.512C391.948 212.322 392.348 205.812 394.258 199.672C400.548 180.032 428.148 173.092 442.078 187.672C444.158 189.412 446.238 191.152 448.158 193.042C448.854 193.136 449.516 193.403 450.082 193.819C450.648 194.235 451.1 194.786 451.398 195.422C453.088 198.642 455.628 201.272 457.088 204.622C457.786 206.229 458.315 207.905 458.668 209.622C462.098 219.762 457.478 227.112 451.608 234.162C443.348 244.162 433.078 251.732 424.608 261.632C404.098 285.692 404.898 319.782 427.278 341.712C431.778 346.132 437.278 348.902 442.278 352.522C442.847 352.79 443.362 353.159 443.798 353.612C444.028 353.842 444.278 354.042 444.518 354.252C444.758 354.462 444.858 354.512 445.018 354.652V354.752C448.358 357.562 452.538 359.252 456.368 361.372C472.868 367.372 489.368 373.522 505.868 379.572C530.088 388.502 554.508 396.852 578.578 406.242C592.348 411.592 606.578 415.522 619.698 422.922C621.849 423.815 623.816 425.1 625.498 426.712C632.088 431.772 636.008 443.712 632.498 451.712C629.688 458.092 622.948 458.712 617.008 459.492C614.527 459.7 612.035 459.743 609.548 459.622H556.308C550.538 459.275 544.748 459.519 539.028 460.352C535.329 461.36 531.909 463.201 529.028 465.732C524.708 469.372 522.418 476.602 524.028 481.312C526.028 486.992 530.498 488.312 535.468 488.742H538.548C563.548 488.742 588.548 489.172 613.418 488.582C628.724 488.525 643.653 483.832 656.238 475.122C664.768 469.122 671.678 461.802 672.948 450.122C673.168 448.122 673.398 446.122 673.668 444.122C675.229 432.348 672.908 420.387 667.058 410.052V410.052Z" fill="#FFFEFF"/>
<path d="M385.388 309.88C382.464 308.81 379.351 308.355 376.243 308.545C373.135 308.734 370.1 309.563 367.328 310.98C338.068 323.36 308.878 335.98 279.508 348.09C254.248 358.47 229.128 368.65 204.508 380.38C190.508 387.13 179.508 398.14 174.268 414.04C170.733 424.249 169.371 435.084 170.268 445.85C171.15 456.555 174.285 466.952 179.468 476.36C184.858 485.72 192.868 489.6 202.818 489.6C227.078 489.76 251.328 489.6 275.598 489.6C277.47 489.796 279.356 489.385 280.978 488.43C282.66 487.441 284.008 485.971 284.848 484.21L293.848 464.11C291.848 462.11 289.598 462.77 287.378 463.01C267.378 463.01 247.468 462.88 227.578 463.01C224.352 463.174 221.169 462.209 218.578 460.28C216.813 458.97 215.347 457.3 214.278 455.38C213.557 454.769 212.888 454.101 212.278 453.38C205.978 445.67 206.218 434.76 211.888 426.83C212.034 426.629 212.195 426.439 212.368 426.26C213.288 422.73 215.958 420.66 218.368 418.39C234.008 403.73 253.008 395.98 271.958 388.31C301.548 376.31 331.358 364.95 360.078 350.64C369.758 346.214 378.458 339.901 385.668 332.07C394.338 322.12 393.688 315.79 385.388 309.88Z" fill="#FEFCFC"/>
<path d="M382.878 351.21C374.938 354.21 366.808 356.59 359.148 360.21C335.828 371.21 311.738 379.85 288.208 390.13C273.938 396.35 259.838 403.05 245.398 408.7C232.958 413.54 220.798 418.49 210.578 427.78C211.028 418.09 218.838 414.89 224.478 410.31C237.988 399.41 253.678 392.93 269.238 386.71C299.348 374.71 329.538 362.95 358.758 348.71C367.681 344.327 375.874 338.593 383.048 331.71C391.178 323.96 391.728 318.63 385.258 309.71C388.589 311.121 391.465 313.426 393.568 316.37C395.761 319.412 397.139 322.965 397.568 326.69C398.568 335.43 395.078 342.24 388.418 347.22C386.678 348.6 384.738 349.89 382.878 351.21Z" fill="#EEE3E2"/>
<path d="M548.848 347.98C542.675 345.68 536.491 343.407 530.298 341.16C522.908 339.22 515.738 336.56 508.358 334.58C501.788 332.82 495.188 331.13 488.718 329.01C478.538 325.68 468.518 321.32 460.168 314.65C459.298 314.11 458.438 313.56 457.568 313.03C448.418 307.38 447.498 299.47 454.958 290.8C463.238 283.8 470.428 275.52 478.378 268.17C488.615 258.341 495.565 245.59 498.278 231.66C498.248 231.237 498.248 230.813 498.278 230.39C498.278 223.02 498.468 215.62 498.278 208.25C498.13 199.373 496.166 190.62 492.508 182.53C488.952 174.629 483.733 167.589 477.208 161.89C477.454 162.93 477.823 163.937 478.308 164.89C491.838 185.55 492.758 207.78 485.568 231.08C479.948 249.27 467.438 261.54 454.568 273.49C448.763 278.35 443.977 284.311 440.488 291.03C438.515 295.064 437.979 299.65 438.968 304.03C439.894 308.319 442.323 312.136 445.818 314.79C451.048 318.705 456.943 321.643 463.218 323.46C485.298 330.62 507.358 337.77 529.608 344.07C536.548 346.07 542.988 349.88 550.448 349.88C549.948 349.25 549.518 348.22 548.848 347.98Z" fill="#EFE3E2"/>
<path d="M179.528 476.17C186.988 486.02 197.358 486.93 208.098 486.93H276.278C277.823 487.073 279.38 486.908 280.861 486.447C282.343 485.985 283.718 485.235 284.908 484.24C284.539 487.078 283.625 489.818 282.218 492.31C281.568 493.44 280.458 494.52 280.378 495.68C279.678 504.88 274.588 506.2 267.198 505.74C250.958 504.74 234.628 506.66 218.368 504.34C205.538 502.54 195.288 495.46 186.368 486.1C183.778 483.46 180.118 480.96 179.528 476.17Z" fill="#EFE3E4"/>
<path d="M392.918 197.46C390.388 205.88 389.088 214.71 386.848 223.24C384.468 232.24 380.238 235.53 371.688 235.88C374.392 237.411 377.455 238.195 380.562 238.151C383.669 238.107 386.708 237.237 389.368 235.63C392.115 233.98 394.412 231.679 396.058 228.93C397.762 226.092 398.788 222.899 399.058 219.6C399.398 216.42 399.368 213.09 399.838 209.91C399.783 209.64 399.75 209.366 399.738 209.09C399.398 201.01 405.408 193.5 412.428 190.09C412.749 189.939 413.084 189.818 413.428 189.73C422.598 183.63 432.728 183.31 443.628 187.37C432.228 172.54 399.358 176.15 392.918 197.46Z" fill="#F0E3E3"/>
<path d="M566.568 460.31L288.738 465.31L271.458 486.57L588.598 490.05L566.568 460.31Z" fill="white"/>
<path d="M430 186.317L439.184 185C447.231 189.976 450.921 193.216 455 200.366L439.184 203L430 186.317Z" fill="#5D0E14" stroke="#5D0E14" stroke-width="2"/>
<path d="M343 208C379.465 203.511 401.763 199.64 438 194" stroke="#5D0E14" stroke-width="20"/>
<path d="M560 587.4C560 622.557 560 653.619 529.195 672.051C522.095 676.188 514.496 679.399 506.581 681.608C482.221 687.782 457.12 690.539 432 689.8C406.88 690.539 381.779 687.782 357.419 681.608C349.504 679.399 341.905 676.188 334.805 672.051C304 653.619 304 622.557 304 587.4C304 540.125 344.021 500.36 398.379 488.584C409.428 486.208 420.698 485.007 432 485C438.017 484.994 444.028 485.336 450.005 486.024C512.128 493.021 560 535.688 560 587.4Z" fill="#F9F7E8"/>
<path d="M450.005 486.024C444.028 485.336 438.016 484.994 432 485C427.947 485 424.004 485.35 420.053 485.649C421.504 485.777 422.972 485.853 424.414 486.024C486.528 493.021 534.4 535.688 534.4 587.4C534.4 622.557 534.4 653.619 503.595 672.051C496.495 676.188 488.896 679.399 480.981 681.608C460.81 686.887 440.05 689.582 419.2 689.629C423.33 689.732 427.571 689.8 432 689.8C457.12 690.539 482.221 687.782 506.581 681.608C514.496 679.399 522.095 676.188 529.195 672.051C560 653.619 560 622.557 560 587.4C560 535.688 512.128 493.021 450.005 486.024Z" fill="#FBDDCF"/>
<path d="M560 587.4C560 622.557 560 653.619 529.195 672.051C522.095 676.188 514.496 679.399 506.581 681.608C482.221 687.782 457.12 690.539 432 689.8C406.88 690.539 381.779 687.782 357.419 681.608C349.504 679.399 341.905 676.188 334.805 672.051C304 653.619 304 622.557 304 587.4C304 540.125 344.021 500.36 398.379 488.584C409.428 486.208 420.698 485.007 432 485C438.017 484.994 444.028 485.336 450.005 486.024C512.128 493.021 560 535.688 560 587.4Z" stroke="#5D0E14" stroke-width="15"/>
<path d="M376.533 647.133C388.315 647.133 397.867 637.582 397.867 625.8C397.867 614.018 388.315 604.467 376.533 604.467C364.751 604.467 355.2 614.018 355.2 625.8C355.2 637.582 364.751 647.133 376.533 647.133Z" fill="#FDFDFF"/>
<path d="M487.467 647.133C499.249 647.133 508.8 637.582 508.8 625.8C508.8 614.018 499.249 604.467 487.467 604.467C475.685 604.467 466.133 614.018 466.133 625.8C466.133 637.582 475.685 647.133 487.467 647.133Z" fill="#FDFDFF"/>
<path d="M346.667 647.133C346.667 651.846 350.487 655.667 355.2 655.667H397.867C402.579 655.667 406.4 651.846 406.4 647.133C406.365 644.317 404.915 641.706 402.543 640.187C405.037 635.8 406.364 630.847 406.4 625.8C406.4 609.305 393.028 595.933 376.533 595.933C360.038 595.933 346.667 609.305 346.667 625.8C346.702 630.847 348.03 635.8 350.524 640.187C348.151 641.706 346.702 644.317 346.667 647.133ZM376.533 613C383.602 613 389.333 618.731 389.333 625.8C389.333 632.869 383.602 638.6 376.533 638.6C369.464 638.6 363.733 632.869 363.733 625.8C363.733 618.731 369.464 613 376.533 613Z" fill="#5D0E14"/>
<path d="M457.6 647.133C457.6 651.846 461.421 655.667 466.133 655.667H508.8C513.513 655.667 517.333 651.846 517.333 647.133C517.298 644.317 515.849 641.706 513.476 640.187C515.97 635.8 517.298 630.847 517.333 625.8C517.333 609.305 503.962 595.933 487.467 595.933C470.972 595.933 457.6 609.305 457.6 625.8C457.635 630.847 458.963 635.8 461.457 640.187C459.085 641.706 457.635 644.317 457.6 647.133ZM487.467 613C494.536 613 500.267 618.731 500.267 625.8C500.267 632.869 494.536 638.6 487.467 638.6C480.398 638.6 474.667 632.869 474.667 625.8C474.667 618.731 480.398 613 487.467 613Z" fill="#5D0E14"/>
<path d="M344.115 511.57C345.89 511.889 347.722 511.571 349.285 510.67L359.285 504.81L368.205 499.57C369.758 498.652 370.929 497.207 371.506 495.498C372.082 493.789 372.025 491.93 371.345 490.259L357.085 455.43L356.975 455.18L329.275 387.639C328.387 385.493 326.713 383.765 324.596 382.809C322.478 381.853 320.076 381.74 317.878 382.493C315.68 383.247 313.852 384.81 312.766 386.864C311.681 388.918 311.419 391.309 312.035 393.55L327.445 447.96C326.948 448.129 326.469 448.346 326.015 448.609C325.46 448.936 324.946 449.329 324.485 449.78L283.575 410.239C282.504 409.171 281.183 408.385 279.733 407.953C278.283 407.521 276.748 407.456 275.266 407.765C273.784 408.073 272.403 408.745 271.245 409.72C270.088 410.695 269.191 411.942 268.635 413.349C268.416 413.898 268.255 414.468 268.155 415.05C267.914 416.339 267.955 417.665 268.274 418.937C268.593 420.209 269.184 421.397 270.005 422.42L339.595 508.9C340.735 510.299 342.338 511.246 344.115 511.57V511.57ZM336.335 451.31C335.726 450.284 334.883 449.417 333.875 448.779C332.867 448.142 331.722 447.751 330.535 447.639L314.995 392.71C314.699 391.602 314.724 390.434 315.065 389.34C315.407 388.246 316.052 387.272 316.925 386.53C317.798 385.787 318.864 385.308 319.998 385.147C321.133 384.986 322.29 385.15 323.335 385.619C324.741 386.242 325.854 387.38 326.445 388.8L368.505 491.42C368.903 492.409 368.935 493.508 368.593 494.518C368.252 495.529 367.561 496.384 366.645 496.93L359.045 501.379L354.955 494.46L358.665 492.379C358.844 492.284 359.001 492.153 359.129 491.995C359.256 491.837 359.35 491.655 359.405 491.46C359.465 491.266 359.485 491.061 359.465 490.859C359.437 490.656 359.372 490.46 359.275 490.28C359.175 490.1 359.039 489.943 358.875 489.82C358.717 489.691 358.533 489.599 358.335 489.55C358.137 489.51 357.933 489.51 357.735 489.55C357.531 489.581 357.335 489.649 357.155 489.749L353.395 491.859L350.875 487.56L355.125 485.18C355.307 485.084 355.47 484.955 355.605 484.8C355.734 484.639 355.833 484.456 355.895 484.259C355.954 484.062 355.975 483.855 355.955 483.65C355.936 483.442 355.875 483.242 355.775 483.06C355.672 482.879 355.537 482.72 355.375 482.59C355.204 482.47 355.015 482.379 354.815 482.32C354.614 482.28 354.406 482.28 354.205 482.32C353.999 482.349 353.802 482.42 353.625 482.53L349.305 484.95L346.755 480.639C348.079 479.526 349.083 478.08 349.665 476.45C350.298 474.676 350.407 472.759 349.979 470.925C349.552 469.092 348.606 467.42 347.254 466.11C345.903 464.799 344.203 463.905 342.357 463.535C340.511 463.164 338.598 463.332 336.845 464.02L334.925 460.78C336.206 459.615 337.047 458.044 337.306 456.332C337.565 454.62 337.225 452.871 336.345 451.379L336.335 451.31ZM334.635 476.46C334.083 475.502 333.774 474.424 333.735 473.32C333.698 472.216 333.932 471.12 334.416 470.128C334.901 469.136 335.622 468.278 336.515 467.629C337.401 466.985 338.431 466.566 339.515 466.41C340.609 466.263 341.723 466.387 342.758 466.771C343.794 467.154 344.72 467.786 345.455 468.609C346.193 469.433 346.716 470.427 346.976 471.502C347.236 472.577 347.225 473.7 346.945 474.77C346.877 475.037 346.793 475.301 346.695 475.56C346.143 476.946 345.144 478.107 343.855 478.859C342.312 479.756 340.477 480.008 338.749 479.561C337.021 479.114 335.539 478.003 334.625 476.469L334.635 476.46ZM330.955 450.78C332.098 451.081 333.075 451.821 333.675 452.84C333.977 453.342 334.174 453.899 334.255 454.479C334.337 455.06 334.303 455.652 334.155 456.219C334.004 456.787 333.747 457.32 333.395 457.79C333.041 458.254 332.599 458.645 332.095 458.94C331.46 459.313 330.744 459.526 330.008 459.559C329.273 459.592 328.54 459.445 327.875 459.129C327.213 458.81 326.64 458.332 326.205 457.739C325.77 457.151 325.489 456.464 325.385 455.739C325.285 455.011 325.364 454.27 325.615 453.58C325.866 452.888 326.285 452.269 326.835 451.78C327.388 451.295 328.05 450.952 328.765 450.78C329.477 450.6 330.223 450.6 330.935 450.78H330.955ZM341.955 506.95L272.365 420.499C271.398 419.292 270.931 417.76 271.058 416.219C271.186 414.677 271.899 413.243 273.052 412.212C274.204 411.18 275.707 410.628 277.254 410.671C278.8 410.713 280.271 411.346 281.365 412.44L322.725 452.44C322.627 452.698 322.543 452.962 322.475 453.229C322.224 454.187 322.167 455.186 322.306 456.166C322.445 457.146 322.778 458.089 323.285 458.94C324.165 460.432 325.532 461.576 327.157 462.179C328.782 462.782 330.564 462.807 332.205 462.249L334.125 465.499C332.293 466.99 331.061 469.09 330.653 471.416C330.246 473.741 330.691 476.136 331.906 478.16C333.122 480.184 335.027 481.702 337.271 482.435C339.516 483.167 341.949 483.066 344.125 482.15L346.625 486.389L343.295 488.239C342.958 488.449 342.712 488.778 342.605 489.16C342.507 489.545 342.561 489.953 342.755 490.3C342.95 490.648 343.272 490.906 343.655 491.02C343.844 491.079 344.044 491.099 344.241 491.081C344.439 491.062 344.63 491.003 344.805 490.91L348.165 489.03L350.705 493.33L346.825 495.489C346.64 495.585 346.477 495.718 346.345 495.879C346.214 496.039 346.115 496.222 346.055 496.42C346.009 496.62 346.009 496.829 346.055 497.03C346.075 497.233 346.136 497.43 346.235 497.609C346.338 497.787 346.473 497.943 346.635 498.07C346.798 498.197 346.985 498.289 347.185 498.34C347.384 498.395 347.593 498.408 347.798 498.379C348.002 498.35 348.199 498.278 348.375 498.17L352.315 495.96L356.435 502.96L347.795 508.05C346.867 508.587 345.778 508.775 344.724 508.581C343.67 508.386 342.72 507.822 342.045 506.989L341.955 506.95Z" fill="#D5AB52"/>
<path d="M359.275 490.29C359.175 490.11 359.039 489.953 358.875 489.83C358.715 489.701 358.532 489.606 358.335 489.55C358.137 489.51 357.933 489.51 357.735 489.55C357.53 489.572 357.333 489.636 357.155 489.739L353.395 491.849L350.865 487.55L355.125 485.17C355.312 485.081 355.476 484.951 355.605 484.79C355.736 484.631 355.835 484.447 355.895 484.25C355.955 484.052 355.976 483.845 355.955 483.64C355.9 483.243 355.692 482.884 355.375 482.64C355.209 482.512 355.018 482.42 354.815 482.369C354.614 482.325 354.406 482.325 354.205 482.369C353.999 482.399 353.802 482.47 353.625 482.58L349.305 484.989L346.755 480.69C347.746 479.854 348.561 478.831 349.154 477.679C349.747 476.526 350.105 475.268 350.209 473.976C350.312 472.684 350.158 471.385 349.756 470.153C349.353 468.921 348.711 467.781 347.865 466.8C346.737 465.482 345.276 464.49 343.635 463.93C341.424 463.172 339.016 463.218 336.835 464.06L334.925 460.82C336.006 459.836 336.778 458.559 337.146 457.144C337.514 455.729 337.462 454.237 336.996 452.852C336.531 451.466 335.672 450.245 334.525 449.339C333.377 448.433 331.991 447.881 330.535 447.749L314.995 392.82C314.582 391.33 314.754 389.739 315.475 388.372C316.197 387.005 317.413 385.965 318.876 385.466C320.339 384.966 321.937 385.044 323.344 385.685C324.751 386.325 325.861 387.478 326.445 388.91L368.505 491.53C368.905 492.519 368.938 493.618 368.597 494.629C368.255 495.64 367.563 496.495 366.645 497.04L359.045 501.489L354.955 494.57L358.665 492.489C358.844 492.394 359.002 492.263 359.129 492.105C359.256 491.947 359.35 491.765 359.405 491.57C359.465 491.376 359.485 491.171 359.465 490.969C359.437 490.766 359.372 490.57 359.275 490.39V490.29Z" fill="#D5AB52"/>
<path d="M334.635 476.46C334.083 475.502 333.774 474.424 333.735 473.32C333.698 472.216 333.931 471.12 334.416 470.128C334.901 469.136 335.621 468.278 336.515 467.63C337.401 466.985 338.431 466.566 339.515 466.41C340.609 466.263 341.723 466.387 342.758 466.771C343.794 467.154 344.72 467.786 345.455 468.61C346.193 469.433 346.716 470.427 346.976 471.502C347.236 472.577 347.225 473.7 346.945 474.77C346.877 475.037 346.793 475.301 346.695 475.56C346.143 476.946 345.143 478.108 343.855 478.86C342.311 479.756 340.477 480.009 338.749 479.561C337.021 479.114 335.539 478.003 334.625 476.47L334.635 476.46Z" fill="#D5AB52"/>
<path d="M325.985 457.379C325.538 456.616 325.327 455.736 325.381 454.853C325.434 453.969 325.748 453.121 326.284 452.417C326.819 451.712 327.552 451.182 328.389 450.894C329.226 450.606 330.129 450.573 330.985 450.8C331.838 451.026 332.606 451.498 333.193 452.158C333.78 452.818 334.16 453.636 334.285 454.509C334.367 455.087 334.333 455.675 334.185 456.239C333.886 457.386 333.146 458.368 332.125 458.969C331.099 459.565 329.879 459.731 328.731 459.431C327.583 459.131 326.6 458.39 325.995 457.369L325.985 457.379Z" fill="#D5AB52"/>
<path d="M341.995 506.969L272.405 420.499C271.438 419.292 270.971 417.76 271.099 416.219C271.226 414.677 271.94 413.243 273.092 412.212C274.244 411.18 275.748 410.628 277.294 410.671C278.84 410.713 280.311 411.346 281.405 412.44L322.765 452.44C322.667 452.698 322.583 452.962 322.515 453.229C322.264 454.187 322.207 455.186 322.346 456.166C322.485 457.146 322.818 458.089 323.325 458.94C324.205 460.432 325.572 461.576 327.197 462.179C328.822 462.782 330.604 462.807 332.245 462.249L334.165 465.499C332.333 466.99 331.101 469.09 330.693 471.416C330.286 473.741 330.731 476.136 331.946 478.16C333.162 480.184 335.067 481.702 337.311 482.435C339.556 483.167 341.989 483.066 344.165 482.149L346.665 486.389L343.345 488.239C343.005 488.446 342.758 488.775 342.656 489.159C342.553 489.543 342.603 489.952 342.795 490.3C342.99 490.648 343.313 490.906 343.695 491.019C343.884 491.079 344.084 491.099 344.281 491.081C344.479 491.062 344.67 491.003 344.845 490.91L348.205 489.029L350.745 493.33L346.865 495.489C346.68 495.585 346.517 495.718 346.385 495.879C346.254 496.039 346.155 496.222 346.095 496.42C346.05 496.62 346.05 496.829 346.095 497.029C346.115 497.233 346.176 497.43 346.275 497.609C346.378 497.787 346.513 497.943 346.675 498.07C346.838 498.197 347.025 498.289 347.225 498.34C347.424 498.395 347.633 498.408 347.838 498.379C348.043 498.35 348.239 498.278 348.415 498.17L352.355 495.96L356.475 502.96L347.835 508.05C346.907 508.587 345.819 508.775 344.764 508.581C343.71 508.386 342.76 507.822 342.085 506.989L341.995 506.969Z" fill="#D5AB52"/>
<path d="M326.275 449.24L358.595 504.05" stroke="#987733" stroke-width="5"/>
<path d="M344.445 495.76L356.445 485.29M336.415 480.03L348.675 470.03L336.415 480.03Z" stroke="#987733" stroke-width="5"/>
<path d="M503.524 509.231C504.604 510.684 506.168 511.702 507.934 512.101L519.234 514.591L529.334 516.821C531.097 517.204 532.939 516.941 534.525 516.081C536.11 515.22 537.334 513.818 537.974 512.131L551.204 476.901L551.304 476.651L576.944 408.301C577.765 406.121 577.721 403.708 576.822 401.559C575.923 399.409 574.235 397.685 572.106 396.739C569.976 395.793 567.566 395.697 565.368 396.471C563.17 397.245 561.351 398.83 560.284 400.901L534.564 451.271C534.087 451.051 533.587 450.883 533.074 450.771C532.447 450.632 531.805 450.571 531.164 450.591L528.074 393.771C528.011 392.258 527.574 390.784 526.804 389.481C525.64 387.517 523.784 386.06 521.6 385.396C519.417 384.731 517.064 384.908 515.004 385.891C514.47 386.145 513.964 386.453 513.494 386.811C512.437 387.589 511.563 388.589 510.934 389.741C510.306 390.892 509.931 392.164 509.834 393.471L502.014 504.201C501.906 506.004 502.441 507.786 503.524 509.231V509.231ZM538.814 459.781C539.062 458.611 539.035 457.399 538.734 456.241C538.428 455.089 537.852 454.026 537.054 453.141L563.054 402.301C563.772 400.944 564.98 399.911 566.432 399.412C567.884 398.912 569.472 398.983 570.874 399.611C572.278 400.231 573.39 401.366 573.984 402.781C574.582 404.193 574.625 405.779 574.104 407.221L535.104 511.051C534.737 512.045 534.028 512.875 533.104 513.391C532.165 513.898 531.077 514.054 530.034 513.831L521.424 511.931L523.134 504.071L527.264 505.071C527.465 505.111 527.672 505.111 527.874 505.071C528.074 505.039 528.267 504.971 528.444 504.871C528.621 504.768 528.774 504.628 528.894 504.461C529.13 504.127 529.23 503.716 529.174 503.311C529.136 503.109 529.062 502.916 528.954 502.741C528.844 502.571 528.705 502.423 528.544 502.301C528.374 502.184 528.184 502.099 527.984 502.051L523.794 501.051L524.864 496.181L529.604 497.331C529.805 497.371 530.012 497.371 530.214 497.331C530.419 497.307 530.617 497.239 530.794 497.131C530.976 497.023 531.134 496.878 531.258 496.706C531.382 496.534 531.469 496.338 531.514 496.131C531.554 495.926 531.554 495.716 531.514 495.511C531.475 495.31 531.4 495.117 531.294 494.941C531.181 494.767 531.034 494.617 530.862 494.5C530.691 494.383 530.497 494.302 530.294 494.261L525.484 493.091L526.544 488.201C528.275 488.287 529.997 487.911 531.535 487.111C533.072 486.312 534.37 485.117 535.294 483.651C536.065 482.429 536.557 481.051 536.735 479.617C536.913 478.183 536.771 476.727 536.322 475.353C535.872 473.98 535.124 472.722 534.132 471.671C533.14 470.62 531.929 469.8 530.584 469.271L531.384 465.591C533.116 465.612 534.802 465.035 536.158 463.956C537.513 462.878 538.455 461.364 538.824 459.671L538.814 459.781ZM520.524 477.051C520.772 475.975 521.28 474.975 522.003 474.141C522.727 473.306 523.644 472.66 524.674 472.261C525.703 471.86 526.817 471.722 527.914 471.861C529.011 471.995 530.059 472.397 530.964 473.032C531.869 473.667 532.604 474.515 533.104 475.501C533.859 476.99 534.034 478.706 533.596 480.317C533.159 481.928 532.138 483.319 530.734 484.221C530.494 484.361 530.254 484.501 530.004 484.621C528.658 485.26 527.138 485.433 525.684 485.111C523.946 484.723 522.432 483.665 521.469 482.168C520.507 480.67 520.174 478.853 520.544 477.111L520.524 477.051ZM535.294 455.721C535.927 456.723 536.142 457.933 535.894 459.091C535.771 459.663 535.533 460.205 535.194 460.681C534.862 461.163 534.437 461.574 533.944 461.89C533.451 462.206 532.9 462.421 532.324 462.521C531.749 462.636 531.158 462.636 530.584 462.521C529.864 462.366 529.194 462.036 528.633 461.56C528.072 461.084 527.637 460.476 527.367 459.792C527.097 459.107 527 458.366 527.085 457.635C527.17 456.904 527.434 456.206 527.854 455.601C528.273 454.996 528.837 454.504 529.494 454.171C530.149 453.834 530.878 453.666 531.615 453.681C532.352 453.697 533.073 453.896 533.714 454.261C534.354 454.622 534.896 455.133 535.294 455.751V455.721ZM505.184 504.411L512.984 393.701C513.05 392.541 513.453 391.426 514.141 390.49C514.83 389.554 515.775 388.839 516.863 388.43C517.95 388.021 519.133 387.937 520.268 388.187C521.402 388.438 522.439 389.012 523.254 389.841C524.362 390.92 525.01 392.385 525.064 393.931L528.174 451.381C527.925 451.499 527.685 451.632 527.454 451.781C526.621 452.3 525.9 452.98 525.334 453.781C524.763 454.592 524.365 455.51 524.164 456.481C523.796 458.175 524.021 459.944 524.802 461.491C525.583 463.039 526.873 464.271 528.454 464.981L527.644 468.661C525.299 468.529 522.984 469.241 521.12 470.668C519.255 472.096 517.964 474.144 517.48 476.443C516.996 478.741 517.352 481.136 518.483 483.194C519.614 485.252 521.444 486.837 523.644 487.661L522.644 492.471L518.944 491.561C518.555 491.483 518.15 491.557 517.815 491.77C517.479 491.982 517.239 492.316 517.144 492.701C517.053 493.089 517.114 493.497 517.314 493.841C517.411 494.013 517.542 494.163 517.698 494.283C517.854 494.403 518.033 494.491 518.224 494.541L521.974 495.451L520.914 500.321L516.594 499.321C516.392 499.282 516.185 499.282 515.984 499.321C515.778 499.347 515.581 499.415 515.404 499.521C515.225 499.622 515.071 499.762 514.954 499.931C514.83 500.095 514.741 500.283 514.693 500.482C514.645 500.682 514.638 500.889 514.674 501.091C514.703 501.294 514.774 501.488 514.884 501.661C514.992 501.838 515.139 501.988 515.314 502.101C515.482 502.219 515.672 502.301 515.874 502.341L520.264 503.411L518.544 511.331L508.744 509.181C507.696 508.947 506.767 508.345 506.125 507.485C505.482 506.624 505.17 505.562 505.244 504.491L505.184 504.411Z" fill="#D5AB52"/>
<path d="M529.144 503.951C529.183 503.75 529.183 503.543 529.144 503.341C529.114 503.139 529.043 502.944 528.934 502.771C528.823 502.599 528.68 502.45 528.514 502.331C528.35 502.211 528.162 502.129 527.964 502.091L523.774 501.091L524.844 496.221L529.584 497.371C529.784 497.416 529.993 497.416 530.194 497.371C530.398 497.344 530.596 497.276 530.774 497.171C530.951 497.069 531.107 496.933 531.234 496.771C531.354 496.602 531.442 496.412 531.494 496.211C531.538 496.01 531.538 495.802 531.494 495.601C531.461 495.395 531.386 495.197 531.274 495.021C531.163 494.849 531.02 494.7 530.854 494.581C530.681 494.464 530.488 494.383 530.284 494.341L525.474 493.181L526.534 488.281C527.827 488.34 529.12 488.143 530.338 487.7C531.555 487.257 532.672 486.578 533.626 485.701C534.58 484.825 535.351 483.768 535.894 482.593C536.438 481.417 536.743 480.146 536.794 478.851C536.865 476.818 536.304 474.813 535.188 473.111C534.072 471.41 532.457 470.096 530.564 469.351L531.374 465.681C532.837 465.706 534.278 465.31 535.524 464.541C536.446 463.953 537.228 463.17 537.817 462.248C538.406 461.326 538.787 460.287 538.934 459.203C539.08 458.119 538.989 457.016 538.666 455.971C538.343 454.926 537.796 453.964 537.064 453.151L563.064 402.311C563.789 400.959 564.995 399.927 566.444 399.421C567.526 399.051 568.692 398.995 569.805 399.259C570.919 399.522 571.935 400.096 572.737 400.912C573.538 401.728 574.093 402.755 574.337 403.873C574.58 404.991 574.503 406.155 574.114 407.231L535.114 511.061C534.747 512.055 534.038 512.885 533.114 513.401C532.175 513.908 531.087 514.064 530.044 513.841L521.434 511.941L523.144 504.081L527.274 505.081C527.475 505.121 527.682 505.121 527.884 505.081C528.085 505.054 528.279 504.986 528.454 504.881C528.631 504.778 528.784 504.638 528.904 504.471C529.023 504.306 529.108 504.119 529.154 503.921L529.144 503.951Z" fill="#D5AB52"/>
<path d="M520.524 477.051C520.773 475.975 521.281 474.976 522.004 474.141C522.725 473.304 523.642 472.658 524.674 472.261C525.703 471.86 526.817 471.722 527.914 471.861C529.011 471.995 530.059 472.397 530.964 473.032C531.869 473.667 532.604 474.515 533.104 475.501C533.859 476.99 534.034 478.706 533.596 480.317C533.158 481.928 532.138 483.319 530.734 484.221C530.494 484.361 530.254 484.501 530.004 484.621C528.658 485.26 527.138 485.432 525.684 485.111C523.946 484.723 522.432 483.665 521.469 482.168C520.507 480.67 520.174 478.853 520.544 477.111L520.524 477.051Z" fill="#D5AB52"/>
<path d="M527.123 457.181C527.26 456.529 527.54 455.916 527.943 455.386C528.347 454.856 528.864 454.424 529.456 454.119C530.048 453.815 530.701 453.647 531.367 453.627C532.033 453.607 532.694 453.737 533.304 454.005C533.913 454.274 534.454 454.676 534.889 455.181C535.323 455.686 535.639 456.281 535.813 456.924C535.987 457.567 536.016 458.24 535.897 458.896C535.778 459.551 535.513 460.171 535.123 460.711C534.795 461.197 534.369 461.609 533.873 461.921C533.381 462.237 532.83 462.451 532.253 462.551C531.676 462.671 531.081 462.671 530.503 462.551C529.345 462.293 528.336 461.586 527.699 460.584C527.061 459.583 526.847 458.37 527.103 457.211L527.123 457.181Z" fill="#D5AB52"/>
<path d="M505.134 504.421L512.944 393.701C513.01 392.541 513.412 391.426 514.101 390.49C514.79 389.554 515.735 388.839 516.823 388.43C517.91 388.021 519.093 387.937 520.228 388.187C521.362 388.438 522.399 389.013 523.214 389.841C524.321 390.92 524.97 392.386 525.024 393.931L528.134 451.381C527.885 451.499 527.645 451.632 527.414 451.781C526.581 452.3 525.86 452.98 525.294 453.781C524.723 454.592 524.325 455.511 524.124 456.481C523.756 458.175 523.981 459.944 524.762 461.491C525.543 463.039 526.832 464.271 528.414 464.981L527.604 468.661C525.259 468.529 522.944 469.241 521.08 470.668C519.215 472.096 517.924 474.145 517.44 476.443C516.956 478.741 517.312 481.136 518.443 483.194C519.573 485.252 521.404 486.837 523.604 487.661L522.604 492.471L518.904 491.561C518.514 491.483 518.11 491.557 517.775 491.77C517.439 491.982 517.199 492.316 517.104 492.701C517.013 493.089 517.073 493.497 517.274 493.841C517.371 494.013 517.502 494.163 517.658 494.283C517.814 494.403 517.993 494.491 518.184 494.541L521.934 495.451L520.874 500.321L516.554 499.321C516.352 499.282 516.145 499.282 515.944 499.321C515.74 499.352 515.543 499.419 515.364 499.521C515.184 499.622 515.031 499.762 514.914 499.931C514.789 500.095 514.698 500.283 514.649 500.483C514.599 500.683 514.591 500.891 514.625 501.094C514.658 501.297 514.733 501.492 514.845 501.665C514.956 501.838 515.102 501.987 515.274 502.101C515.441 502.219 515.632 502.301 515.834 502.341L520.224 503.411L518.504 511.331L508.704 509.181C507.656 508.947 506.727 508.345 506.085 507.485C505.442 506.624 505.13 505.562 505.204 504.491L505.134 504.421Z" fill="#D5AB52"/>
<path d="M532.873 451.411L519.283 513.541" stroke="#987733" stroke-width="5"/>
<path d="M514.543 497.881L530.473 498.381M519.363 480.881L535.143 481.881L519.363 480.881Z" stroke="#987733" stroke-width="5"/>
<path d="M520.045 745.637C520.352 750.766 519.507 755.897 517.571 760.656C516.725 762.986 515.578 765.195 514.157 767.227C512.257 770.051 509.891 772.533 507.16 774.565C491.497 784.908 473.27 790.698 454.509 791.291C448.536 791.803 442.136 792.059 435.053 792.059C427.971 792.059 421.571 791.803 415.597 791.291C396.837 790.698 378.61 784.908 362.947 774.565C360.216 772.533 357.85 770.051 355.949 767.227C354.529 765.195 353.381 762.986 352.536 760.656C350.6 755.897 349.755 750.766 350.061 745.637C350.802 726.683 354.309 707.939 360.472 690C384.833 696.173 409.933 698.931 435.053 698.192C460.173 698.931 485.274 696.173 509.635 690C515.798 707.939 519.305 726.683 520.045 745.637Z" fill="#FEBCC7"/>
<path d="M509.635 690C501.756 692.245 493.729 693.933 485.613 695.052C490.747 711.457 493.716 728.463 494.445 745.637C494.752 750.766 493.907 755.897 491.971 760.656C491.125 762.986 489.978 765.195 488.557 767.227C486.657 770.051 484.291 772.533 481.56 774.565C465.897 784.908 447.67 790.698 428.909 791.291C426.776 791.47 424.506 791.581 422.253 791.7C426.307 791.914 430.505 792.059 435.053 792.059C442.136 792.059 448.536 791.803 454.509 791.291C473.27 790.698 491.497 784.908 507.16 774.565C509.891 772.533 512.257 770.051 514.157 767.227C515.578 765.195 516.725 762.986 517.571 760.656C519.507 755.897 520.352 750.766 520.045 745.637C519.305 726.683 515.798 707.939 509.635 690V690Z" fill="#FC8EA0"/>
<path d="M520.045 745.637C520.352 750.766 519.507 755.897 517.571 760.656C516.725 762.986 515.578 765.195 514.157 767.227C512.257 770.051 509.891 772.533 507.16 774.565C491.497 784.908 473.27 790.698 454.509 791.291C448.536 791.803 442.136 792.059 435.053 792.059C427.971 792.059 421.571 791.803 415.597 791.291C396.837 790.698 378.61 784.908 362.947 774.565C360.216 772.533 357.85 770.051 355.949 767.227C354.529 765.195 353.381 762.986 352.536 760.656C350.6 755.897 349.755 750.766 350.061 745.637C350.802 726.683 354.309 707.939 360.472 690C384.833 696.173 409.933 698.931 435.053 698.192C460.173 698.931 485.274 696.173 509.635 690C515.798 707.939 519.305 726.683 520.045 745.637Z" stroke="#5D0E14" stroke-width="15"/>
<circle cx="435.5" cy="762.336" r="4.5" fill="#5D0E14"/>
<path d="M313.055 740.103C309.766 744.05 307.403 748.683 306.139 753.663C276.555 750.945 270.144 737.636 270.924 725.068C272.281 711.498 280.69 699.647 293.051 693.885C308.13 685.812 324.817 681.198 341.901 680.378C345.163 687.92 349.376 695.013 354.438 701.486C338.836 712.273 324.894 725.283 313.055 740.103Z" fill="#FEBCC7" stroke="#5D0E14" stroke-width="15"/>
<path d="M596.681 728.882C596.482 741.473 589.056 754.244 559.35 754.653C558.477 749.591 556.481 744.788 553.509 740.598C542.858 724.902 529.969 710.848 515.252 698.88C520.802 692.821 525.553 686.076 529.392 678.811C546.361 680.956 562.639 686.853 577.045 696.074C588.92 702.78 596.383 715.248 596.681 728.882V728.882Z" fill="#FEBCC7"/>
<path d="M577.045 696.074C562.639 686.853 546.361 680.956 529.392 678.811C526.505 684.33 523.053 689.534 519.089 694.339C531.918 697.416 544.156 702.575 555.317 709.611C567.192 716.317 574.655 728.785 574.953 742.419C574.956 746.24 574.083 750.011 572.399 753.441C591.286 749.948 596.518 739.369 596.681 728.882C596.383 715.248 588.92 702.78 577.045 696.074Z" fill="#FC8EA0"/>
<path d="M596.681 728.882C596.482 741.473 589.056 754.244 559.35 754.653C558.477 749.591 556.481 744.788 553.509 740.598C542.858 724.902 529.969 710.848 515.252 698.88C520.802 692.821 525.553 686.076 529.392 678.811C546.361 680.956 562.639 686.853 577.045 696.074C588.92 702.78 596.383 715.248 596.681 728.882V728.882Z" stroke="#5D0E14" stroke-width="15"/>
<path d="M421.611 801.064C420.672 836.989 414.272 858.749 407.872 871.549C403.355 880.999 393.855 887.057 383.381 887.165C382.556 887.18 381.73 887.151 380.907 887.08C367.352 885.321 357.002 874.108 356.331 860.456C355.172 832.515 357.06 804.532 361.963 777C363.863 779.825 366.229 782.306 368.96 784.339C384.623 794.681 402.85 800.471 421.611 801.064Z" fill="#97DED3" stroke="#5D0E14" stroke-width="15"/>
</svg>
