<svg width="276" height="389" viewBox="0 0 276 389" fill="none" xmlns="http://www.w3.org/2000/svg">
<path d="M220.911 253.132C221.21 258.116 220.385 263.103 218.497 267.727C217.672 269.992 216.552 272.138 215.166 274.113C213.312 276.858 211.004 279.269 208.34 281.244C193.058 291.295 175.275 296.922 156.972 297.498C151.144 297.996 144.9 298.244 137.99 298.244C131.079 298.244 124.835 297.996 119.008 297.498C100.704 296.922 82.9211 291.295 67.6396 281.244C64.9752 279.269 62.6668 276.858 60.8127 274.113C59.4269 272.138 58.3073 269.992 57.4826 267.727C55.5939 263.103 54.7689 258.116 55.0682 253.132C55.7906 234.713 59.2125 216.497 65.2252 199.064C88.9925 205.063 113.482 207.742 137.99 207.025C162.498 207.742 186.987 205.063 210.754 199.064C216.767 216.497 220.188 234.713 220.911 253.132Z" fill="#FEBCC7"/>
<path d="M210.754 199.064C203.067 201.245 195.236 202.886 187.318 203.973C192.326 219.916 195.223 236.442 195.935 253.132C196.234 258.116 195.409 263.103 193.52 267.727C192.696 269.992 191.576 272.138 190.19 274.113C188.336 276.858 186.028 279.269 183.363 281.244C168.082 291.295 150.299 296.922 131.995 297.498C129.914 297.672 127.699 297.78 125.501 297.896C129.456 298.103 133.552 298.244 137.99 298.244C144.9 298.244 151.144 297.996 156.972 297.498C175.275 296.922 193.058 291.295 208.34 281.244C211.004 279.269 213.312 276.858 215.166 274.113C216.552 272.138 217.672 269.992 218.497 267.727C220.385 263.103 221.21 258.116 220.911 253.132C220.189 234.713 216.767 216.497 210.754 199.064V199.064Z" fill="#FC8EA0"/>
<path d="M220.911 253.132C221.21 258.116 220.385 263.103 218.497 267.727C217.672 269.992 216.552 272.138 215.166 274.113C213.312 276.858 211.004 279.269 208.34 281.244C193.058 291.295 175.275 296.922 156.972 297.498C151.144 297.996 144.9 298.244 137.99 298.244C131.079 298.244 124.835 297.996 119.008 297.498C100.704 296.922 82.9211 291.295 67.6396 281.244C64.9752 279.269 62.6668 276.858 60.8127 274.113C59.4269 272.138 58.3073 269.992 57.4826 267.727C55.5939 263.103 54.7689 258.116 55.0682 253.132C55.7906 234.713 59.2125 216.497 65.2252 199.064C88.9925 205.063 113.482 207.742 137.99 207.025C162.498 207.742 186.987 205.063 210.754 199.064C216.767 216.497 220.188 234.713 220.911 253.132Z" stroke="#5D0E14" stroke-width="15"/>
<path d="M55.0684 253.132C54.7691 258.116 55.5941 263.103 57.4827 267.727C32.6729 282.654 19.935 275.937 13.2747 265.654C6.48737 254.255 6.23425 240.136 12.6086 228.503C19.7808 213.495 30.2182 200.265 43.163 189.776C50.0895 193.796 57.5038 196.917 65.2254 199.064C59.2127 216.497 55.7908 234.713 55.0684 253.132Z" fill="#FEBCC7" stroke="#5D0E14" stroke-width="15"/>
<path d="M262.705 265.654C256.044 275.937 243.306 282.654 218.497 267.727C220.385 263.103 221.21 258.116 220.911 253.132C220.188 234.713 216.767 216.497 210.754 199.064C218.476 196.917 225.89 193.796 232.816 189.776C245.761 200.265 256.198 213.495 263.371 228.503C269.745 240.136 269.492 254.255 262.705 265.654Z" fill="#FEBCC7"/>
<path d="M263.371 228.503C256.198 213.495 245.761 200.265 232.816 189.776C227.579 192.845 222.035 195.363 216.274 197.289C225.31 206.42 232.782 216.964 238.394 228.503C244.769 240.136 244.516 254.255 237.728 265.654C235.76 268.807 233.091 271.469 229.927 273.433C247.369 280.257 257.16 274.22 262.705 265.654C269.492 254.255 269.745 240.136 263.371 228.503Z" fill="#FC8EA0"/>
<path d="M262.705 265.654C256.044 275.937 243.306 282.654 218.497 267.727C220.385 263.103 221.21 258.116 220.911 253.132C220.188 234.713 216.767 216.497 210.754 199.064C218.475 196.917 225.89 193.796 232.816 189.776C245.761 200.265 256.198 213.495 263.371 228.503C269.745 240.136 269.492 254.255 262.705 265.654V265.654Z" stroke="#5D0E14" stroke-width="15"/>
<path d="M119.008 297.498C118.092 332.41 111.848 353.557 105.604 365.996C101.196 375.179 91.9282 381.066 81.7097 381.171C80.904 381.185 80.0981 381.158 79.2953 381.089C66.0706 379.379 55.9726 368.482 55.318 355.215C54.1875 328.063 56.0299 300.868 60.8128 274.113C62.6669 276.858 64.9753 279.269 67.6397 281.245C82.9212 291.295 100.704 296.922 119.008 297.498Z" fill="#97DED3" stroke="#5D0E14" stroke-width="15"/>
<path d="M220.661 355.215C220.006 368.482 209.908 379.379 196.684 381.089C195.881 381.158 195.075 381.185 194.269 381.171C184.051 381.066 174.783 375.179 170.375 365.996C164.131 353.557 157.887 332.41 156.971 297.498C175.275 296.922 193.058 291.295 208.339 281.245C211.004 279.269 213.312 276.858 215.166 274.113C219.949 300.868 221.792 328.063 220.661 355.215Z" fill="#97DED3"/>
<path d="M215.166 274.113C213.312 276.858 211.004 279.269 208.339 281.245C203.465 284.761 198.146 287.622 192.521 289.753C195.743 311.416 196.803 333.344 195.685 355.215C195.075 364.615 189.818 373.098 181.656 377.854C185.507 380.015 189.85 381.157 194.269 381.171C195.075 381.185 195.881 381.158 196.684 381.089C209.908 379.379 220.006 368.482 220.661 355.215C221.791 328.063 219.949 300.868 215.166 274.113Z" fill="#76CAC1"/>
<path d="M220.661 355.215C220.006 368.482 209.908 379.379 196.684 381.089C195.881 381.158 195.075 381.185 194.269 381.171C184.051 381.066 174.783 375.179 170.375 365.996C164.131 353.557 157.887 332.41 156.971 297.498C175.275 296.922 193.058 291.295 208.339 281.245C211.004 279.269 213.312 276.858 215.166 274.113C219.949 300.868 221.792 328.063 220.661 355.215V355.215Z" stroke="#5D0E14" stroke-width="15"/>
<path d="M262.871 107.512C262.871 141.678 262.871 171.864 232.816 189.776C225.89 193.796 218.476 196.917 210.754 199.064C186.987 205.063 162.498 207.743 137.99 207.025C113.482 207.743 88.9926 205.063 65.2254 199.064C57.5038 196.917 50.0895 193.796 43.163 189.776C13.1082 171.864 13.1082 141.678 13.1082 107.512C13.1082 61.5709 52.1545 22.9269 105.187 11.483C115.968 9.17437 126.963 8.00691 137.99 8.00009C143.86 7.9938 149.725 8.32606 155.556 8.99521C216.166 15.7952 262.871 57.2587 262.871 107.512Z" fill="#F9F7E8"/>
<path d="M155.556 8.99521C149.725 8.32606 143.86 7.9938 137.99 8.00009C134.035 8.00009 130.189 8.34009 126.334 8.63033C127.749 8.75472 129.181 8.82936 130.588 8.99521C191.189 15.7952 237.895 57.2587 237.895 107.512C237.895 141.678 237.895 171.864 207.84 189.776C200.914 193.796 193.499 196.917 185.778 199.064C166.098 204.194 145.844 206.813 125.501 206.859C129.531 206.958 133.669 207.025 137.99 207.025C162.498 207.743 186.987 205.063 210.754 199.064C218.476 196.917 225.89 193.796 232.816 189.776C262.871 171.864 262.871 141.678 262.871 107.512C262.871 57.2587 216.165 15.7952 155.556 8.99521Z" fill="#FBDDCF"/>
<path d="M262.871 107.512C262.871 141.678 262.871 171.864 232.816 189.776C225.89 193.796 218.476 196.917 210.754 199.064C186.987 205.063 162.498 207.743 137.99 207.025C113.482 207.743 88.9926 205.063 65.2254 199.064C57.5038 196.917 50.0895 193.796 43.163 189.776C13.1082 171.864 13.1082 141.678 13.1082 107.512C13.1082 61.5709 52.1545 22.9269 105.187 11.483C115.968 9.17437 126.963 8.00691 137.99 8.00009C143.86 7.9938 149.725 8.32606 155.556 8.99521C216.166 15.7952 262.871 57.2587 262.871 107.512Z" stroke="#510A10" stroke-width="15"/>
<path d="M83.8744 165.561C95.3694 165.561 104.688 156.279 104.688 144.83C104.688 133.38 95.3694 124.098 83.8744 124.098C72.3794 124.098 63.0608 133.38 63.0608 144.83C63.0608 156.279 72.3794 165.561 83.8744 165.561Z" fill="white"/>
<path d="M192.105 165.561C203.6 165.561 212.919 156.279 212.919 144.83C212.919 133.38 203.6 124.098 192.105 124.098C180.61 124.098 171.292 133.38 171.292 144.83C171.292 156.279 180.61 165.561 192.105 165.561Z" fill="white"/>
<path d="M54.7354 165.561C54.7354 170.141 58.4628 173.854 63.0608 173.854H104.688C109.286 173.854 113.013 170.141 113.013 165.561C112.979 162.824 111.565 160.287 109.25 158.811C111.683 154.547 112.979 149.734 113.013 144.83C113.013 128.8 99.9674 115.805 83.8744 115.805C67.7813 115.805 54.7354 128.8 54.7354 144.83C54.7698 149.734 56.0654 154.547 58.4985 158.811C56.1837 160.287 54.7695 162.824 54.7354 165.561ZM83.8744 132.391C90.7714 132.391 96.3625 137.96 96.3625 144.83C96.3625 151.7 90.7714 157.269 83.8744 157.269C76.9774 157.269 71.3862 151.7 71.3862 144.83C71.3862 137.96 76.9774 132.391 83.8744 132.391Z" fill="#5D0E14"/>
<path d="M162.966 165.561C162.966 170.141 166.693 173.854 171.292 173.854H212.919C217.517 173.854 221.244 170.141 221.244 165.561C221.21 162.824 219.796 160.287 217.481 158.811C219.914 154.547 221.21 149.734 221.244 144.83C221.244 128.8 208.198 115.805 192.105 115.805C176.012 115.805 162.966 128.8 162.966 144.83C163.001 149.734 164.296 154.547 166.729 158.811C164.414 160.287 163 162.824 162.966 165.561ZM192.105 132.391C199.002 132.391 204.593 137.96 204.593 144.83C204.593 151.7 199.002 157.269 192.105 157.269C185.208 157.269 179.617 151.7 179.617 144.83C179.617 137.96 185.208 132.391 192.105 132.391Z" fill="#5D0E14"/>
</svg>
