<svg width="616" height="329" viewBox="0 0 616 329" fill="none" xmlns="http://www.w3.org/2000/svg">
<path d="M318.886 20.2694C308.559 11.8571 297.277 8.73784 285.351 10.9853C277.43 12.488 270.051 16.3569 263.431 21.2377C262.572 16.1421 261.587 10.7398 260.487 5.15791L166.37 1L76.6618 5.15791C75.5621 10.7398 74.5762 16.1421 73.7175 21.2377C67.0973 16.3568 59.7195 12.488 51.7974 10.9853C39.871 8.73762 28.5896 11.8572 18.2627 20.2694C2.2098 33.3522 -3.52627 51.6135 2.11332 71.6942C13.1851 111.122 62.3351 148.035 102.794 158.818C115.474 174.806 128.858 189.641 132.885 196.472C146.13 218.966 134.576 225.512 115.548 239.296H221.591C202.567 225.508 191.008 218.962 204.254 196.472C208.28 189.637 221.669 174.797 234.345 158.818C274.807 148.036 323.954 111.119 335.025 71.6942C340.682 51.6147 334.938 33.3522 318.888 20.2694H318.886ZM18.1303 67.1897C14.2308 53.3095 17.7141 42.1761 28.7771 33.1727C35.2134 27.9238 41.7376 26.031 48.7086 27.3367C56.4987 28.8045 64.1659 34.0972 70.8609 40.4464C70.0898 46.646 69.6473 51.6886 69.5816 55.0625C69.5071 58.8611 69.6298 63.0103 69.9102 67.3433C68.7403 67.4309 67.5793 67.4484 66.4313 67.3126C60.3281 66.5415 55.0747 62.3484 50.3818 54.4968C48.0333 50.5579 42.9203 49.2566 38.977 51.6182C35.0338 53.9754 33.7456 59.0797 36.0984 63.023C43.503 75.4272 53.0453 82.424 64.4501 83.826C66.8993 84.1327 69.3134 84.1327 71.6662 83.9268C74.2995 101.877 79.3336 120.98 86.4584 135.154C55.1053 120.336 25.1104 92.0194 18.1305 67.1897H18.1303ZM125.83 140.057C125.203 140.394 124.524 140.552 123.858 140.552C122.377 140.552 120.945 139.759 120.191 138.366C102.907 106.277 100.737 53.4241 100.027 36.06L99.9792 34.8989C99.8785 32.6074 101.662 30.6665 103.962 30.5701C106.28 30.4518 108.194 32.2525 108.291 34.5528L108.339 35.7226C110.197 81.039 116.655 114.251 127.517 134.427C128.612 136.447 127.854 138.966 125.83 140.057V140.057ZM319.032 67.1897C312.052 92.0194 282.062 120.336 250.704 135.154C257.828 120.976 262.871 101.877 265.496 83.9268C267.853 84.1327 270.263 84.1327 272.712 83.826C284.117 82.4327 293.656 75.4269 301.064 63.023C303.421 59.0798 302.133 53.9711 298.185 51.6182C294.242 49.2566 289.133 50.5579 286.781 54.4968C282.088 62.3482 276.839 66.5364 270.731 67.3126C269.583 67.4528 268.413 67.4309 267.252 67.3433C267.528 63.01 267.655 58.8653 267.581 55.0625C267.519 51.6888 267.073 46.6458 266.301 40.4464C272.996 34.089 280.668 28.8094 288.454 27.3367C295.424 26.031 301.944 27.9194 308.385 33.1727C319.444 42.1808 322.932 53.3095 319.032 67.1897H319.032Z" fill="#FBF2A5"/>
<path d="M236.569 303.853C237.073 307.156 234.755 309.86 231.412 309.86L105.733 309.855C102.39 309.855 100.072 307.157 100.576 303.849L107.879 256.087C108.383 252.783 111.529 250.08 114.872 250.08H222.255C225.598 250.08 228.744 252.779 229.248 256.087L236.569 303.853Z" fill="#FBF2A5"/>
<path d="M383.899 213.479C384.15 217.664 383.458 221.851 381.872 225.735C381.179 227.636 380.239 229.439 379.075 231.097C377.518 233.402 375.58 235.427 373.342 237.086C360.51 245.525 345.577 250.251 330.207 250.734C325.314 251.152 320.07 251.361 314.268 251.361C308.465 251.361 303.222 251.152 298.328 250.734C282.958 250.251 268.025 245.525 255.193 237.086C252.955 235.427 251.017 233.402 249.46 231.097C248.296 229.439 247.356 227.636 246.664 225.735C245.078 221.851 244.385 217.664 244.636 213.479C245.243 198.011 248.116 182.716 253.165 168.076C273.123 173.114 293.688 175.364 314.268 174.761C334.848 175.364 355.412 173.114 375.37 168.076C380.419 182.716 383.292 198.011 383.899 213.479Z" fill="#FEBCC7"/>
<path d="M375.37 168.076C368.915 169.908 362.339 171.286 355.69 172.199C359.895 185.586 362.328 199.464 362.926 213.479C363.177 217.664 362.484 221.852 360.898 225.735C360.206 227.636 359.265 229.439 358.102 231.097C356.545 233.402 354.606 235.427 352.369 237.086C339.537 245.526 324.604 250.251 309.234 250.734C307.486 250.88 305.626 250.971 303.781 251.069C307.102 251.243 310.541 251.361 314.267 251.361C320.07 251.361 325.313 251.152 330.207 250.734C345.577 250.251 360.51 245.526 373.342 237.086C375.58 235.427 377.518 233.402 379.075 231.097C380.239 229.439 381.179 227.636 381.871 225.735C383.457 221.852 384.15 217.664 383.899 213.479C383.292 198.012 380.419 182.716 375.37 168.076Z" fill="#FC8EA0"/>
<path d="M383.899 213.479C384.15 217.664 383.458 221.851 381.872 225.735C381.179 227.636 380.239 229.439 379.075 231.097C377.518 233.402 375.58 235.427 373.343 237.086C360.51 245.525 345.577 250.251 330.207 250.734C325.314 251.152 320.07 251.361 314.268 251.361C308.465 251.361 303.222 251.152 298.328 250.734C282.958 250.251 268.025 245.525 255.193 237.086C252.955 235.427 251.017 233.402 249.46 231.097C248.296 229.439 247.356 227.636 246.664 225.735C245.078 221.851 244.385 217.664 244.636 213.479C245.243 198.011 248.116 182.716 253.165 168.076C273.123 173.114 293.688 175.364 314.268 174.761C334.848 175.364 355.412 173.114 375.37 168.076C380.419 182.716 383.292 198.011 383.899 213.479Z" stroke="#5D0E14" stroke-width="15"/>
<path d="M298.328 250.734C297.559 280.051 292.315 297.808 287.072 308.254C283.371 315.965 275.588 320.908 267.007 320.997C266.331 321.009 265.654 320.985 264.98 320.927C253.875 319.492 245.395 310.342 244.846 299.201C243.896 276.4 245.443 253.564 249.46 231.097C251.017 233.402 252.955 235.427 255.192 237.086C268.025 245.526 282.958 250.251 298.328 250.734Z" fill="#97DED3" stroke="#5D0E14" stroke-width="15"/>
<path d="M383.689 299.201C383.139 310.342 374.66 319.492 363.555 320.927C362.88 320.985 362.204 321.009 361.527 320.997C352.946 320.908 345.164 315.965 341.463 308.254C336.219 297.808 330.976 280.051 330.207 250.734C345.577 250.251 360.51 245.526 373.342 237.086C375.58 235.427 377.518 233.402 379.075 231.097C383.091 253.564 384.638 276.4 383.689 299.201Z" fill="#97DED3"/>
<path d="M379.075 231.097C377.518 233.402 375.579 235.427 373.342 237.086C369.249 240.038 364.783 242.441 360.059 244.23C362.765 262.422 363.654 280.835 362.716 299.201C362.204 307.094 357.789 314.218 350.936 318.212C354.169 320.026 357.816 320.985 361.527 320.997C362.204 321.009 362.88 320.985 363.554 320.927C374.66 319.492 383.139 310.342 383.689 299.201C384.638 276.4 383.091 253.564 379.075 231.097Z" fill="#76CAC1"/>
<path d="M383.689 299.201C383.139 310.342 374.66 319.492 363.555 320.927C362.88 320.985 362.204 321.009 361.527 320.997C352.946 320.908 345.164 315.965 341.463 308.254C336.219 297.808 330.976 280.051 330.207 250.734C345.577 250.251 360.51 245.526 373.342 237.086C375.58 235.427 377.518 233.402 379.075 231.097C383.091 253.564 384.638 276.4 383.689 299.201V299.201Z" stroke="#5D0E14" stroke-width="15"/>
<path d="M419.134 91.1979C419.134 119.888 419.134 145.236 393.896 160.277C388.08 163.653 381.854 166.274 375.37 168.076C355.412 173.114 334.847 175.364 314.267 174.761C293.687 175.364 273.123 173.114 253.165 168.076C246.681 166.274 240.455 163.653 234.639 160.277C209.401 145.236 209.401 119.888 209.401 91.1979C209.401 52.6195 242.189 20.169 286.723 10.5593C295.775 8.62061 305.008 7.64026 314.267 7.63453C319.197 7.62925 324.122 7.90826 329.019 8.47017C379.914 14.1803 419.134 48.9984 419.134 91.1979Z" fill="#F9F7E8"/>
<path d="M329.019 8.47017C324.122 7.90826 319.197 7.62925 314.267 7.63453C310.947 7.63453 307.717 7.92004 304.48 8.16377C305.668 8.26822 306.871 8.33089 308.052 8.47017C358.941 14.1803 398.161 48.9984 398.161 91.1979C398.161 119.888 398.161 145.236 372.923 160.277C367.106 163.653 360.88 166.274 354.396 168.076C337.871 172.384 320.863 174.583 303.781 174.622C307.164 174.706 310.639 174.761 314.267 174.761C334.847 175.364 355.412 173.114 375.37 168.076C381.854 166.274 388.08 163.653 393.896 160.277C419.134 145.236 419.134 119.888 419.134 91.1979C419.134 48.9984 379.914 14.1803 329.019 8.47017Z" fill="#FBDDCF"/>
<path d="M419.134 91.1979C419.134 119.888 419.134 145.236 393.896 160.277C388.08 163.653 381.854 166.274 375.37 168.076C355.412 173.114 334.847 175.364 314.267 174.761C293.687 175.364 273.123 173.114 253.165 168.076C246.681 166.274 240.455 163.653 234.639 160.277C209.401 145.236 209.401 119.888 209.401 91.1979C209.401 52.6195 242.189 20.169 286.723 10.5593C295.775 8.62061 305.008 7.64026 314.267 7.63453C319.197 7.62925 324.122 7.90826 329.019 8.47017C379.914 14.1803 419.134 48.9984 419.134 91.1979Z" stroke="#510A10" stroke-width="15"/>
<path d="M359.105 124.498C349.453 124.469 341.651 116.651 341.68 107.037C341.709 97.4219 349.557 89.6512 359.21 89.6801C368.862 89.7091 376.664 97.5269 376.635 107.142C376.606 116.756 368.758 124.527 359.105 124.498Z" fill="white"/>
<path d="M268.221 124.225C258.568 124.196 250.767 116.379 250.796 106.764C250.824 97.1492 258.673 89.3784 268.326 89.4074C277.978 89.4364 285.78 97.2541 285.751 106.869C285.722 116.483 277.874 124.254 268.221 124.225Z" fill="white"/>
<path d="M383.574 124.571C383.562 128.417 380.423 131.526 376.562 131.514L341.606 131.409C337.745 131.398 334.625 128.27 334.636 124.425C334.672 122.126 335.866 119.999 337.813 118.766C335.781 115.179 334.705 111.134 334.689 107.016C334.729 93.555 345.717 82.676 359.23 82.7165C372.744 82.7571 383.666 93.7019 383.626 107.163C383.585 111.281 382.485 115.319 380.431 118.894C382.371 120.139 383.552 122.273 383.574 124.571ZM359.189 96.6437C353.397 96.6263 348.688 101.289 348.671 107.058C348.653 112.826 353.334 117.517 359.126 117.534C364.918 117.552 369.627 112.889 369.644 107.121C369.661 101.352 364.98 96.6611 359.189 96.6437Z" fill="#5D0E14"/>
<path d="M292.69 124.299C292.678 128.145 289.539 131.253 285.678 131.241L250.722 131.136C246.861 131.125 243.74 127.998 243.752 124.152C243.788 121.853 244.982 119.727 246.929 118.493C244.897 114.906 243.821 110.861 243.804 106.743C243.845 93.2823 254.832 82.4032 268.346 82.4438C281.86 82.4843 292.782 93.4292 292.742 106.89C292.7 111.008 291.6 115.047 289.547 118.621C291.487 119.866 292.668 122 292.69 124.299ZM268.304 96.3709C262.513 96.3535 257.804 101.016 257.786 106.785C257.769 112.554 262.45 117.244 268.242 117.262C274.033 117.279 278.742 112.617 278.76 106.848C278.777 101.079 274.096 96.3883 268.304 96.3709Z" fill="#5D0E14"/>
<path d="M267.657 217.48C267.999 221.433 269.348 225.231 271.608 228.596C251.186 243.777 238.942 240.287 231.712 233.149C224.231 225.152 222.277 214.108 226.57 204.088C231.165 191.308 238.906 179.468 249.231 169.427C255.934 171.614 262.964 173.027 270.151 173.631C266.892 188.152 266.052 202.925 267.657 217.48Z" fill="#FEBCC7" stroke="#5D0E14" stroke-width="15"/>
<g clip-path="url(#clip0_51_2)">
<path d="M401.339 221.088C400.898 221.046 400.48 220.874 400.136 220.594C399.793 220.313 399.541 219.938 399.411 219.514C399.281 219.09 399.28 218.637 399.408 218.212C399.535 217.788 399.785 217.41 400.127 217.128L445.435 179.689C445.661 179.497 445.923 179.352 446.205 179.262C446.488 179.173 446.786 179.14 447.081 179.167C447.376 179.193 447.663 179.278 447.925 179.416C448.188 179.554 448.42 179.743 448.609 179.972C448.797 180.201 448.939 180.465 449.025 180.749C449.111 181.033 449.14 181.331 449.109 181.626C449.079 181.922 448.991 182.208 448.85 182.469C448.708 182.73 448.516 182.96 448.285 183.146L402.978 220.581C402.752 220.769 402.49 220.911 402.209 220.997C401.928 221.083 401.632 221.113 401.339 221.084L401.339 221.088Z" fill="white" stroke="white" stroke-width="2" stroke-miterlimit="10"/>
<path d="M440.495 222.517C440.054 222.475 439.636 222.303 439.293 222.023C438.949 221.743 438.697 221.367 438.567 220.943C438.438 220.519 438.436 220.066 438.564 219.641C438.691 219.217 438.941 218.839 439.283 218.557L461.939 199.84C462.398 199.47 462.984 199.296 463.57 199.356C464.156 199.415 464.695 199.704 465.07 200.159C465.445 200.613 465.626 201.198 465.573 201.785C465.521 202.373 465.239 202.916 464.79 203.297L442.134 222.014C441.907 222.202 441.646 222.344 441.365 222.43C441.083 222.516 440.788 222.546 440.495 222.517Z" fill="#E7E5E5" stroke="white" stroke-width="2" stroke-miterlimit="10"/>
<path d="M604.985 96.4207L603.676 94.8335C601.784 92.5287 599.133 90.9755 596.198 90.4536C598.454 88.2481 599.8 85.2749 599.97 82.1231C600.139 78.9714 599.12 75.8712 597.113 73.437L595.804 71.8499C594.481 70.253 592.784 69.0088 590.864 68.2283C588.944 67.4479 586.861 67.1555 584.8 67.3771C585.298 65.4547 585.334 63.4416 584.905 61.5027C584.476 59.5639 583.594 57.7545 582.331 56.223L581.022 54.6319C579.647 52.9638 577.864 51.6793 575.847 50.9029C573.831 50.1265 571.647 49.8845 569.509 50.2001C569.923 48.335 569.906 46.4001 569.461 44.5425C569.015 42.6849 568.152 40.9536 566.938 39.4801L565.629 37.893C564.581 36.6179 563.291 35.5635 561.834 34.7909C560.376 34.0182 558.78 33.5427 557.138 33.3917C555.496 33.229 553.838 33.3937 552.259 33.8761C550.681 34.3585 549.214 35.1492 547.943 36.2023L516.615 62.1786C502.186 40.8446 490.902 30.7455 481.074 30.3884C475.437 30.2038 470.384 33.1416 465.63 39.3741L464.603 40.7215L465.62 42.0812C479.043 60.0611 487.735 92.1721 479.93 103.81L478.931 102.599C478.258 101.787 477.418 101.13 476.469 100.671C475.519 100.213 474.483 99.9647 473.429 99.9429C471.282 99.8712 469.184 100.596 467.538 101.978L434.188 129.54C432.52 130.896 431.412 132.821 431.076 134.944C430.9 135.984 430.948 137.049 431.217 138.069C431.486 139.088 431.969 140.038 432.634 140.856L484.188 203.372C484.814 204.12 485.581 204.737 486.445 205.187C487.31 205.638 488.255 205.912 489.226 205.995C491.524 206.193 493.807 205.471 495.574 203.988L528.906 176.444C530.572 175.087 531.68 173.163 532.018 171.04C532.194 170 532.145 168.934 531.875 167.915C531.606 166.895 531.122 165.945 530.456 165.128L530.354 165.004C538.777 164.095 549.57 158.896 558.409 151.209L603.284 114.128C604.559 113.077 605.614 111.786 606.389 110.327C607.165 108.869 607.645 107.271 607.803 105.627C607.961 103.982 607.793 102.322 607.31 100.743C606.826 99.1629 606.036 97.6943 604.985 96.4207ZM600.448 110.648L555.527 147.782C545.801 156.239 533.258 161.56 525.924 160.529L520.185 159.703L527.014 167.98C527.275 168.311 527.462 168.695 527.564 169.105C527.665 169.515 527.677 169.942 527.6 170.357C527.429 171.391 526.882 172.325 526.064 172.979L492.74 200.524C491.106 201.866 488.775 201.859 487.656 200.506L436.094 137.986C435.834 137.653 435.647 137.27 435.546 136.86C435.445 136.45 435.432 136.024 435.508 135.608C435.68 134.575 436.227 133.641 437.044 132.986L470.373 105.442C471.169 104.762 472.189 104.403 473.235 104.433C473.306 104.435 473.376 104.442 473.445 104.453C473.83 104.48 474.206 104.583 474.551 104.756C474.896 104.928 475.204 105.167 475.456 105.459L479.656 110.556L503.717 139.734C504.103 140.167 504.641 140.433 505.219 140.477C505.797 140.521 506.369 140.339 506.815 139.969C507.262 139.6 507.548 139.071 507.614 138.495C507.679 137.919 507.52 137.34 507.168 136.879L482.84 107.379C493.603 93.9058 483.243 59.2816 470.219 40.8267C473.692 36.7157 477.201 34.7707 480.916 34.8937C489.362 35.1512 500.235 45.5938 514.258 66.7505L515.634 68.8286L550.779 39.6906C552.434 38.3294 554.56 37.6796 556.692 37.8834C558.824 38.0872 560.788 39.128 562.156 40.7782L563.464 42.3653C564.824 44.0216 565.473 46.1497 565.269 48.2839C565.065 50.4181 564.024 52.3847 562.376 53.7535L549.159 64.6746C548.92 64.8575 548.72 65.0869 548.571 65.3491C548.422 65.6112 548.327 65.9007 548.293 66.2003C548.258 66.4998 548.284 66.8032 548.37 67.0924C548.455 67.3816 548.598 67.6505 548.789 67.8832C548.981 68.1158 549.217 68.3074 549.485 68.4464C549.752 68.5854 550.044 68.669 550.345 68.6922C550.645 68.7153 550.947 68.6776 551.233 68.5812C551.518 68.4849 551.781 68.3319 552.006 68.1314L566.172 56.4254C567.827 55.0642 569.953 54.4144 572.085 54.6182C574.218 54.822 576.182 55.8628 577.549 57.513L578.858 59.1041C580.217 60.7605 580.866 62.8885 580.662 65.0228C580.458 67.157 579.418 69.1236 577.769 70.4923L563.631 82.201C563.173 82.5795 562.884 83.1247 562.827 83.7165C562.771 84.3083 562.951 84.8983 563.329 85.3568C563.516 85.5836 563.746 85.7713 564.005 85.9092C564.265 86.0471 564.549 86.1325 564.841 86.1604C565.134 86.1884 565.429 86.1584 565.71 86.0721C565.99 85.9859 566.252 85.8451 566.478 85.6577L580.989 73.6671C582.644 72.3046 584.771 71.6541 586.904 71.858C589.037 72.0619 591.002 73.1036 592.369 74.755L593.678 76.3421C595.038 77.9985 595.687 80.1265 595.483 82.2607C595.279 84.395 594.238 86.3616 592.59 87.7303L585.998 93.1477L578.047 99.7179C577.807 99.9008 577.607 100.13 577.458 100.392C577.309 100.654 577.215 100.944 577.18 101.244C577.145 101.543 577.172 101.847 577.257 102.136C577.342 102.425 577.485 102.694 577.677 102.926C577.868 103.159 578.105 103.351 578.372 103.49C578.639 103.629 578.932 103.712 579.232 103.735C579.533 103.759 579.835 103.721 580.12 103.625C580.406 103.528 580.669 103.375 580.894 103.175L588.845 96.6044C590.5 95.2432 592.626 94.5934 594.758 94.7972C596.89 95.001 598.854 96.0419 600.222 97.692L601.534 99.2795C602.89 100.939 603.536 103.067 603.332 105.202C603.128 107.336 602.091 109.303 600.445 110.676L600.448 110.648Z" fill="#5D0F15" stroke="#5D0F15" stroke-width="6" stroke-miterlimit="10"/>
<path d="M603.333 105.193C603.237 106.252 602.933 107.28 602.437 108.22C601.942 109.16 601.265 109.992 600.446 110.668L555.527 147.782C545.801 156.239 533.258 161.56 525.924 160.529L520.185 159.703L527.014 167.98C527.275 168.311 527.462 168.695 527.564 169.105C527.665 169.515 527.677 169.942 527.6 170.357C527.429 171.391 526.882 172.325 526.064 172.979L492.74 200.524C491.106 201.866 488.776 201.859 487.656 200.506L436.094 137.986C435.834 137.653 435.647 137.27 435.546 136.86C435.445 136.45 435.432 136.024 435.508 135.608C435.68 134.575 436.227 133.641 437.044 132.986L470.373 105.442C471.169 104.762 472.189 104.403 473.235 104.433C473.306 104.435 473.376 104.442 473.445 104.453C473.83 104.48 474.206 104.583 474.551 104.756C474.896 104.928 475.204 105.167 475.456 105.459L479.656 110.556L503.717 139.734C504.103 140.167 504.641 140.433 505.219 140.477C505.797 140.521 506.369 140.339 506.815 139.969C507.262 139.6 507.548 139.071 507.614 138.495C507.679 137.919 507.52 137.34 507.168 136.879L482.84 107.379C493.603 93.9058 483.243 59.2817 470.219 40.8267C473.692 36.7157 477.201 34.7707 480.916 34.8937C489.362 35.1513 500.235 45.5938 514.258 66.7505L515.634 68.8286L550.779 39.6906C552.434 38.3294 554.56 37.6796 556.692 37.8834C558.824 38.0872 560.788 39.128 562.156 40.7782L563.464 42.3653C564.824 44.0216 565.473 46.1497 565.269 48.2839C565.065 50.4181 564.025 52.3847 562.376 53.7535L549.159 64.6747C548.92 64.8576 548.72 65.0869 548.571 65.3491C548.422 65.6112 548.327 65.9007 548.293 66.2003C548.258 66.4998 548.284 66.8033 548.37 67.0924C548.455 67.3816 548.598 67.6505 548.789 67.8832C548.981 68.1158 549.217 68.3074 549.485 68.4464C549.752 68.5854 550.044 68.669 550.345 68.6922C550.645 68.7153 550.947 68.6776 551.233 68.5813C551.518 68.4849 551.781 68.3319 552.006 68.1314L566.172 56.4255C567.827 55.0642 569.953 54.4144 572.086 54.6182C574.218 54.822 576.182 55.8629 577.549 57.513L578.858 59.1042C580.217 60.7605 580.866 62.8886 580.662 65.0228C580.458 67.157 579.418 69.1236 577.769 70.4924L563.631 82.201C563.173 82.5796 562.884 83.1247 562.827 83.7165C562.771 84.3083 562.951 84.8983 563.329 85.3568C563.516 85.5836 563.746 85.7713 564.005 85.9092C564.265 86.0471 564.549 86.1325 564.841 86.1604C565.134 86.1884 565.429 86.1584 565.71 86.0721C565.99 85.9859 566.252 85.8451 566.478 85.6578L580.989 73.6671C582.644 72.3047 584.771 71.6541 586.904 71.858C589.037 72.062 591.002 73.1037 592.37 74.755L593.678 76.3421C595.038 77.9985 595.687 80.1265 595.483 82.2608C595.279 84.395 594.239 86.3616 592.59 87.7304L585.998 93.1477L578.047 99.7179C577.807 99.9008 577.607 100.13 577.458 100.392C577.309 100.654 577.215 100.944 577.18 101.244C577.145 101.543 577.172 101.847 577.257 102.136C577.342 102.425 577.485 102.694 577.677 102.926C577.868 103.159 578.105 103.351 578.372 103.49C578.639 103.629 578.932 103.712 579.232 103.735C579.533 103.759 579.835 103.721 580.12 103.625C580.406 103.528 580.669 103.375 580.894 103.175L588.845 96.6045C590.5 95.2432 592.626 94.5934 594.758 94.7972C596.89 95.001 598.855 96.0419 600.222 97.692L601.534 99.2795C602.209 100.098 602.714 101.042 603.023 102.057C603.332 103.072 603.437 104.138 603.333 105.193Z" fill="#F8BBC7" stroke="#4D0C11" stroke-width="6" stroke-miterlimit="10"/>
<path d="M494.47 180.507C491.798 180.251 489.297 179.076 487.394 177.181C485.491 175.286 484.303 172.79 484.032 170.117C483.762 167.443 484.426 164.759 485.912 162.52C487.397 160.282 489.612 158.628 492.178 157.84C494.745 157.053 497.505 157.181 499.988 158.202C502.47 159.223 504.523 161.074 505.794 163.44C507.066 165.806 507.479 168.541 506.962 171.178C506.446 173.815 505.032 176.191 502.961 177.902C501.788 178.876 500.434 179.608 498.976 180.055C497.519 180.502 495.987 180.656 494.47 180.507ZM496.254 161.846C494.853 161.715 493.445 162.001 492.207 162.669C490.968 163.337 489.955 164.357 489.295 165.601C488.635 166.844 488.357 168.255 488.497 169.656C488.637 171.058 489.188 172.386 490.081 173.473C491.308 174.894 493.035 175.786 494.902 175.965C496.77 176.143 498.634 175.594 500.108 174.432C501.19 173.533 501.983 172.334 502.386 170.985C502.789 169.636 502.784 168.198 502.372 166.853C501.96 165.507 501.159 164.313 500.07 163.422C498.981 162.531 497.653 161.983 496.254 161.846Z" fill="#5D0F15" stroke="#5D0F15" stroke-miterlimit="10"/>
<path d="M408.102 180.39C407.661 180.348 407.243 180.176 406.9 179.895C406.557 179.615 406.304 179.239 406.174 178.816C406.045 178.392 406.043 177.939 406.171 177.514C406.298 177.089 406.548 176.712 406.89 176.43L429.546 157.712C429.772 157.521 430.034 157.376 430.317 157.286C430.599 157.196 430.897 157.164 431.192 157.19C431.487 157.217 431.774 157.301 432.037 157.44C432.299 157.578 432.531 157.767 432.72 157.996C432.909 158.225 433.05 158.489 433.136 158.773C433.222 159.057 433.251 159.355 433.221 159.65C433.191 159.945 433.102 160.232 432.961 160.492C432.819 160.753 432.628 160.983 432.397 161.169L409.741 179.887C409.515 180.075 409.253 180.216 408.972 180.303C408.691 180.389 408.395 180.419 408.102 180.39Z" fill="white" stroke="white" stroke-width="2" stroke-miterlimit="10"/>
</g>
<rect x="244" y="111" width="140" height="36" fill="#F9F7E8"/>
<path d="M319.296 241.844C307.349 241.844 297.63 232.125 297.63 220.177C297.63 208.231 307.348 198.511 319.296 198.511C331.244 198.511 340.963 208.23 340.963 220.177C340.963 232.124 331.244 241.844 319.296 241.844ZM319.296 202.866C309.751 202.866 301.986 210.633 301.986 220.176C301.986 229.721 309.753 237.486 319.296 237.486C328.84 237.486 336.606 229.719 336.606 220.176C336.606 210.633 328.841 202.866 319.296 202.866Z" fill="#FBF2A5"/>
<path d="M281.519 179.779L300.562 209.338L304.453 206.674L287.234 179.779H281.519Z" fill="#FBF2A5"/>
<path d="M296.193 179.779L310.484 202.396L314.375 199.732L301.909 179.779H296.193Z" fill="#FBF2A5"/>
<path d="M336.682 179.779L324.216 199.732L328.107 202.396L342.397 179.779H336.682Z" fill="#FBF2A5"/>
<path d="M351.355 179.779L334.138 206.674L338.029 209.338L357.072 179.779H351.355Z" fill="#FBF2A5"/>
<defs>
<clipPath id="clip0_51_2">
<rect width="198.176" height="203.214" fill="white" transform="translate(418.227 18.9032) rotate(5.46051)"/>
</clipPath>
</defs>
</svg>
